RobotoMono-Bold.ufo
<glyph name="exclam" format="2">
  <advance width="1229"/>
  <unicode hex="0021"/>
  <outline>
    <contour>
      <point x="741" y="509" type="line"/>
      <point x="488" y="509" type="line"/>
      <point x="472" y="1456" type="line"/>
      <point x="757" y="1456" type="line"/>
    </contour>
    <contour>
      <point x="452" y="136" type="qcurve" smooth="yes"/>
      <point x="452" y="202"/>
      <point x="538" y="290"/>
      <point x="614" y="290" type="qcurve" smooth="yes"/>
      <point x="688" y="290"/>
      <point x="776" y="202"/>
      <point x="776" y="136" type="qcurve" smooth="yes"/>
      <point x="776" y="72"/>
      <point x="688" y="-15"/>
      <point x="614" y="-15" type="qcurve" smooth="yes"/>
      <point x="538" y="-15"/>
      <point x="452" y="72"/>
    </contour>
  </outline>
</glyph>
<glyph name="numbersign" format="2">
  <advance width="1229"/>
  <unicode hex="0023"/>
  <outline>
    <contour>
      <point x="649" y="410" type="line"/>
      <point x="448" y="410" type="line"/>
      <point x="375" y="0" type="line"/>
      <point x="196" y="0" type="line"/>
      <point x="269" y="410" type="line"/>
      <point x="41" y="410" type="line"/>
      <point x="41" y="579" type="line"/>
      <point x="299" y="579" type="line"/>
      <point x="351" y="869" type="line"/>
      <point x="116" y="869" type="line"/>
      <point x="116" y="1040" type="line"/>
      <point x="381" y="1040" type="line"/>
      <point x="456" y="1456" type="line"/>
      <point x="634" y="1456" type="line"/>
      <point x="560" y="1040" type="line"/>
      <point x="761" y="1040" type="line"/>
      <point x="835" y="1456" type="line"/>
      <point x="1015" y="1456" type="line"/>
      <point x="940" y="1040" type="line"/>
      <point x="1157" y="1040" type="line"/>
      <point x="1157" y="869" type="line"/>
      <point x="910" y="869" type="line"/>
      <point x="858" y="579" type="line"/>
      <point x="1081" y="579" type="line"/>
      <point x="1081" y="410" type="line"/>
      <point x="828" y="410" type="line"/>
      <point x="755" y="0" type="line"/>
      <point x="576" y="0" type="line"/>
    </contour>
    <contour>
      <point x="478" y="579" type="line"/>
      <point x="679" y="579" type="line"/>
      <point x="730" y="869" type="line"/>
      <point x="529" y="869" type="line"/>
    </contour>
  </outline>
</glyph>
<glyph name="dollar" format="2">
  <advance width="1229"/>
  <unicode hex="0024"/>
  <outline>
    <contour>
      <point x="863" y="382" type="qcurve" smooth="yes"/>
      <point x="863" y="424"/>
      <point x="838" y="489"/>
      <point x="811" y="516" type="qcurve" smooth="yes" name="inserted"/>
      <point x="783" y="543"/>
      <point x="694" y="588"/>
      <point x="631" y="610" type="qcurve" smooth="yes"/>
      <point x="530" y="646"/>
      <point x="364" y="726"/>
      <point x="306" y="779" type="qcurve" smooth="yes" name="inserted"/>
      <point x="247" y="832"/>
      <point x="183" y="973"/>
      <point x="183" y="1070" type="qcurve" smooth="yes"/>
      <point x="183" y="1155"/>
      <point x="241" y="1296"/>
      <point x="294" y="1348" type="qcurve" smooth="yes" name="inserted"/>
      <point x="347" y="1400"/>
      <point x="497" y="1464"/>
      <point x="589" y="1473" type="qcurve"/>
      <point x="589" y="1688" type="line"/>
      <point x="749" y="1688" type="line"/>
      <point x="749" y="1471" type="line"/>
      <point x="839" y="1459"/>
      <point x="983" y="1385"/>
      <point x="1034" y="1326" type="qcurve" smooth="yes" name="inserted"/>
      <point x="1084" y="1266"/>
      <point x="1139" y="1105"/>
      <point x="1139" y="1005" type="qcurve"/>
      <point x="861" y="1005" type="line"/>
      <point x="861" y="1069"/>
      <point x="829" y="1165"/>
      <point x="800" y="1196" type="qcurve" smooth="yes"/>
      <point x="774" y="1223"/>
      <point x="701" y="1251"/>
      <point x="657" y="1251" type="qcurve" smooth="yes"/>
      <point x="606" y="1251"/>
      <point x="531" y="1224"/>
      <point x="507" y="1200" type="qcurve" smooth="yes" name="inserted"/>
      <point x="483" y="1175"/>
      <point x="460" y="1109"/>
      <point x="460" y="1070" type="qcurve" smooth="yes"/>
      <point x="460" y="1031"/>
      <point x="483" y="970"/>
      <point x="511" y="944" type="qcurve" smooth="yes" name="inserted"/>
      <point x="538" y="918"/>
      <point x="628" y="871"/>
      <point x="695" y="847" type="qcurve" smooth="yes"/>
      <point x="796" y="809"/>
      <point x="960" y="728"/>
      <point x="1019" y="675" type="qcurve" smooth="yes" name="inserted"/>
      <point x="1077" y="621"/>
      <point x="1140" y="480"/>
      <point x="1140" y="384" type="qcurve" smooth="yes"/>
      <point x="1140" y="296"/>
      <point x="1082" y="155"/>
      <point x="1028" y="104" type="qcurve" smooth="yes" name="inserted"/>
      <point x="974" y="53"/>
      <point x="822" y="-8"/>
      <point x="728" y="-17" type="qcurve"/>
      <point x="728" y="-213" type="line"/>
      <point x="569" y="-213" type="line"/>
      <point x="569" y="-17" type="line"/>
      <point x="484" y="-9"/>
      <point x="324" y="50"/>
      <point x="263" y="106" type="qcurve" smooth="yes" name="inserted"/>
      <point x="201" y="162"/>
      <point x="127" y="333"/>
      <point x="127" y="453" type="qcurve"/>
      <point x="406" y="453" type="line"/>
      <point x="406" y="381"/>
      <point x="448" y="284"/>
      <point x="482" y="256" type="qcurve" smooth="yes" name="inserted"/>
      <point x="515" y="227"/>
      <point x="601" y="203"/>
      <point x="646" y="203" type="qcurve" smooth="yes"/>
      <point x="703" y="203"/>
      <point x="787" y="232"/>
      <point x="814" y="258" type="qcurve" smooth="yes"/>
      <point x="838" y="281"/>
      <point x="863" y="345"/>
    </contour>
  </outline>
</glyph>
<glyph name="ampersand" format="2">
  <advance width="1229"/>
  <unicode hex="0026"/>
  <outline>
    <contour>
      <point x="75" y="371" type="qcurve" smooth="yes"/>
      <point x="75" y="437"/>
      <point x="112" y="547"/>
      <point x="146" y="595" type="qcurve" smooth="yes" name="inserted"/>
      <point x="177" y="638"/>
      <point x="263" y="716"/>
      <point x="316" y="754" type="qcurve" smooth="yes"/>
      <point x="334" y="767" type="line"/>
      <point x="311" y="802"/>
      <point x="272" y="869"/>
      <point x="257" y="901" type="qcurve" smooth="yes"/>
      <point x="234" y="950"/>
      <point x="210" y="1048"/>
      <point x="210" y="1100" type="qcurve" smooth="yes"/>
      <point x="210" y="1186"/>
      <point x="265" y="1326"/>
      <point x="316" y="1375" type="qcurve" smooth="yes" name="inserted"/>
      <point x="367" y="1424"/>
      <point x="511" y="1477"/>
      <point x="600" y="1477" type="qcurve" smooth="yes"/>
      <point x="675" y="1477"/>
      <point x="798" y="1423"/>
      <point x="842" y="1377" type="qcurve" smooth="yes" name="inserted"/>
      <point x="885" y="1330"/>
      <point x="933" y="1208"/>
      <point x="933" y="1140" type="qcurve" smooth="yes"/>
      <point x="933" y="1089"/>
      <point x="901" y="999"/>
      <point x="873" y="960" type="qcurve" smooth="yes" name="inserted"/>
      <point x="845" y="920"/>
      <point x="770" y="850"/>
      <point x="727" y="819" type="qcurve"/>
      <point x="647" y="754" type="line"/>
      <point x="894" y="437" type="line"/>
      <point x="926" y="494"/>
      <point x="961" y="630"/>
      <point x="961" y="708" type="qcurve"/>
      <point x="1199" y="708" type="line"/>
      <point x="1199" y="571"/>
      <point x="1126" y="334"/>
      <point x="1048" y="240" type="qcurve"/>
      <point x="1236" y="0" type="line"/>
      <point x="918" y="0" type="line"/>
      <point x="853" y="83" type="line"/>
      <point x="823" y="63"/>
      <point x="762" y="30"/>
      <point x="731" y="18" type="qcurve" smooth="yes"/>
      <point x="682" y="-1"/>
      <point x="574" y="-21"/>
      <point x="511" y="-21" type="qcurve" smooth="yes"/>
      <point x="410" y="-21"/>
      <point x="248" y="37"/>
      <point x="192" y="89" type="qcurve" smooth="yes" name="inserted"/>
      <point x="135" y="141"/>
      <point x="75" y="285"/>
    </contour>
    <contour>
      <point x="523" y="202" type="qcurve" smooth="yes"/>
      <point x="554" y="202"/>
      <point x="614" y="212"/>
      <point x="643" y="221" type="qcurve" smooth="yes"/>
      <point x="663" y="228"/>
      <point x="702" y="245"/>
      <point x="721" y="256" type="qcurve"/>
      <point x="458" y="598" type="line"/>
      <point x="452" y="593" type="line" smooth="yes"/>
      <point x="424" y="570"/>
      <point x="382" y="507"/>
      <point x="372" y="481" type="qcurve" smooth="yes" name="inserted"/>
      <point x="361" y="455"/>
      <point x="354" y="408"/>
      <point x="354" y="387" type="qcurve" smooth="yes"/>
      <point x="354" y="347"/>
      <point x="378" y="279"/>
      <point x="400" y="255" type="qcurve" smooth="yes" name="inserted"/>
      <point x="422" y="230"/>
      <point x="485" y="202"/>
    </contour>
    <contour>
      <point x="462" y="1100" type="qcurve" smooth="yes"/>
      <point x="462" y="1074"/>
      <point x="475" y="1022"/>
      <point x="487" y="995" type="qcurve" smooth="yes"/>
      <point x="495" y="975"/>
      <point x="518" y="934"/>
      <point x="531" y="913" type="qcurve"/>
      <point x="624" y="982" type="line"/>
      <point x="655" y="1002"/>
      <point x="687" y="1045"/>
      <point x="694" y="1065" type="qcurve" smooth="yes" name="inserted"/>
      <point x="700" y="1084"/>
      <point x="700" y="1115"/>
      <point x="700" y="1124" type="qcurve" smooth="yes"/>
      <point x="700" y="1148"/>
      <point x="686" y="1194"/>
      <point x="673" y="1212" type="qcurve" smooth="yes" name="inserted"/>
      <point x="660" y="1230"/>
      <point x="623" y="1252"/>
      <point x="600" y="1252" type="qcurve" smooth="yes"/>
      <point x="565" y="1252"/>
      <point x="513" y="1228"/>
      <point x="496" y="1207" type="qcurve" smooth="yes" name="inserted"/>
      <point x="479" y="1186"/>
      <point x="462" y="1131"/>
    </contour>
  </outline>
</glyph>
<glyph name="quotesingle" format="2">
  <advance width="1229"/>
  <unicode hex="0027"/>
  <outline>
    <contour>
      <point x="671" y="1394" type="line"/>
      <point x="643" y="993" type="line"/>
      <point x="457" y="993" type="line"/>
      <point x="457" y="1395" type="line"/>
      <point x="457" y="1536" type="line"/>
      <point x="671" y="1536" type="line"/>
    </contour>
  </outline>
</glyph>
<glyph name="parenleft" format="2">
  <advance width="1229"/>
  <unicode hex="0028"/>
  <outline>
    <contour>
      <point x="345" y="592" type="line" smooth="yes"/>
      <point x="345" y="733"/>
      <point x="388" y="982"/>
      <point x="425" y="1088" type="qcurve" smooth="yes" name="inserted"/>
      <point x="462" y="1193"/>
      <point x="561" y="1367"/>
      <point x="616" y="1434" type="qcurve" smooth="yes" name="inserted"/>
      <point x="671" y="1501"/>
      <point x="788" y="1594"/>
      <point x="843" y="1619" type="qcurve"/>
      <point x="897" y="1467" type="line"/>
      <point x="865" y="1443"/>
      <point x="801" y="1375"/>
      <point x="770" y="1331" type="qcurve" smooth="yes"/>
      <point x="730" y="1274"/>
      <point x="661" y="1118"/>
      <point x="635" y="1026" type="qcurve" smooth="yes"/>
      <point x="612" y="937"/>
      <point x="584" y="721"/>
      <point x="584" y="594" type="qcurve" smooth="yes"/>
      <point x="584" y="568" type="line" smooth="yes"/>
      <point x="584.0" y="443.29411764705884"/>
      <point x="611" y="231"/>
      <point x="627" y="168" type="qcurve" smooth="yes"/>
      <point x="649" y="80"/>
      <point x="708" y="-70"/>
      <point x="742" y="-126" type="qcurve" smooth="yes"/>
      <point x="778" y="-187"/>
      <point x="858" y="-277"/>
      <point x="897" y="-307" type="qcurve"/>
      <point x="843" y="-457" type="line"/>
      <point x="788" y="-432"/>
      <point x="671" y="-338"/>
      <point x="616" y="-271" type="qcurve" smooth="yes" name="inserted"/>
      <point x="561" y="-205"/>
      <point x="462" y="-31"/>
      <point x="425" y="75" type="qcurve" smooth="yes" name="inserted"/>
      <point x="388" y="180"/>
      <point x="345" y="428"/>
      <point x="345" y="570" type="qcurve" smooth="yes"/>
    </contour>
  </outline>
</glyph>
<glyph name="parenright" format="2">
  <advance width="1229"/>
  <unicode hex="0029"/>
  <outline>
    <contour>
      <point x="881" y="570" type="line" smooth="yes"/>
      <point x="881" y="433"/>
      <point x="837" y="188"/>
      <point x="799" y="82" type="qcurve" smooth="yes" name="inserted"/>
      <point x="761" y="-24"/>
      <point x="660" y="-199"/>
      <point x="603" y="-267" type="qcurve" smooth="yes" name="inserted"/>
      <point x="546" y="-336"/>
      <point x="426" y="-432"/>
      <point x="369" y="-457" type="qcurve"/>
      <point x="316" y="-307" type="line"/>
      <point x="351" y="-281"/>
      <point x="421" y="-204"/>
      <point x="454" y="-153" type="qcurve" smooth="yes"/>
      <point x="493" y="-93"/>
      <point x="558" y="59"/>
      <point x="583" y="153" type="qcurve" smooth="yes"/>
      <point x="604" y="239"/>
      <point x="629" y="447"/>
      <point x="629" y="568" type="qcurve" smooth="yes"/>
      <point x="629" y="594" type="line" smooth="yes"/>
      <point x="629" y="712"/>
      <point x="604" y="916"/>
      <point x="583" y="1002" type="qcurve" smooth="yes"/>
      <point x="555.5967153999353" y="1109.329531350253"/>
      <point x="478.69731083192426" y="1278.7330883701104"/>
      <point x="436" y="1341" type="qcurve" smooth="yes"/>
      <point x="407" y="1382"/>
      <point x="346" y="1447"/>
      <point x="316" y="1470" type="qcurve"/>
      <point x="369" y="1619" type="line"/>
      <point x="426" y="1594"/>
      <point x="546" y="1498"/>
      <point x="603" y="1430" type="qcurve" smooth="yes" name="inserted"/>
      <point x="660" y="1361"/>
      <point x="761" y="1186"/>
      <point x="799" y="1080" type="qcurve" smooth="yes" name="inserted"/>
      <point x="837" y="974"/>
      <point x="881" y="729"/>
      <point x="881" y="592" type="qcurve" smooth="yes"/>
    </contour>
  </outline>
</glyph>
<glyph name="asterisk" format="2">
  <advance width="1229"/>
  <unicode hex="002A"/>
  <outline>
    <contour>
      <point x="546" y="890" type="line"/>
      <point x="154" y="986" type="line"/>
      <point x="220" y="1191" type="line"/>
      <point x="595" y="1025" type="line"/>
      <point x="559" y="1456" type="line"/>
      <point x="778" y="1456" type="line"/>
      <point x="739" y="1018" type="line"/>
      <point x="1111" y="1181" type="line"/>
      <point x="1177" y="972" type="line"/>
      <point x="779" y="881" type="line"/>
      <point x="1047" y="558" type="line"/>
      <point x="869" y="429" type="line"/>
      <point x="658" y="801" type="line"/>
      <point x="447" y="440" type="line"/>
      <point x="268" y="563" type="line"/>
    </contour>
  </outline>
</glyph>
<glyph name="slash" format="2">
  <advance width="1229"/>
  <unicode hex="002F"/>
  <unicode hex="2215"/>
  <outline>
    <contour>
      <point x="479" y="-125" type="line"/>
      <point x="220" y="-125" type="line"/>
      <point x="765" y="1456" type="line"/>
      <point x="1024" y="1456" type="line"/>
    </contour>
  </outline>
</glyph>
<glyph name="zero" format="2">
  <advance width="1229"/>
  <unicode hex="0030"/>
  <outline>
    <contour>
      <point x="1089" y="554" type="line" smooth="yes"/>
      <point x="1089" y="413"/>
      <point x="1024" y="198"/>
      <point x="963.0" y="125.5" type="qcurve" smooth="yes" name="inserted"/>
      <point x="902" y="53"/>
      <point x="726" y="-21"/>
      <point x="616" y="-21" type="qcurve" smooth="yes"/>
      <point x="507" y="-21"/>
      <point x="331" y="53"/>
      <point x="269.5" y="125.5" type="qcurve" smooth="yes" name="inserted"/>
      <point x="208" y="198"/>
      <point x="141" y="413"/>
      <point x="141" y="554" type="qcurve" smooth="yes"/>
      <point x="141" y="902" type="line" smooth="yes"/>
      <point x="141" y="1043"/>
      <point x="207" y="1258"/>
      <point x="268.5" y="1330.5" type="qcurve" smooth="yes" name="inserted"/>
      <point x="330" y="1403"/>
      <point x="505" y="1477"/>
      <point x="614" y="1477" type="qcurve" smooth="yes"/>
      <point x="724" y="1477"/>
      <point x="900" y="1403"/>
      <point x="961.5" y="1330.5" type="qcurve" smooth="yes" name="inserted"/>
      <point x="1023" y="1258"/>
      <point x="1089" y="1043"/>
      <point x="1089" y="902" type="qcurve" smooth="yes"/>
    </contour>
    <contour>
      <point x="421" y="674" type="qcurve"/>
      <point x="809" y="963" type="line"/>
      <point x="807" y="1045"/>
      <point x="776" y="1162"/>
      <point x="746" y="1197" type="qcurve" smooth="yes"/>
      <point x="723" y="1225"/>
      <point x="656" y="1252"/>
      <point x="614" y="1252" type="qcurve" smooth="yes"/>
      <point x="567" y="1252"/>
      <point x="496" y="1217"/>
      <point x="472" y="1182" type="qcurve" smooth="yes"/>
      <point x="446" y="1145"/>
      <point x="421" y="1027"/>
      <point x="421" y="946" type="qcurve" smooth="yes"/>
      <point x="421" y="785" type="line" smooth="yes"/>
      <point x="421.0" y="737"/>
      <point x="421" y="705"/>
    </contour>
    <contour>
      <point x="809" y="512" type="qcurve" smooth="yes"/>
      <point x="809" y="681" type="line" smooth="yes"/>
      <point x="809.0" y="714.0"/>
      <point x="809.0" y="745"/>
      <point x="809" y="774" type="qcurve"/>
      <point x="421" y="486" type="line"/>
      <point x="423" y="420"/>
      <point x="446" y="318"/>
      <point x="467" y="284" type="qcurve" smooth="yes"/>
      <point x="491" y="243"/>
      <point x="565" y="203"/>
      <point x="616" y="203" type="qcurve" smooth="yes"/>
      <point x="663" y="203"/>
      <point x="735" y="238"/>
      <point x="759" y="274" type="qcurve" smooth="yes"/>
      <point x="784" y="312"/>
      <point x="809" y="431"/>
    </contour>
  </outline>
</glyph>
<glyph name="two" format="2">
  <advance width="1229"/>
  <unicode hex="0032"/>
  <outline>
    <contour>
      <point x="1093" y="0" type="line"/>
      <point x="100" y="0" type="line"/>
      <point x="100" y="190" type="line"/>
      <point x="571" y="696" type="line" smooth="yes"/>
      <point x="626" y="756"/>
      <point x="702" y="854"/>
      <point x="726" y="895" type="qcurve" smooth="yes" name="inserted"/>
      <point x="749" y="935"/>
      <point x="770" y="1005"/>
      <point x="770" y="1038" type="qcurve" smooth="yes"/>
      <point x="770" y="1087"/>
      <point x="742" y="1163"/>
      <point x="717" y="1190" type="qcurve" smooth="yes" name="inserted"/>
      <point x="691" y="1216"/>
      <point x="620" y="1244"/>
      <point x="577" y="1244" type="qcurve" smooth="yes"/>
      <point x="521" y="1244"/>
      <point x="436" y="1213"/>
      <point x="408" y="1183" type="qcurve" smooth="yes"/>
      <point x="379" y="1152"/>
      <point x="349" y="1060"/>
      <point x="349" y="1001" type="qcurve"/>
      <point x="70" y="1001" type="line"/>
      <point x="70" y="1098"/>
      <point x="144" y="1271"/>
      <point x="212" y="1336" type="qcurve" smooth="yes" name="inserted"/>
      <point x="279" y="1401"/>
      <point x="470" y="1476"/>
      <point x="586" y="1476" type="qcurve" smooth="yes"/>
      <point x="697" y="1476"/>
      <point x="868" y="1414"/>
      <point x="926" y="1358" type="qcurve" smooth="yes" name="inserted"/>
      <point x="983" y="1302"/>
      <point x="1043" y="1145"/>
      <point x="1043" y="1050" type="qcurve" smooth="yes"/>
      <point x="1043" y="978"/>
      <point x="998" y="847"/>
      <point x="957" y="783" type="qcurve" smooth="yes" name="inserted"/>
      <point x="915" y="719"/>
      <point x="799" y="586"/>
      <point x="728" y="513" type="qcurve" smooth="yes"/>
      <point x="454" y="223" type="line"/>
      <point x="1093" y="223" type="line"/>
    </contour>
  </outline>
</glyph>
<glyph name="three" format="2">
  <advance width="1229"/>
  <unicode hex="0033"/>
  <outline>
    <contour>
      <point x="421" y="850" type="line"/>
      <point x="572" y="850" type="line" smooth="yes"/>
      <point x="632" y="850"/>
      <point x="719" y="883"/>
      <point x="746" y="913" type="qcurve" smooth="yes"/>
      <point x="771" y="939"/>
      <point x="796" y="1014"/>
      <point x="796" y="1058" type="qcurve" smooth="yes"/>
      <point x="796" y="1101"/>
      <point x="771" y="1172"/>
      <point x="746" y="1198" type="qcurve" smooth="yes" name="inserted"/>
      <point x="721" y="1223"/>
      <point x="644" y="1251"/>
      <point x="593" y="1251" type="qcurve" smooth="yes"/>
      <point x="551" y="1251"/>
      <point x="478" y="1227"/>
      <point x="451" y="1205" type="qcurve" smooth="yes" name="inserted"/>
      <point x="423" y="1182"/>
      <point x="391" y="1118"/>
      <point x="391" y="1078" type="qcurve"/>
      <point x="113" y="1078" type="line"/>
      <point x="113" y="1167"/>
      <point x="186" y="1313"/>
      <point x="250" y="1366" type="qcurve" smooth="yes" name="inserted"/>
      <point x="314" y="1418"/>
      <point x="487" y="1476"/>
      <point x="587" y="1476" type="qcurve" smooth="yes"/>
      <point x="695" y="1476"/>
      <point x="875" y="1423"/>
      <point x="939" y="1371" type="qcurve" smooth="yes" name="inserted"/>
      <point x="1003" y="1318"/>
      <point x="1074" y="1163"/>
      <point x="1074" y="1061" type="qcurve" smooth="yes"/>
      <point x="1074" y="1014"/>
      <point x="1046" y="923"/>
      <point x="1019" y="882" type="qcurve" smooth="yes" name="inserted"/>
      <point x="992" y="841"/>
      <point x="912" y="772"/>
      <point x="860" y="747" type="qcurve"/>
      <point x="921" y="725"/>
      <point x="1010" y="657"/>
      <point x="1039" y="614" type="qcurve" smooth="yes" name="inserted"/>
      <point x="1068" y="570"/>
      <point x="1096" y="466"/>
      <point x="1096" y="408" type="qcurve" smooth="yes"/>
      <point x="1096" y="306"/>
      <point x="1018" y="146"/>
      <point x="950" y="92" type="qcurve" smooth="yes" name="inserted"/>
      <point x="882" y="37"/>
      <point x="695" y="-20"/>
      <point x="587" y="-20" type="qcurve" smooth="yes"/>
      <point x="494" y="-20"/>
      <point x="317" y="31"/>
      <point x="248" y="83" type="qcurve" smooth="yes" name="inserted"/>
      <point x="179" y="134"/>
      <point x="96" y="290"/>
      <point x="96" y="396" type="qcurve"/>
      <point x="374" y="396" type="line"/>
      <point x="374" y="354"/>
      <point x="406" y="283"/>
      <point x="436" y="258" type="qcurve" smooth="yes" name="inserted"/>
      <point x="465" y="232"/>
      <point x="545" y="203"/>
      <point x="593" y="203" type="qcurve" smooth="yes"/>
      <point x="647" y="203"/>
      <point x="733" y="233"/>
      <point x="762" y="262" type="qcurve" smooth="yes"/>
      <point x="790" y="288"/>
      <point x="819" y="364"/>
      <point x="819" y="411" type="qcurve" smooth="yes"/>
      <point x="819" y="470"/>
      <point x="785" y="554"/>
      <point x="753" y="581" type="qcurve" smooth="yes" name="inserted"/>
      <point x="720" y="608"/>
      <point x="629" y="634"/>
      <point x="572" y="634" type="qcurve" smooth="yes"/>
      <point x="421" y="634" type="line"/>
    </contour>
  </outline>
</glyph>
<glyph name="seven" format="2">
  <advance width="1229"/>
  <unicode hex="0037"/>
  <outline>
    <contour>
      <point x="1092" y="1301" type="line"/>
      <point x="525" y="0" type="line"/>
      <point x="232" y="0" type="line"/>
      <point x="800" y="1229" type="line"/>
      <point x="69" y="1229" type="line"/>
      <point x="69" y="1456" type="line"/>
      <point x="1092" y="1456" type="line"/>
    </contour>
  </outline>
</glyph>
<glyph name="eight" format="2">
  <advance width="1229"/>
  <unicode hex="0038"/>
  <outline>
    <contour>
      <point x="1055" y="1069" type="qcurve" smooth="yes"/>
      <point x="1055" y="1009"/>
      <point x="1020" y="904"/>
      <point x="988" y="860" type="qcurve" smooth="yes"/>
      <point x="963" y="827"/>
      <point x="896" y="770"/>
      <point x="855" y="749" type="qcurve"/>
      <point x="892" y="731"/>
      <point x="958" y="686"/>
      <point x="984" y="658" type="qcurve" smooth="yes"/>
      <point x="1032" y="608"/>
      <point x="1086" y="476"/>
      <point x="1086" y="398" type="qcurve" smooth="yes"/>
      <point x="1086" y="295"/>
      <point x="1011" y="139"/>
      <point x="946" y="87" type="qcurve" smooth="yes" name="inserted"/>
      <point x="880" y="34"/>
      <point x="702" y="-20"/>
      <point x="599" y="-20" type="qcurve" smooth="yes"/>
      <point x="495" y="-20"/>
      <point x="316" y="34"/>
      <point x="250" y="87" type="qcurve" smooth="yes" name="inserted"/>
      <point x="184" y="139"/>
      <point x="109" y="295"/>
      <point x="109" y="398" type="qcurve" smooth="yes"/>
      <point x="109" y="458"/>
      <point x="142" y="565"/>
      <point x="172" y="610" type="qcurve" smooth="yes" name="inserted"/>
      <point x="202" y="654"/>
      <point x="287" y="725"/>
      <point x="340" y="750" type="qcurve"/>
      <point x="295" y="773"/>
      <point x="222" y="837"/>
      <point x="197" y="876" type="qcurve" smooth="yes"/>
      <point x="170" y="917"/>
      <point x="141" y="1015"/>
      <point x="141" y="1069" type="qcurve" smooth="yes"/>
      <point x="141" y="1168"/>
      <point x="209" y="1319"/>
      <point x="270" y="1371" type="qcurve" smooth="yes" name="inserted"/>
      <point x="330" y="1423"/>
      <point x="497" y="1476"/>
      <point x="596" y="1476" type="qcurve" smooth="yes"/>
      <point x="695" y="1476"/>
      <point x="863" y="1423"/>
      <point x="925" y="1371" type="qcurve" smooth="yes" name="inserted"/>
      <point x="986" y="1319"/>
      <point x="1055" y="1168"/>
    </contour>
    <contour>
      <point x="807" y="417" type="qcurve" smooth="yes"/>
      <point x="807" y="467"/>
      <point x="777" y="547"/>
      <point x="750" y="576" type="qcurve" smooth="yes" name="inserted"/>
      <point x="722" y="604"/>
      <point x="645" y="634"/>
      <point x="597" y="634" type="qcurve" smooth="yes"/>
      <point x="549" y="634"/>
      <point x="472" y="604"/>
      <point x="445" y="576" type="qcurve" smooth="yes" name="inserted"/>
      <point x="418" y="547"/>
      <point x="388" y="467"/>
      <point x="388" y="417" type="qcurve" smooth="yes"/>
      <point x="388" y="365"/>
      <point x="420" y="283"/>
      <point x="449" y="256" type="qcurve" smooth="yes"/>
      <point x="476" y="230"/>
      <point x="552" y="203"/>
      <point x="599" y="203" type="qcurve" smooth="yes"/>
      <point x="645" y="203"/>
      <point x="721" y="232"/>
      <point x="749" y="260" type="qcurve" smooth="yes" name="inserted"/>
      <point x="776" y="288"/>
      <point x="807" y="367"/>
    </contour>
    <contour>
      <point x="778" y="1056" type="qcurve" smooth="yes"/>
      <point x="778" y="1100"/>
      <point x="752" y="1172"/>
      <point x="729" y="1198" type="qcurve" smooth="yes" name="inserted"/>
      <point x="705" y="1223"/>
      <point x="638" y="1251"/>
      <point x="596" y="1251" type="qcurve" smooth="yes"/>
      <point x="553" y="1251"/>
      <point x="487" y="1224"/>
      <point x="465" y="1199" type="qcurve" smooth="yes"/>
      <point x="442" y="1174"/>
      <point x="419" y="1101"/>
      <point x="419" y="1056" type="qcurve" smooth="yes"/>
      <point x="419" y="1012"/>
      <point x="443" y="939"/>
      <point x="467" y="913" type="qcurve" smooth="yes" name="inserted"/>
      <point x="490" y="887"/>
      <point x="557" y="858"/>
      <point x="599" y="858" type="qcurve" smooth="yes"/>
      <point x="641" y="858"/>
      <point x="707" y="887"/>
      <point x="730" y="913" type="qcurve" smooth="yes" name="inserted"/>
      <point x="753" y="939"/>
      <point x="778" y="1012"/>
    </contour>
  </outline>
</glyph>
<glyph name="less" format="2">
  <advance width="1229"/>
  <unicode hex="003C"/>
  <outline>
    <contour>
      <point x="1041" y="144" type="line"/>
      <point x="156" y="511" type="line"/>
      <point x="156" y="736" type="line"/>
      <point x="1041" y="1103" type="line"/>
      <point x="1041" y="833" type="line"/>
      <point x="493" y="647" type="line"/>
      <point x="425" y="622" type="line"/>
      <point x="493" y="598" type="line"/>
      <point x="1041" y="415" type="line"/>
    </contour>
  </outline>
</glyph>
<glyph name="greater" format="2">
  <advance width="1229"/>
  <unicode hex="003E"/>
  <outline>
    <contour>
      <point x="161" y="143" type="line"/>
      <point x="161" y="413" type="line"/>
      <point x="734" y="605" type="line"/>
      <point x="795" y="625" type="line"/>
      <point x="735" y="645" type="line"/>
      <point x="161" y="834" type="line"/>
      <point x="161" y="1103" type="line"/>
      <point x="1061" y="737" type="line"/>
      <point x="1061" y="510" type="line"/>
    </contour>
  </outline>
</glyph>
<glyph name="question" format="2">
  <advance width="1229"/>
  <unicode hex="003F"/>
  <outline>
    <contour>
      <point x="499" y="442" type="line"/>
      <point x="499" y="511"/>
      <point x="506" y="607"/>
      <point x="519" y="646" type="qcurve" smooth="yes" name="inserted"/>
      <point x="532" y="684"/>
      <point x="584" y="749"/>
      <point x="631" y="786" type="qcurve"/>
      <point x="665" y="817"/>
      <point x="733" y="886"/>
      <point x="761" y="923" type="qcurve" smooth="yes" name="inserted"/>
      <point x="788" y="959"/>
      <point x="822" y="1035"/>
      <point x="822" y="1073" type="qcurve" smooth="yes"/>
      <point x="822" y="1119"/>
      <point x="796" y="1186"/>
      <point x="772" y="1208" type="qcurve" smooth="yes"/>
      <point x="747" y="1228"/>
      <point x="676" y="1248"/>
      <point x="630" y="1248" type="qcurve" smooth="yes"/>
      <point x="594" y="1248"/>
      <point x="526" y="1229"/>
      <point x="500" y="1208" type="qcurve" smooth="yes" name="inserted"/>
      <point x="473" y="1187"/>
      <point x="440" y="1121"/>
      <point x="439" y="1075" type="qcurve"/>
      <point x="160" y="1075" type="line"/>
      <point x="161" y="1177"/>
      <point x="235" y="1328"/>
      <point x="298" y="1378" type="qcurve" smooth="yes" name="inserted"/>
      <point x="361" y="1428"/>
      <point x="531" y="1477"/>
      <point x="630" y="1477" type="qcurve" smooth="yes"/>
      <point x="741" y="1477"/>
      <point x="917" y="1427"/>
      <point x="978" y="1378" type="qcurve" smooth="yes" name="inserted"/>
      <point x="1038" y="1328"/>
      <point x="1102" y="1182"/>
      <point x="1102" y="1086" type="qcurve" smooth="yes"/>
      <point x="1102" y="1015"/>
      <point x="1054" y="898"/>
      <point x="1016" y="848" type="qcurve" smooth="yes" name="inserted"/>
      <point x="978" y="797"/>
      <point x="881" y="706"/>
      <point x="832" y="663" type="qcurve"/>
      <point x="802" y="633"/>
      <point x="768" y="587"/>
      <point x="761" y="563" type="qcurve" smooth="yes" name="inserted"/>
      <point x="753" y="539"/>
      <point x="749" y="482"/>
      <point x="749" y="442" type="qcurve"/>
    </contour>
    <contour>
      <point x="458" y="139" type="qcurve" smooth="yes"/>
      <point x="458.0" y="205.0"/>
      <point x="544.0000000000001" y="294.0"/>
      <point x="620" y="294" type="qcurve" smooth="yes"/>
      <point x="694.0" y="294.0"/>
      <point x="783.0" y="205.0"/>
      <point x="783" y="139" type="qcurve" smooth="yes"/>
      <point x="783.0" y="75.00000000000001"/>
      <point x="694.0" y="-12.0"/>
      <point x="620" y="-12" type="qcurve" smooth="yes"/>
      <point x="544.0000000000001" y="-12.0"/>
      <point x="458.0" y="75.00000000000001"/>
    </contour>
  </outline>
</glyph>
<glyph name="at" format="2">
  <advance width="1229"/>
  <unicode hex="0040"/>
  <outline>
    <contour>
      <point x="1170" y="823" type="qcurve" smooth="yes"/>
      <point x="1167" y="729"/>
      <point x="1131" y="544"/>
      <point x="1096" y="471" type="qcurve" smooth="yes" name="inserted"/>
      <point x="1060" y="397"/>
      <point x="950" y="306"/>
      <point x="873" y="306" type="qcurve" smooth="yes"/>
      <point x="844" y="306"/>
      <point x="792" y="322"/>
      <point x="771" y="338" type="qcurve" smooth="yes"/>
      <point x="754" y="350"/>
      <point x="726" y="384"/>
      <point x="715" y="405" type="qcurve"/>
      <point x="702" y="387"/>
      <point x="672" y="356"/>
      <point x="656" y="344" type="qcurve" smooth="yes"/>
      <point x="632" y="327"/>
      <point x="578" y="308"/>
      <point x="548" y="308" type="qcurve" smooth="yes"/>
      <point x="488" y="308"/>
      <point x="398" y="362"/>
      <point x="370" y="413" type="qcurve" smooth="yes" name="inserted"/>
      <point x="342" y="463"/>
      <point x="321" y="605"/>
      <point x="329" y="692" type="qcurve" smooth="yes"/>
      <point x="340" y="794"/>
      <point x="397" y="958"/>
      <point x="442" y="1017" type="qcurve" smooth="yes" name="inserted"/>
      <point x="487" y="1075"/>
      <point x="609" y="1138"/>
      <point x="685" y="1138" type="qcurve" smooth="yes"/>
      <point x="762" y="1138"/>
      <point x="862" y="1093"/>
      <point x="893" y="1062" type="qcurve"/>
      <point x="850" y="535" type="line" smooth="yes"/>
      <point x="848" y="506"/>
      <point x="855" y="474"/>
      <point x="863" y="466" type="qcurve" smooth="yes" name="inserted"/>
      <point x="870" y="458"/>
      <point x="890" y="454"/>
      <point x="900" y="454" type="qcurve" smooth="yes"/>
      <point x="926" y="454"/>
      <point x="969" y="508"/>
      <point x="985" y="556" type="qcurve" smooth="yes" name="inserted"/>
      <point x="1001" y="604"/>
      <point x="1018" y="737"/>
      <point x="1018" y="816" type="qcurve" smooth="yes"/>
      <point x="1022" y="938"/>
      <point x="979" y="1117"/>
      <point x="933" y="1175" type="qcurve" smooth="yes" name="inserted"/>
      <point x="887" y="1233"/>
      <point x="749" y="1289"/>
      <point x="659" y="1289" type="qcurve" smooth="yes"/>
      <point x="557" y="1289"/>
      <point x="394" y="1198"/>
      <point x="337" y="1117" type="qcurve" smooth="yes" name="inserted"/>
      <point x="279" y="1036"/>
      <point x="213" y="813"/>
      <point x="209" y="680" type="qcurve" smooth="yes"/>
      <point x="204" y="546"/>
      <point x="251" y="346"/>
      <point x="301" y="280" type="qcurve" smooth="yes" name="inserted"/>
      <point x="350" y="213"/>
      <point x="501" y="147"/>
      <point x="599" y="147" type="qcurve" smooth="yes"/>
      <point x="630" y="147"/>
      <point x="696" y="155"/>
      <point x="728" y="163" type="qcurve" smooth="yes" name="inserted"/>
      <point x="759" y="170"/>
      <point x="816" y="190"/>
      <point x="839" y="202" type="qcurve"/>
      <point x="871" y="67" type="line"/>
      <point x="845" y="48"/>
      <point x="778" y="20"/>
      <point x="741" y="11" type="qcurve" smooth="yes" name="inserted"/>
      <point x="704" y="1"/>
      <point x="630" y="-8"/>
      <point x="596" y="-8" type="qcurve" smooth="yes"/>
      <point x="450" y="-8"/>
      <point x="238" y="88"/>
      <point x="169" y="177" type="qcurve" smooth="yes" name="inserted"/>
      <point x="100" y="266"/>
      <point x="37" y="521"/>
      <point x="42" y="680" type="qcurve" smooth="yes"/>
      <point x="47" y="838"/>
      <point x="142" y="1116"/>
      <point x="225" y="1220" type="qcurve" smooth="yes" name="inserted"/>
      <point x="307" y="1323"/>
      <point x="533" y="1442"/>
      <point x="669" y="1442" type="qcurve" smooth="yes"/>
      <point x="787" y="1442"/>
      <point x="977" y="1353"/>
      <point x="1043" y="1272" type="qcurve" smooth="yes" name="inserted"/>
      <point x="1108" y="1190"/>
      <point x="1174" y="962"/>
    </contour>
    <contour>
      <point x="502" y="692" type="qcurve"/>
      <point x="499" y="636"/>
      <point x="508" y="550"/>
      <point x="519" y="522" type="qcurve" smooth="yes"/>
      <point x="531" y="491"/>
      <point x="569" y="461"/>
      <point x="594" y="461" type="qcurve" smooth="yes"/>
      <point x="609" y="461"/>
      <point x="640" y="470"/>
      <point x="655" y="481" type="qcurve" smooth="yes"/>
      <point x="664" y="488"/>
      <point x="682" y="508"/>
      <point x="691" y="522" type="qcurve"/>
      <point x="692" y="535" type="line"/>
      <point x="730" y="982" type="line"/>
      <point x="725" y="983"/>
      <point x="711" y="985"/>
      <point x="699" y="985" type="qcurve" smooth="yes"/>
      <point x="655" y="985"/>
      <point x="588" y="947"/>
      <point x="564" y="909" type="qcurve" smooth="yes"/>
      <point x="540" y="872"/>
      <point x="509" y="763"/>
    </contour>
  </outline>
</glyph>
<glyph name="B" format="2">
  <advance width="1229"/>
  <unicode hex="0042"/>
  <outline>
    <contour>
      <point x="129" y="0" type="line"/>
      <point x="129" y="1456" type="line"/>
      <point x="618" y="1456" type="line" smooth="yes"/>
      <point x="737" y="1456"/>
      <point x="932" y="1408"/>
      <point x="1001" y="1359" type="qcurve" smooth="yes" name="inserted"/>
      <point x="1070" y="1310"/>
      <point x="1145" y="1160"/>
      <point x="1145" y="1058" type="qcurve"/>
      <point x="1144" y="992"/>
      <point x="1099" y="875"/>
      <point x="1055" y="831" type="qcurve" smooth="yes"/>
      <point x="1031" y="807"/>
      <point x="970" y="767"/>
      <point x="933" y="753" type="qcurve"/>
      <point x="933" y="752" type="line"/>
      <point x="1005" y="732"/>
      <point x="1090" y="670"/>
      <point x="1119" y="629" type="qcurve" smooth="yes" name="inserted"/>
      <point x="1149" y="585"/>
      <point x="1178" y="482"/>
      <point x="1178" y="427" type="qcurve" smooth="yes"/>
      <point x="1178" y="322"/>
      <point x="1106" y="162"/>
      <point x="1039" y="108" type="qcurve" smooth="yes" name="inserted"/>
      <point x="972" y="54"/>
      <point x="780" y="0"/>
      <point x="660" y="0" type="qcurve" smooth="yes"/>
    </contour>
    <contour>
      <point x="411" y="642" type="line"/>
      <point x="411" y="227" type="line"/>
      <point x="661" y="227" type="line" smooth="yes"/>
      <point x="716" y="227"/>
      <point x="803" y="255"/>
      <point x="832" y="279" type="qcurve" smooth="yes"/>
      <point x="864" y="306"/>
      <point x="897" y="382"/>
      <point x="897" y="429" type="qcurve" smooth="yes"/>
      <point x="897" y="478"/>
      <point x="872" y="556"/>
      <point x="845" y="583" type="qcurve" smooth="yes"/>
      <point x="818" y="611"/>
      <point x="732" y="641"/>
      <point x="673" y="642" type="qcurve" smooth="yes"/>
    </contour>
    <contour>
      <point x="411" y="845" type="line"/>
      <point x="620" y="845" type="line" smooth="yes"/>
      <point x="684" y="846"/>
      <point x="782" y="875"/>
      <point x="812" y="904" type="qcurve" smooth="yes"/>
      <point x="837" y="927"/>
      <point x="864" y="993"/>
      <point x="864" y="1035" type="qcurve" smooth="yes"/>
      <point x="864" y="1079"/>
      <point x="841" y="1145"/>
      <point x="818" y="1167" type="qcurve" smooth="yes"/>
      <point x="788" y="1198"/>
      <point x="687" y="1226"/>
      <point x="619" y="1227" type="qcurve" smooth="yes"/>
      <point x="411" y="1227" type="line"/>
    </contour>
  </outline>
</glyph>
<glyph name="G" format="2">
  <advance width="1229"/>
  <unicode hex="0047"/>
  <outline>
    <contour>
      <point x="1132" y="170" type="line"/>
      <point x="1105" y="137"/>
      <point x="1011" y="69"/>
      <point x="947" y="42" type="qcurve" smooth="yes" name="inserted"/>
      <point x="882" y="14"/>
      <point x="722" y="-20"/>
      <point x="630" y="-20" type="qcurve" smooth="yes"/>
      <point x="550" y="-20"/>
      <point x="409" y="17"/>
      <point x="350" y="52" type="qcurve" smooth="yes"/>
      <point x="292" y="88"/>
      <point x="197" y="192"/>
      <point x="164" y="259" type="qcurve" smooth="yes"/>
      <point x="126" y="333"/>
      <point x="87" y="519"/>
      <point x="87" y="628" type="qcurve" smooth="yes"/>
      <point x="87" y="826" type="line" smooth="yes"/>
      <point x="87" y="930"/>
      <point x="125" y="1109"/>
      <point x="160" y="1182" type="qcurve" smooth="yes"/>
      <point x="193" y="1247"/>
      <point x="280" y="1351"/>
      <point x="332" y="1389" type="qcurve" smooth="yes"/>
      <point x="393" y="1432"/>
      <point x="537" y="1476"/>
      <point x="617" y="1476" type="qcurve" smooth="yes"/>
      <point x="740" y="1476"/>
      <point x="923" y="1414"/>
      <point x="986" y="1356" type="qcurve" smooth="yes" name="inserted"/>
      <point x="1049" y="1297"/>
      <point x="1120" y="1129"/>
      <point x="1131" y="1024" type="qcurve"/>
      <point x="857" y="1024" type="line"/>
      <point x="850" y="1077"/>
      <point x="821" y="1159"/>
      <point x="796" y="1187" type="qcurve" smooth="yes"/>
      <point x="768" y="1218"/>
      <point x="683" y="1249"/>
      <point x="624" y="1249" type="qcurve" smooth="yes"/>
      <point x="592" y="1249"/>
      <point x="532" y="1229"/>
      <point x="506" y="1210" type="qcurve" smooth="yes"/>
      <point x="472" y="1184"/>
      <point x="417" y="1100"/>
      <point x="399" y="1043" type="qcurve" smooth="yes"/>
      <point x="385" y="999"/>
      <point x="370" y="891"/>
      <point x="370" y="828" type="qcurve" smooth="yes"/>
      <point x="370" y="628" type="line" smooth="yes"/>
      <point x="370" y="549"/>
      <point x="391" y="419"/>
      <point x="410" y="369" type="qcurve" smooth="yes"/>
      <point x="422" y="340"/>
      <point x="453" y="291"/>
      <point x="472" y="272" type="qcurve" smooth="yes"/>
      <point x="504" y="240"/>
      <point x="589" y="207"/>
      <point x="643" y="206" type="qcurve" smooth="yes"/>
      <point x="676" y="206"/>
      <point x="740" y="216"/>
      <point x="768" y="225" type="qcurve" smooth="yes" name="inserted"/>
      <point x="796" y="234"/>
      <point x="839" y="257"/>
      <point x="850" y="270" type="qcurve"/>
      <point x="851" y="534" type="line"/>
      <point x="610" y="534" type="line"/>
      <point x="610" y="744" type="line"/>
      <point x="1131" y="744" type="line"/>
    </contour>
  </outline>
</glyph>
<glyph name="H" format="2">
  <advance width="1229"/>
  <unicode hex="0048"/>
  <outline>
    <contour>
      <point x="1092" y="0" type="line"/>
      <point x="814" y="0" type="line"/>
      <point x="814" y="631" type="line"/>
      <point x="402" y="631" type="line"/>
      <point x="402" y="0" type="line"/>
      <point x="123" y="0" type="line"/>
      <point x="123" y="1456" type="line"/>
      <point x="402" y="1456" type="line"/>
      <point x="402" y="859" type="line"/>
      <point x="814" y="859" type="line"/>
      <point x="814" y="1456" type="line"/>
      <point x="1092" y="1456" type="line"/>
    </contour>
  </outline>
</glyph>
<glyph name="J" format="2">
  <advance width="1229"/>
  <unicode hex="004A"/>
  <outline>
    <contour>
      <point x="818" y="1456" type="line"/>
      <point x="1099" y="1456" type="line"/>
      <point x="1100" y="447" type="line"/>
      <point x="1099" y="343"/>
      <point x="1022" y="172"/>
      <point x="955" y="110" type="qcurve" smooth="yes" name="inserted"/>
      <point x="888" y="48"/>
      <point x="707" y="-20"/>
      <point x="603" y="-20" type="qcurve" smooth="yes"/>
      <point x="493" y="-20"/>
      <point x="313" y="36"/>
      <point x="249" y="92" type="qcurve" smooth="yes" name="inserted"/>
      <point x="184" y="147"/>
      <point x="112" y="315"/>
      <point x="111" y="428" type="qcurve"/>
      <point x="393" y="428" type="line"/>
      <point x="393" y="376"/>
      <point x="413" y="298"/>
      <point x="433" y="271" type="qcurve" smooth="yes"/>
      <point x="459" y="238"/>
      <point x="543" y="206"/>
      <point x="603" y="206" type="qcurve" smooth="yes"/>
      <point x="651" y="206"/>
      <point x="731" y="243"/>
      <point x="759" y="275" type="qcurve" smooth="yes" name="inserted"/>
      <point x="787" y="307"/>
      <point x="818" y="396"/>
      <point x="818" y="447" type="qcurve" smooth="yes"/>
    </contour>
  </outline>
</glyph>
<glyph name="N" format="2">
  <advance width="1229"/>
  <unicode hex="004E"/>
  <outline>
    <contour>
      <point x="1091" y="0" type="line"/>
      <point x="811" y="0" type="line"/>
      <point x="406" y="939" type="line"/>
      <point x="406" y="0" type="line"/>
      <point x="123" y="0" type="line"/>
      <point x="123" y="1456" type="line"/>
      <point x="406" y="1456" type="line"/>
      <point x="808" y="521" type="line"/>
      <point x="809" y="1456" type="line"/>
      <point x="1091" y="1456" type="line"/>
    </contour>
  </outline>
</glyph>
<glyph name="U" format="2">
  <advance width="1229"/>
  <unicode hex="0055"/>
  <outline>
    <contour>
      <point x="1101" y="1456" type="line"/>
      <point x="1102" y="491" type="line" smooth="yes"/>
      <point x="1102" y="369"/>
      <point x="1035" y="179"/>
      <point x="972" y="114" type="qcurve" smooth="yes" name="inserted"/>
      <point x="908" y="48"/>
      <point x="725" y="-20"/>
      <point x="608" y="-20" type="qcurve" smooth="yes"/>
      <point x="498" y="-20"/>
      <point x="321" y="48"/>
      <point x="258" y="113" type="qcurve" smooth="yes" name="inserted"/>
      <point x="195" y="178"/>
      <point x="126" y="369"/>
      <point x="126" y="491" type="qcurve" smooth="yes"/>
      <point x="127" y="1456" type="line"/>
      <point x="408" y="1456" type="line"/>
      <point x="409" y="491" type="line" smooth="yes"/>
      <point x="410" y="418"/>
      <point x="437" y="308"/>
      <point x="464" y="272" type="qcurve" smooth="yes"/>
      <point x="489" y="239"/>
      <point x="561" y="206"/>
      <point x="608" y="206" type="qcurve" smooth="yes"/>
      <point x="659" y="206"/>
      <point x="738" y="241"/>
      <point x="764" y="276" type="qcurve" smooth="yes"/>
      <point x="792" y="312"/>
      <point x="820" y="420"/>
      <point x="821" y="491" type="qcurve" smooth="yes"/>
      <point x="822" y="1456" type="line"/>
    </contour>
  </outline>
</glyph>
<glyph name="X" format="2">
  <advance width="1229"/>
  <unicode hex="0058"/>
  <outline>
    <contour>
      <point x="624" y="934" type="line"/>
      <point x="883" y="1456" type="line"/>
      <point x="1213" y="1456" type="line"/>
      <point x="803" y="734" type="line"/>
      <point x="1223" y="0" type="line"/>
      <point x="895" y="0" type="line"/>
      <point x="628" y="530" type="line"/>
      <point x="362" y="0" type="line"/>
      <point x="30" y="0" type="line"/>
      <point x="450" y="734" type="line"/>
      <point x="41" y="1456" type="line"/>
      <point x="369" y="1456" type="line"/>
    </contour>
  </outline>
</glyph>
<glyph name="Z" format="2">
  <advance width="1229"/>
  <unicode hex="005A"/>
  <outline>
    <contour>
      <point x="431" y="227" type="line"/>
      <point x="1153" y="227" type="line"/>
      <point x="1153" y="0" type="line"/>
      <point x="89" y="0" type="line"/>
      <point x="89" y="172" type="line"/>
      <point x="795" y="1227" type="line"/>
      <point x="91" y="1227" type="line"/>
      <point x="91" y="1456" type="line"/>
      <point x="1135" y="1456" type="line"/>
      <point x="1136" y="1289" type="line"/>
    </contour>
  </outline>
</glyph>
<glyph name="backslash" format="2">
  <advance width="1229"/>
  <unicode hex="005C"/>
  <outline>
    <contour>
      <point x="240" y="1456" type="line"/>
      <point x="500" y="1456" type="line"/>
      <point x="1045" y="-125" type="line"/>
      <point x="785" y="-125" type="line"/>
    </contour>
  </outline>
</glyph>
<glyph name="bracketright" format="2">
  <advance width="1229"/>
  <unicode hex="005D"/>
  <outline>
    <contour>
      <point x="400" y="1690" type="line"/>
      <point x="848" y="1690" type="line"/>
      <point x="848" y="-335" type="line"/>
      <point x="400" y="-335" type="line"/>
      <point x="400" y="-120" type="line"/>
      <point x="571" y="-120" type="line"/>
      <point x="571" y="1475" type="line"/>
      <point x="400" y="1475" type="line"/>
    </contour>
  </outline>
</glyph>
<glyph name="grave" format="2">
  <advance width="1229"/>
  <unicode hex="0060"/>
  <outline>
    <contour>
      <point x="894" y="1199" type="line"/>
      <point x="675" y="1199" type="line"/>
      <point x="411" y="1478" type="line"/>
      <point x="717" y="1478" type="line"/>
    </contour>
  </outline>
</glyph>
<glyph name="b" format="2">
  <advance width="1229"/>
  <unicode hex="0062"/>
  <outline>
    <contour>
      <point x="1116" y="530" type="line" smooth="yes"/>
      <point x="1116" y="452"/>
      <point x="1094" y="313"/>
      <point x="1073" y="254" type="qcurve" smooth="yes"/>
      <point x="1050" y="189"/>
      <point x="975" y="83"/>
      <point x="924" y="48" type="qcurve" smooth="yes"/>
      <point x="878" y="15"/>
      <point x="763" y="-20"/>
      <point x="694" y="-20" type="qcurve" smooth="yes"/>
      <point x="631" y="-20"/>
      <point x="528" y="11"/>
      <point x="487" y="41" type="qcurve" smooth="yes"/>
      <point x="465" y="56"/>
      <point x="427" y="93"/>
      <point x="410" y="115" type="qcurve"/>
      <point x="397" y="0" type="line"/>
      <point x="147" y="0" type="line"/>
      <point x="147" y="1536" type="line"/>
      <point x="425" y="1536" type="line"/>
      <point x="425" y="984" type="line"/>
      <point x="445" y="1007"/>
      <point x="491" y="1046"/>
      <point x="517" y="1060" type="qcurve" smooth="yes"/>
      <point x="554" y="1081"/>
      <point x="641" y="1102"/>
      <point x="692" y="1102" type="qcurve" smooth="yes"/>
      <point x="762" y="1102"/>
      <point x="879" y="1066"/>
      <point x="925" y="1032" type="qcurve" smooth="yes"/>
      <point x="961.7777467254755" y="1005.9490960694549"/>
      <point x="1021.9738765272907" y="933.1739815113298"/>
      <point x="1045" y="890" type="qcurve" smooth="yes"/>
      <point x="1081" y="821"/>
      <point x="1116" y="649"/>
      <point x="1116" y="551" type="qcurve" smooth="yes"/>
    </contour>
    <contour>
      <point x="838" y="551" type="line" smooth="yes"/>
      <point x="838" y="594"/>
      <point x="830" y="674"/>
      <point x="821" y="709" type="qcurve" smooth="yes"/>
      <point x="810.2544043445259" y="749.8332634908013"/>
      <point x="775" y="815"/>
      <point x="740" y="842" type="qcurve" smooth="yes"/>
      <point x="717" y="859"/>
      <point x="659" y="876"/>
      <point x="622" y="876" type="qcurve" smooth="yes"/>
      <point x="572" y="876"/>
      <point x="496" y="848"/>
      <point x="469" y="821" type="qcurve" smooth="yes"/>
      <point x="456" y="808"/>
      <point x="434" y="775"/>
      <point x="425" y="756" type="qcurve"/>
      <point x="425" y="325" type="line"/>
      <point x="437" y="300"/>
      <point x="468" y="259"/>
      <point x="489" y="244" type="qcurve" smooth="yes"/>
      <point x="514" y="225"/>
      <point x="581" y="205"/>
      <point x="624" y="205" type="qcurve" smooth="yes"/>
      <point x="661" y="205"/>
      <point x="721" y="223"/>
      <point x="743" y="239" type="qcurve" smooth="yes"/>
      <point x="774" y="261"/>
      <point x="813" y="332"/>
      <point x="823" y="377" type="qcurve" smooth="yes"/>
      <point x="831" y="410"/>
      <point x="838" y="488"/>
      <point x="838" y="530" type="qcurve" smooth="yes"/>
    </contour>
  </outline>
</glyph>
<glyph name="c" format="2">
  <advance width="1229"/>
  <unicode hex="0063"/>
  <outline>
    <contour>
      <point x="620" y="202" type="qcurve" smooth="yes"/>
      <point x="661" y="202"/>
      <point x="735" y="226"/>
      <point x="763.0" y="248.0" type="qcurve" smooth="yes" name="inserted"/>
      <point x="791" y="270"/>
      <point x="822" y="332"/>
      <point x="820" y="370" type="qcurve"/>
      <point x="1082" y="370" type="line"/>
      <point x="1084" y="286"/>
      <point x="1011" y="142"/>
      <point x="948.0" y="90.0" type="qcurve" smooth="yes" name="inserted"/>
      <point x="885" y="38"/>
      <point x="718" y="-21"/>
      <point x="625" y="-21" type="qcurve" smooth="yes"/>
      <point x="499" y="-21"/>
      <point x="309" y="64"/>
      <point x="245.5" y="138.0" type="qcurve" smooth="yes" name="inserted"/>
      <point x="182" y="212"/>
      <point x="117" y="411"/>
      <point x="117" y="525" type="qcurve" smooth="yes"/>
      <point x="117" y="555" type="line" smooth="yes"/>
      <point x="117" y="669"/>
      <point x="181" y="868"/>
      <point x="245.0" y="942.0" type="qcurve" smooth="yes" name="inserted"/>
      <point x="309" y="1016"/>
      <point x="498" y="1102"/>
      <point x="623" y="1102" type="qcurve" smooth="yes"/>
      <point x="723" y="1102"/>
      <point x="893" y="1042"/>
      <point x="954.5" y="987.5" type="qcurve" smooth="yes" name="inserted"/>
      <point x="1016" y="933"/>
      <point x="1084" y="778"/>
      <point x="1082" y="682" type="qcurve"/>
      <point x="820" y="682" type="line"/>
      <point x="822" y="722"/>
      <point x="794" y="794"/>
      <point x="767.0" y="820.0" type="qcurve" smooth="yes" name="inserted"/>
      <point x="740" y="846"/>
      <point x="664" y="877"/>
      <point x="619" y="877" type="qcurve" smooth="yes"/>
      <point x="553" y="877"/>
      <point x="467" y="823"/>
      <point x="441.5" y="778.0" type="qcurve" smooth="yes" name="inserted"/>
      <point x="416" y="733"/>
      <point x="395" y="617"/>
      <point x="395" y="555" type="qcurve" smooth="yes"/>
      <point x="395" y="525" type="line" smooth="yes"/>
      <point x="395" y="462"/>
      <point x="415" y="345"/>
      <point x="440.5" y="300.5" type="qcurve" smooth="yes" name="inserted"/>
      <point x="466" y="256"/>
      <point x="553" y="202"/>
    </contour>
  </outline>
</glyph>
<glyph name="g" format="2">
  <advance width="1229"/>
  <unicode hex="0067"/>
  <outline>
    <contour>
      <point x="113" y="549" type="line" smooth="yes"/>
      <point x="113" y="672"/>
      <point x="174" y="876"/>
      <point x="231" y="949" type="qcurve" smooth="yes" name="inserted"/>
      <point x="288" y="1022"/>
      <point x="450" y="1102"/>
      <point x="552" y="1102" type="qcurve" smooth="yes"/>
      <point x="607" y="1102"/>
      <point x="698" y="1081"/>
      <point x="735" y="1060" type="qcurve" smooth="yes"/>
      <point x="763" y="1045"/>
      <point x="811" y="1004"/>
      <point x="831" y="979" type="qcurve"/>
      <point x="842" y="1082" type="line"/>
      <point x="1095" y="1082" type="line"/>
      <point x="1095" y="35" type="line" smooth="yes"/>
      <point x="1095" y="-75"/>
      <point x="1020" y="-247"/>
      <point x="953" y="-306" type="qcurve" smooth="yes" name="inserted"/>
      <point x="885" y="-365"/>
      <point x="696" y="-426"/>
      <point x="582" y="-426" type="qcurve" smooth="yes"/>
      <point x="533" y="-426"/>
      <point x="421" y="-406"/>
      <point x="366" y="-385" type="qcurve" smooth="yes" name="inserted"/>
      <point x="311" y="-364"/>
      <point x="213" y="-299"/>
      <point x="178" y="-254" type="qcurve"/>
      <point x="303" y="-85" type="line"/>
      <point x="330" y="-116"/>
      <point x="392" y="-163"/>
      <point x="426" y="-178" type="qcurve" smooth="yes"/>
      <point x="459" y="-193"/>
      <point x="530" y="-208"/>
      <point x="568" y="-208" type="qcurve" smooth="yes"/>
      <point x="629" y="-208"/>
      <point x="724" y="-174"/>
      <point x="756" y="-141" type="qcurve" smooth="yes"/>
      <point x="785" y="-111"/>
      <point x="816" y="-23"/>
      <point x="816" y="32" type="qcurve" smooth="yes"/>
      <point x="816" y="94" type="line"/>
      <point x="796" y="72"/>
      <point x="752" y="36"/>
      <point x="727" y="22" type="qcurve" smooth="yes"/>
      <point x="690" y="2"/>
      <point x="601" y="-20"/>
      <point x="550" y="-20" type="qcurve" smooth="yes"/>
      <point x="449" y="-20"/>
      <point x="288" y="63"/>
      <point x="231" y="136" type="qcurve" smooth="yes" name="inserted"/>
      <point x="174" y="209"/>
      <point x="113" y="410"/>
      <point x="113" y="528" type="qcurve" smooth="yes"/>
    </contour>
    <contour>
      <point x="392" y="528" type="line" smooth="yes"/>
      <point x="392" y="460"/>
      <point x="419" y="343"/>
      <point x="447" y="300" type="qcurve" smooth="yes" name="inserted"/>
      <point x="475" y="256"/>
      <point x="561" y="206"/>
      <point x="620" y="206" type="qcurve" smooth="yes"/>
      <point x="656" y="206"/>
      <point x="715" y="220"/>
      <point x="739" y="233" type="qcurve" smooth="yes"/>
      <point x="764" y="247"/>
      <point x="802" y="287"/>
      <point x="816" y="312" type="qcurve"/>
      <point x="816" y="770" type="line"/>
      <point x="801" y="798"/>
      <point x="759" y="840"/>
      <point x="732" y="853" type="qcurve" smooth="yes"/>
      <point x="709" y="864"/>
      <point x="654" y="876"/>
      <point x="622" y="876" type="qcurve" smooth="yes"/>
      <point x="563" y="876"/>
      <point x="477" y="825"/>
      <point x="449" y="781" type="qcurve" smooth="yes" name="inserted"/>
      <point x="420" y="736"/>
      <point x="392" y="617"/>
      <point x="392" y="549" type="qcurve" smooth="yes"/>
    </contour>
  </outline>
</glyph>
<glyph name="h" format="2">
  <advance width="1229"/>
  <unicode hex="0068"/>
  <outline>
    <contour>
      <point x="419" y="933" type="line"/>
      <point x="440" y="964"/>
      <point x="491" y="1017"/>
      <point x="519" y="1037" type="qcurve" smooth="yes"/>
      <point x="562" y="1068"/>
      <point x="666" y="1102"/>
      <point x="724" y="1102" type="qcurve" smooth="yes"/>
      <point x="809" y="1102"/>
      <point x="951" y="1051"/>
      <point x="1002" y="997" type="qcurve" smooth="yes" name="inserted"/>
      <point x="1053" y="943"/>
      <point x="1110" y="774"/>
      <point x="1110" y="655" type="qcurve" smooth="yes"/>
      <point x="1110" y="0" type="line"/>
      <point x="832" y="0" type="line"/>
      <point x="832" y="657" type="line" smooth="yes"/>
      <point x="832" y="715"/>
      <point x="803" y="799"/>
      <point x="776" y="825" type="qcurve" smooth="yes" name="inserted"/>
      <point x="749" y="851"/>
      <point x="673" y="876"/>
      <point x="625" y="876" type="qcurve" smooth="yes"/>
      <point x="588" y="876"/>
      <point x="524" y="862"/>
      <point x="498" y="848" type="qcurve" smooth="yes"/>
      <point x="474" y="836"/>
      <point x="435" y="802"/>
      <point x="419" y="781" type="qcurve"/>
      <point x="419" y="0" type="line"/>
      <point x="141" y="0" type="line"/>
      <point x="141" y="1536" type="line"/>
      <point x="419" y="1536" type="line"/>
    </contour>
  </outline>
</glyph>
<glyph name="m" format="2">
  <advance width="1229"/>
  <unicode hex="006D"/>
  <outline>
    <contour>
      <point x="314" y="1082" type="line"/>
      <point x="322" y="951" type="line"/>
      <point x="353" y="1021"/>
      <point x="462" y="1102"/>
      <point x="540" y="1102" type="qcurve" smooth="yes"/>
      <point x="578" y="1102"/>
      <point x="638" y="1084"/>
      <point x="660" y="1065" type="qcurve" smooth="yes"/>
      <point x="677" y="1051"/>
      <point x="702" y="1012"/>
      <point x="711" y="987" type="qcurve"/>
      <point x="725" y="1011"/>
      <point x="760" y="1050"/>
      <point x="781" y="1064" type="qcurve" smooth="yes"/>
      <point x="807" y="1082"/>
      <point x="873" y="1102"/>
      <point x="912" y="1102" type="qcurve" smooth="yes"/>
      <point x="961" y="1102"/>
      <point x="1046" y="1066"/>
      <point x="1078" y="1027" type="qcurve" smooth="yes" name="inserted"/>
      <point x="1109" y="987"/>
      <point x="1144" y="862"/>
      <point x="1144" y="772" type="qcurve" smooth="yes"/>
      <point x="1144" y="0" type="line"/>
      <point x="891" y="0" type="line"/>
      <point x="891" y="773" type="line" smooth="yes"/>
      <point x="891" y="804"/>
      <point x="878" y="844"/>
      <point x="867" y="856" type="qcurve" smooth="yes" name="inserted"/>
      <point x="856" y="867"/>
      <point x="827" y="876"/>
      <point x="812" y="876" type="qcurve" smooth="yes"/>
      <point x="796" y="876"/>
      <point x="771" y="868"/>
      <point x="760" y="861" type="qcurve" smooth="yes"/>
      <point x="751" y="854"/>
      <point x="737" y="837"/>
      <point x="732" y="826" type="qcurve"/>
      <point x="732" y="824"/>
      <point x="732" y="810"/>
      <point x="732" y="798" type="qcurve"/>
      <point x="732" y="0" type="line"/>
      <point x="487" y="0" type="line"/>
      <point x="487" y="774" type="line" smooth="yes"/>
      <point x="487" y="805"/>
      <point x="475" y="845"/>
      <point x="465" y="856" type="qcurve" smooth="yes" name="inserted"/>
      <point x="454" y="867"/>
      <point x="426" y="876"/>
      <point x="410" y="876" type="qcurve" smooth="yes"/>
      <point x="392" y="876"/>
      <point x="364" y="864"/>
      <point x="353" y="853" type="qcurve" smooth="yes"/>
      <point x="345" y="845"/>
      <point x="333" y="823"/>
      <point x="328" y="810" type="qcurve"/>
      <point x="328" y="0" type="line"/>
      <point x="75" y="0" type="line"/>
      <point x="75" y="1082" type="line"/>
    </contour>
  </outline>
</glyph>
<glyph name="n" format="2">
  <advance width="1229"/>
  <unicode hex="006E"/>
  <outline>
    <contour>
      <point x="141" y="0" type="line"/>
      <point x="141" y="1082" type="line"/>
      <point x="393" y="1082" type="line"/>
      <point x="410" y="932" type="line"/>
      <point x="431" y="962"/>
      <point x="481" y="1012"/>
      <point x="509" y="1032" type="qcurve" smooth="yes"/>
      <point x="557" y="1066"/>
      <point x="671" y="1102"/>
      <point x="735" y="1102" type="qcurve" smooth="yes"/>
      <point x="817" y="1102"/>
      <point x="953" y="1054"/>
      <point x="1003" y="1002" type="qcurve" smooth="yes" name="inserted"/>
      <point x="1052" y="949"/>
      <point x="1107" y="784"/>
      <point x="1107" y="666" type="qcurve" smooth="yes"/>
      <point x="1107" y="0" type="line"/>
      <point x="829" y="0" type="line"/>
      <point x="829" y="662" type="line" smooth="yes"/>
      <point x="829" y="726"/>
      <point x="800" y="809"/>
      <point x="773" y="833" type="qcurve" smooth="yes" name="inserted"/>
      <point x="746" y="857"/>
      <point x="670" y="876"/>
      <point x="622" y="876" type="qcurve" smooth="yes"/>
      <point x="582" y="876"/>
      <point x="515" y="858"/>
      <point x="489" y="840" type="qcurve" smooth="yes"/>
      <point x="468" y="827"/>
      <point x="434" y="791"/>
      <point x="420" y="769" type="qcurve"/>
      <point x="420" y="0" type="line"/>
    </contour>
  </outline>
</glyph>
<glyph name="q" format="2">
  <advance width="1229"/>
  <unicode hex="0071"/>
  <outline>
    <contour>
      <point x="113" y="550" type="line" smooth="yes"/>
      <point x="113" y="673"/>
      <point x="169" y="877"/>
      <point x="224" y="950" type="qcurve" smooth="yes" name="inserted"/>
      <point x="278" y="1022"/>
      <point x="437" y="1102"/>
      <point x="540" y="1102" type="qcurve" smooth="yes"/>
      <point x="594" y="1102"/>
      <point x="685" y="1078"/>
      <point x="723" y="1056" type="qcurve" smooth="yes"/>
      <point x="750" y="1040"/>
      <point x="798" y="998"/>
      <point x="819" y="972" type="qcurve"/>
      <point x="836" y="1082" type="line"/>
      <point x="1081" y="1082" type="line"/>
      <point x="1081" y="-416" type="line"/>
      <point x="802" y="-416" type="line"/>
      <point x="802" y="92" type="line"/>
      <point x="781" y="68"/>
      <point x="731" y="30"/>
      <point x="704" y="16" type="qcurve" smooth="yes"/>
      <point x="669" y="-1"/>
      <point x="586" y="-20"/>
      <point x="538" y="-20" type="qcurve" smooth="yes"/>
      <point x="436" y="-20"/>
      <point x="278" y="63"/>
      <point x="224" y="137" type="qcurve" smooth="yes" name="inserted"/>
      <point x="170" y="210"/>
      <point x="113" y="411"/>
      <point x="113" y="529" type="qcurve" smooth="yes"/>
    </contour>
    <contour>
      <point x="391" y="529" type="line" smooth="yes"/>
      <point x="391" y="462"/>
      <point x="415" y="344"/>
      <point x="441" y="300" type="qcurve" smooth="yes" name="inserted"/>
      <point x="467" y="255"/>
      <point x="550" y="203"/>
      <point x="609" y="203" type="qcurve" smooth="yes"/>
      <point x="645" y="203"/>
      <point x="704" y="218"/>
      <point x="728" y="231" type="qcurve" smooth="yes"/>
      <point x="752" y="245"/>
      <point x="788" y="286"/>
      <point x="802" y="312" type="qcurve"/>
      <point x="802" y="772" type="line"/>
      <point x="788" y="797"/>
      <point x="752" y="836"/>
      <point x="728" y="850" type="qcurve" smooth="yes"/>
      <point x="705" y="863"/>
      <point x="646" y="877"/>
      <point x="611" y="877" type="qcurve" smooth="yes"/>
      <point x="552" y="877"/>
      <point x="469" y="826"/>
      <point x="443" y="782" type="qcurve" smooth="yes" name="inserted"/>
      <point x="416" y="738"/>
      <point x="391" y="619"/>
      <point x="391" y="550" type="qcurve" smooth="yes"/>
    </contour>
  </outline>
</glyph>
<glyph name="r" format="2">
  <advance width="1229"/>
  <unicode hex="0072"/>
  <outline>
    <contour>
      <point x="918" y="1102" type="qcurve" smooth="yes"/>
      <point x="981" y="1102"/>
      <point x="1088" y="1085"/>
      <point x="1121" y="1075" type="qcurve"/>
      <point x="1080" y="798" type="line"/>
      <point x="1025" y="811"/>
      <point x="910" y="824"/>
      <point x="858" y="824" type="qcurve" smooth="yes"/>
      <point x="804" y="824"/>
      <point x="717" y="805"/>
      <point x="683" y="786" type="qcurve" smooth="yes"/>
      <point x="642" y="764"/>
      <point x="584" y="696"/>
      <point x="565" y="650" type="qcurve"/>
      <point x="565" y="0" type="line"/>
      <point x="287" y="0" type="line"/>
      <point x="287" y="1082" type="line"/>
      <point x="546" y="1082" type="line"/>
      <point x="557" y="929" type="line"/>
      <point x="559" y="905" type="line"/>
      <point x="625" y="997"/>
      <point x="809" y="1102"/>
    </contour>
  </outline>
</glyph>
<glyph name="s" format="2">
  <advance width="1229"/>
  <unicode hex="0073"/>
  <outline>
    <contour>
      <point x="839" y="297" type="qcurve" smooth="yes"/>
      <point x="839" y="322"/>
      <point x="816" y="360"/>
      <point x="787" y="377" type="qcurve" smooth="yes" name="inserted"/>
      <point x="757" y="393"/>
      <point x="659" y="421"/>
      <point x="584" y="435" type="qcurve" smooth="yes"/>
      <point x="489" y="454"/>
      <point x="332" y="511"/>
      <point x="276" y="552" type="qcurve" smooth="yes" name="inserted"/>
      <point x="220" y="592"/>
      <point x="157" y="698"/>
      <point x="157" y="767" type="qcurve" smooth="yes"/>
      <point x="157" y="834"/>
      <point x="221" y="956"/>
      <point x="281" y="1002" type="qcurve" smooth="yes" name="inserted"/>
      <point x="341" y="1048"/>
      <point x="513" y="1102"/>
      <point x="621" y="1102" type="qcurve" smooth="yes"/>
      <point x="734" y="1102"/>
      <point x="914" y="1049"/>
      <point x="977" y="1003" type="qcurve" smooth="yes" name="inserted"/>
      <point x="1039" y="956"/>
      <point x="1105" y="828"/>
      <point x="1105" y="753" type="qcurve"/>
      <point x="827" y="753" type="line"/>
      <point x="827" y="780"/>
      <point x="809" y="827"/>
      <point x="791" y="846" type="qcurve" smooth="yes"/>
      <point x="766" y="871"/>
      <point x="681" y="901"/>
      <point x="621" y="901" type="qcurve" smooth="yes"/>
      <point x="570" y="901"/>
      <point x="494" y="881"/>
      <point x="470" y="863" type="qcurve" smooth="yes"/>
      <point x="448" y="847"/>
      <point x="425" y="804"/>
      <point x="425" y="780" type="qcurve" smooth="yes"/>
      <point x="425" y="756"/>
      <point x="445" y="715"/>
      <point x="471" y="699" type="qcurve" smooth="yes" name="inserted"/>
      <point x="496" y="682"/>
      <point x="584" y="655"/>
      <point x="652" y="645" type="qcurve" smooth="yes"/>
      <point x="750" y="629"/>
      <point x="918" y="579"/>
      <point x="979" y="540" type="qcurve" smooth="yes" name="inserted"/>
      <point x="1040" y="500"/>
      <point x="1109" y="387"/>
      <point x="1109" y="309" type="qcurve" smooth="yes"/>
      <point x="1109" y="237"/>
      <point x="1040" y="116"/>
      <point x="977" y="72" type="qcurve" smooth="yes" name="inserted"/>
      <point x="913" y="28"/>
      <point x="733" y="-21"/>
      <point x="622" y="-21" type="qcurve" smooth="yes"/>
      <point x="500" y="-21"/>
      <point x="313" y="43"/>
      <point x="250" y="95" type="qcurve" smooth="yes" name="inserted"/>
      <point x="187" y="146"/>
      <point x="122" y="277"/>
      <point x="122" y="343" type="qcurve"/>
      <point x="387" y="343" type="line"/>
      <point x="390" y="299"/>
      <point x="432" y="236"/>
      <point x="465" y="217" type="qcurve" smooth="yes" name="inserted"/>
      <point x="498" y="197"/>
      <point x="583" y="179"/>
      <point x="628" y="179" type="qcurve" smooth="yes"/>
      <point x="682" y="179"/>
      <point x="763" y="198"/>
      <point x="789" y="214" type="qcurve" smooth="yes"/>
      <point x="814" y="230"/>
      <point x="839" y="272"/>
    </contour>
  </outline>
</glyph>
<glyph name="u" format="2">
  <advance width="1229"/>
  <unicode hex="0075"/>
  <outline>
    <contour>
      <point x="847" y="0" type="line"/>
      <point x="831" y="152" type="line"/>
      <point x="776" y="71"/>
      <point x="621" y="-21"/>
      <point x="529" y="-21" type="qcurve" smooth="yes"/>
      <point x="445" y="-21"/>
      <point x="305" y="31"/>
      <point x="255" y="88" type="qcurve" smooth="yes" name="inserted"/>
      <point x="205" y="144"/>
      <point x="150" y="319"/>
      <point x="150" y="442" type="qcurve" smooth="yes"/>
      <point x="150" y="1082" type="line"/>
      <point x="428" y="1082" type="line"/>
      <point x="428" y="440" type="line" smooth="yes"/>
      <point x="428" y="374"/>
      <point x="447" y="284"/>
      <point x="468" y="257" type="qcurve" smooth="yes" name="inserted"/>
      <point x="489" y="229"/>
      <point x="557" y="205"/>
      <point x="606" y="205" type="qcurve" smooth="yes"/>
      <point x="650" y="205"/>
      <point x="721" y="223"/>
      <point x="748" y="240" type="qcurve" smooth="yes"/>
      <point x="771" y="255"/>
      <point x="807" y="297"/>
      <point x="820" y="323" type="qcurve"/>
      <point x="820" y="1082" type="line"/>
      <point x="1099" y="1082" type="line"/>
      <point x="1099" y="0" type="line"/>
    </contour>
  </outline>
</glyph>
<glyph name="v" format="2">
  <advance width="1229"/>
  <unicode hex="0076"/>
  <outline>
    <contour>
      <point x="485" y="0" type="line"/>
      <point x="72" y="1082" type="line"/>
      <point x="362" y="1082" type="line"/>
      <point x="600" y="319" type="line"/>
      <point x="615" y="243" type="line"/>
      <point x="630" y="319" type="line"/>
      <point x="867" y="1082" type="line"/>
      <point x="1157" y="1082" type="line"/>
      <point x="746" y="0" type="line"/>
    </contour>
  </outline>
</glyph>
<glyph name="w" format="2">
  <advance width="1229"/>
  <unicode hex="0077"/>
  <outline>
    <contour>
      <point x="221" y="0" type="line"/>
      <point x="27" y="1082" type="line"/>
      <point x="281" y="1082" type="line"/>
      <point x="362" y="439" type="line"/>
      <point x="375" y="336" type="line"/>
      <point x="394" y="439" type="line"/>
      <point x="511" y="1082" type="line"/>
      <point x="697" y="1082" type="line"/>
      <point x="814" y="442" type="line"/>
      <point x="833" y="339" type="line"/>
      <point x="847" y="444" type="line"/>
      <point x="927" y="1082" type="line"/>
      <point x="1182" y="1082" type="line"/>
      <point x="988" y="0" type="line"/>
      <point x="744" y="0" type="line"/>
      <point x="625" y="578" type="line"/>
      <point x="602" y="688" type="line"/>
      <point x="580" y="578" type="line"/>
      <point x="465" y="0" type="line"/>
    </contour>
  </outline>
</glyph>
<glyph name="y" format="2">
  <advance width="1229"/>
  <unicode hex="0079"/>
  <outline>
    <contour>
      <point x="312" y="-437" type="qcurve" smooth="yes"/>
      <point x="272" y="-437.0"/>
      <point x="213.1722527285631" y="-427.0478479801564"/>
      <point x="177" y="-417" type="qcurve"/>
      <point x="211" y="-205" type="line"/>
      <point x="228" y="-205"/>
      <point x="281" y="-208"/>
      <point x="297" y="-208" type="qcurve" smooth="yes"/>
      <point x="330" y="-208"/>
      <point x="381" y="-167"/>
      <point x="399" y="-143" type="qcurve" smooth="yes" name="inserted"/>
      <point x="417" y="-119"/>
      <point x="434" y="-95"/>
      <point x="446" y="-73" type="qcurve"/>
      <point x="510" y="46" type="line"/>
      <point x="52" y="1082" type="line"/>
      <point x="356" y="1082" type="line"/>
      <point x="604" y="448" type="line"/>
      <point x="634" y="338" type="line"/>
      <point x="675" y="446" type="line"/>
      <point x="922" y="1082" type="line"/>
      <point x="1229" y="1082" type="line"/>
      <point x="680" y="-162" type="line"/>
      <point x="662" y="-203"/>
      <point x="605" y="-299"/>
      <point x="562" y="-340" type="qcurve" smooth="yes" name="inserted"/>
      <point x="519" y="-381"/>
      <point x="396" y="-437"/>
    </contour>
  </outline>
</glyph>
<glyph name="asciitilde" format="2">
  <advance width="1229"/>
  <unicode hex="007E"/>
  <outline>
    <contour>
      <point x="1144" y="752" type="line"/>
      <point x="1144" y="671"/>
      <point x="1099" y="533"/>
      <point x="1059" y="484" type="qcurve" smooth="yes" name="inserted"/>
      <point x="1018" y="434"/>
      <point x="904" y="378"/>
      <point x="836" y="378" type="qcurve" smooth="yes"/>
      <point x="792" y="378"/>
      <point x="715" y="394"/>
      <point x="678" y="411" type="qcurve" smooth="yes" name="inserted"/>
      <point x="641" y="427"/>
      <point x="569" y="477"/>
      <point x="531" y="512" type="qcurve"/>
      <point x="508" y="531"/>
      <point x="463" y="562"/>
      <point x="441" y="572" type="qcurve" smooth="yes"/>
      <point x="417" y="584"/>
      <point x="370" y="596"/>
      <point x="345" y="596" type="qcurve" smooth="yes"/>
      <point x="318" y="596"/>
      <point x="268" y="569"/>
      <point x="249" y="547" type="qcurve" smooth="yes" name="inserted"/>
      <point x="229" y="524"/>
      <point x="206" y="466"/>
      <point x="206" y="435" type="qcurve"/>
      <point x="26" y="457" type="line"/>
      <point x="26" y="538"/>
      <point x="70" y="673"/>
      <point x="111" y="722" type="qcurve" smooth="yes" name="inserted"/>
      <point x="151" y="770"/>
      <point x="264" y="824"/>
      <point x="332" y="824" type="qcurve" smooth="yes"/>
      <point x="377" y="824"/>
      <point x="458" y="806"/>
      <point x="496" y="788" type="qcurve" smooth="yes"/>
      <point x="533" y="772"/>
      <point x="604" y="723"/>
      <point x="640" y="691" type="qcurve" smooth="yes"/>
      <point x="665" y="670"/>
      <point x="712" y="638"/>
      <point x="735" y="627" type="qcurve" smooth="yes"/>
      <point x="757" y="617"/>
      <point x="801" y="607"/>
      <point x="823" y="607" type="qcurve" smooth="yes"/>
      <point x="850" y="607"/>
      <point x="898" y="635"/>
      <point x="916" y="658" type="qcurve" smooth="yes" name="inserted"/>
      <point x="934" y="681"/>
      <point x="956" y="740"/>
      <point x="956" y="771" type="qcurve"/>
    </contour>
  </outline>
</glyph>
<glyph name="exclamdown" format="2">
  <advance width="1229"/>
  <unicode hex="00A1"/>
  <outline>
    <contour>
      <point x="514" y="565" type="line"/>
      <point x="767" y="565" type="line"/>
      <point x="783" y="-380" type="line"/>
      <point x="497" y="-380" type="line"/>
    </contour>
    <contour>
      <point x="807" y="947" type="qcurve" smooth="yes"/>
      <point x="807.0" y="882.1921241438489"/>
      <point x="717.0888953979022" y="796.0"/>
      <point x="644" y="796" type="qcurve" smooth="yes"/>
      <point x="568.0000000000001" y="796.0"/>
      <point x="482.0" y="883.0"/>
      <point x="482" y="947" type="qcurve" smooth="yes"/>
      <point x="482.0" y="1013.0"/>
      <point x="568.0000000000001" y="1103.0"/>
      <point x="644" y="1103" type="qcurve" smooth="yes"/>
      <point x="717.1297661215791" y="1103.0"/>
      <point x="807.0" y="1013.7948492633817"/>
    </contour>
  </outline>
</glyph>
<glyph name="cent" format="2">
  <advance width="1229"/>
  <unicode hex="00A2"/>
  <outline>
    <contour>
      <point x="645" y="202" type="qcurve" smooth="yes"/>
      <point x="686" y="202"/>
      <point x="760" y="226"/>
      <point x="788.0" y="248.0" type="qcurve" smooth="yes" name="inserted"/>
      <point x="816" y="270"/>
      <point x="847" y="332"/>
      <point x="845" y="370" type="qcurve"/>
      <point x="1107" y="370" type="line"/>
      <point x="1109" y="296"/>
      <point x="1053" y="168"/>
      <point x="1003.5" y="117.5" type="qcurve" smooth="yes" name="inserted"/>
      <point x="954" y="67"/>
      <point x="819" y="0"/>
      <point x="742" y="-13" type="qcurve"/>
      <point x="742" y="-245" type="line"/>
      <point x="542" y="-245" type="line"/>
      <point x="542" y="-12" type="line"/>
      <point x="443" y="6"/>
      <point x="293" y="102"/>
      <point x="243.0" y="173.0" type="qcurve" smooth="yes" name="inserted"/>
      <point x="193" y="244"/>
      <point x="142" y="424"/>
      <point x="142" y="525" type="qcurve" smooth="yes"/>
      <point x="142" y="555" type="line" smooth="yes"/>
      <point x="142" y="656"/>
      <point x="193" y="836"/>
      <point x="243.0" y="907.0" type="qcurve" smooth="yes" name="inserted"/>
      <point x="293" y="978"/>
      <point x="443" y="1075"/>
      <point x="542" y="1093" type="qcurve"/>
      <point x="542" y="1318" type="line"/>
      <point x="742" y="1318" type="line"/>
      <point x="742" y="1095" type="line"/>
      <point x="823" y="1082"/>
      <point x="959" y="1013"/>
      <point x="1007.5" y="959.5" type="qcurve" smooth="yes" name="inserted"/>
      <point x="1056" y="906"/>
      <point x="1109" y="766"/>
      <point x="1107" y="682" type="qcurve"/>
      <point x="845" y="682" type="line"/>
      <point x="847" y="722"/>
      <point x="819" y="794"/>
      <point x="792.0" y="820.0" type="qcurve" smooth="yes" name="inserted"/>
      <point x="765" y="846"/>
      <point x="689" y="877"/>
      <point x="644" y="877" type="qcurve" smooth="yes"/>
      <point x="578" y="877"/>
      <point x="492" y="823"/>
      <point x="466.5" y="778.0" type="qcurve" smooth="yes" name="inserted"/>
      <point x="441" y="733"/>
      <point x="420" y="617"/>
      <point x="420" y="555" type="qcurve" smooth="yes"/>
      <point x="420" y="525" type="line" smooth="yes"/>
      <point x="420" y="462"/>
      <point x="440" y="345"/>
      <point x="465.5" y="300.5" type="qcurve" smooth="yes" name="inserted"/>
      <point x="491" y="256"/>
      <point x="578" y="202"/>
    </contour>
  </outline>
</glyph>
<glyph name="sterling" format="2">
  <advance width="1229"/>
  <unicode hex="00A3"/>
  <outline>
    <contour>
      <point x="560" y="585" type="line"/>
      <point x="566" y="431" type="line" smooth="yes"/>
      <point x="566" y="394"/>
      <point x="556" y="328"/>
      <point x="545" y="299" type="qcurve" smooth="yes"/>
      <point x="538" y="279"/>
      <point x="517" y="243"/>
      <point x="503" y="226" type="qcurve"/>
      <point x="1173" y="226" type="line"/>
      <point x="1173" y="0" type="line"/>
      <point x="118" y="0" type="line"/>
      <point x="118" y="226" type="line"/>
      <point x="207" y="226" type="line"/>
      <point x="231" y="232"/>
      <point x="260" y="271"/>
      <point x="269" y="298" type="qcurve" smooth="yes" name="inserted"/>
      <point x="277" y="325"/>
      <point x="282" y="388"/>
      <point x="282" y="418" type="qcurve" smooth="yes"/>
      <point x="277" y="585" type="line"/>
      <point x="115" y="585" type="line"/>
      <point x="115" y="806" type="line"/>
      <point x="270" y="806" type="line"/>
      <point x="263" y="1040" type="line" smooth="yes"/>
      <point x="263" y="1143"/>
      <point x="329" y="1306"/>
      <point x="389" y="1362" type="qcurve" smooth="yes" name="inserted"/>
      <point x="449" y="1417"/>
      <point x="616" y="1476"/>
      <point x="716" y="1476" type="qcurve" smooth="yes"/>
      <point x="823" y="1476"/>
      <point x="989" y="1417"/>
      <point x="1046" y="1363" type="qcurve" smooth="yes" name="inserted"/>
      <point x="1102" y="1309"/>
      <point x="1161" y="1157"/>
      <point x="1161" y="1064" type="qcurve"/>
      <point x="892" y="1064" type="line"/>
      <point x="892" y="1115"/>
      <point x="863" y="1186"/>
      <point x="838" y="1208" type="qcurve" smooth="yes" name="inserted"/>
      <point x="813" y="1230"/>
      <point x="748" y="1249"/>
      <point x="712" y="1249" type="qcurve" smooth="yes"/>
      <point x="676" y="1249"/>
      <point x="614" y="1222"/>
      <point x="592" y="1196" type="qcurve" smooth="yes" name="inserted"/>
      <point x="569" y="1170"/>
      <point x="543" y="1091"/>
      <point x="543" y="1040" type="qcurve" smooth="yes"/>
      <point x="552" y="806" type="line"/>
      <point x="862" y="806" type="line"/>
      <point x="862" y="585" type="line"/>
    </contour>
  </outline>
</glyph>
<glyph name="currency" format="2">
  <advance width="1229"/>
  <unicode hex="00A4"/>
  <outline>
    <contour>
      <point x="904" y="78" type="line"/>
      <point x="843" y="30"/>
      <point x="695" y="-20"/>
      <point x="614" y="-20" type="qcurve" smooth="yes"/>
      <point x="533" y="-20"/>
      <point x="386" y="30"/>
      <point x="324" y="76" type="qcurve"/>
      <point x="224" y="-26" type="line"/>
      <point x="83" y="118" type="line"/>
      <point x="191" y="228" type="line"/>
      <point x="156" y="288"/>
      <point x="118" y="430"/>
      <point x="118" y="508" type="qcurve" smooth="yes"/>
      <point x="118" y="591"/>
      <point x="161" y="739"/>
      <point x="199" y="801" type="qcurve"/>
      <point x="83" y="920" type="line"/>
      <point x="224" y="1064" type="line"/>
      <point x="338" y="947" type="line"/>
      <point x="398" y="989"/>
      <point x="537" y="1034"/>
      <point x="614" y="1034" type="qcurve" smooth="yes"/>
      <point x="691" y="1034"/>
      <point x="831" y="988"/>
      <point x="891" y="946" type="qcurve"/>
      <point x="1007" y="1065" type="line"/>
      <point x="1149" y="920" type="line"/>
      <point x="1029" y="797" type="line"/>
      <point x="1067" y="735"/>
      <point x="1108" y="589"/>
      <point x="1108" y="508" type="qcurve" smooth="yes"/>
      <point x="1108" y="430"/>
      <point x="1071" y="291"/>
      <point x="1037" y="231" type="qcurve"/>
      <point x="1149" y="118" type="line"/>
      <point x="1007" y="-27" type="line"/>
    </contour>
    <contour>
      <point x="304" y="508" type="qcurve" smooth="yes"/>
      <point x="304" y="436"/>
      <point x="352" y="312"/>
      <point x="394.0" y="266.5" type="qcurve" smooth="yes" name="inserted"/>
      <point x="436" y="221"/>
      <point x="549" y="168"/>
      <point x="614" y="168" type="qcurve" smooth="yes"/>
      <point x="678" y="168"/>
      <point x="791" y="221"/>
      <point x="833.0" y="266.5" type="qcurve" smooth="yes" name="inserted"/>
      <point x="875" y="312"/>
      <point x="923" y="436"/>
      <point x="923" y="508" type="qcurve" smooth="yes"/>
      <point x="923" y="580"/>
      <point x="875" y="703"/>
      <point x="833.0" y="748.0" type="qcurve" smooth="yes" name="inserted"/>
      <point x="791" y="793"/>
      <point x="678" y="845"/>
      <point x="614" y="845" type="qcurve" smooth="yes"/>
      <point x="549" y="845"/>
      <point x="436" y="793"/>
      <point x="394.0" y="748.0" type="qcurve" smooth="yes" name="inserted"/>
      <point x="352" y="703"/>
      <point x="304" y="580"/>
    </contour>
  </outline>
</glyph>
<glyph name="yen" format="2">
  <advance width="1229"/>
  <unicode hex="00A5"/>
  <outline>
    <contour>
      <point x="479" y="0" type="line"/>
      <point x="479" y="287" type="line"/>
      <point x="136" y="287" type="line"/>
      <point x="136" y="452" type="line"/>
      <point x="479" y="452" type="line"/>
      <point x="479" y="576" type="line"/>
      <point x="136" y="576" type="line"/>
      <point x="136" y="742" type="line"/>
      <point x="405" y="742" type="line"/>
      <point x="21" y="1456" type="line"/>
      <point x="331" y="1456" type="line"/>
      <point x="597" y="893" type="line"/>
      <point x="622" y="837" type="line"/>
      <point x="624" y="837" type="line"/>
      <point x="649" y="894" type="line"/>
      <point x="915" y="1456" type="line"/>
      <point x="1224" y="1456" type="line"/>
      <point x="841" y="742" type="line"/>
      <point x="1091" y="742" type="line"/>
      <point x="1091" y="576" type="line"/>
      <point x="760" y="576" type="line"/>
      <point x="760" y="452" type="line"/>
      <point x="1091" y="452" type="line"/>
      <point x="1091" y="287" type="line"/>
      <point x="760" y="287" type="line"/>
      <point x="760" y="0" type="line"/>
    </contour>
  </outline>
</glyph>
<glyph name="dieresis" format="2">
  <advance width="1229"/>
  <unicode hex="00A8"/>
  <outline>
    <contour>
      <point x="265" y="1365" type="qcurve" smooth="yes"/>
      <point x="265.0" y="1416.9999999999998"/>
      <point x="341.0" y="1490.0"/>
      <point x="401" y="1490" type="qcurve" smooth="yes"/>
      <point x="461.0" y="1490.0"/>
      <point x="537.0" y="1416.9999999999998"/>
      <point x="537" y="1365" type="qcurve" smooth="yes"/>
      <point x="537.0" y="1312.2705767184268"/>
      <point x="460.1813254548486" y="1241.0"/>
      <point x="401" y="1241" type="qcurve" smooth="yes"/>
      <point x="341.8186745451514" y="1241.0"/>
      <point x="265.0" y="1312.2705767184268"/>
    </contour>
    <contour>
      <point x="745" y="1365" type="qcurve" smooth="yes"/>
      <point x="745.0" y="1416.2904820608687"/>
      <point x="820.1583577520307" y="1489.0"/>
      <point x="881" y="1489" type="qcurve" smooth="yes"/>
      <point x="941.8416422479693" y="1489.0"/>
      <point x="1017.0" y="1416.2904820608687"/>
      <point x="1017" y="1365" type="qcurve" smooth="yes"/>
      <point x="1017.0" y="1311.0"/>
      <point x="941.0000000000001" y="1239.0"/>
      <point x="881" y="1239" type="qcurve" smooth="yes"/>
      <point x="820.9999999999999" y="1239.0"/>
      <point x="745.0" y="1311.0"/>
    </contour>
  </outline>
</glyph>
<glyph name="ordfeminine" format="2">
  <advance width="1229"/>
  <unicode hex="00AA"/>
  <outline>
    <contour>
      <point x="765" y="705" type="line"/>
      <point x="758" y="727" name="inserted"/>
      <point x="747" y="774"/>
      <point x="744" y="799" type="qcurve"/>
      <point x="730" y="778"/>
      <point x="689" y="739"/>
      <point x="662" y="724" type="qcurve" smooth="yes" name="inserted"/>
      <point x="634" y="709"/>
      <point x="564" y="691"/>
      <point x="522" y="691" type="qcurve" smooth="yes"/>
      <point x="462" y="691"/>
      <point x="369" y="723"/>
      <point x="338" y="753" type="qcurve" smooth="yes" name="inserted"/>
      <point x="306" y="783"/>
      <point x="273" y="867"/>
      <point x="273" y="919" type="qcurve" smooth="yes"/>
      <point x="273" y="976"/>
      <point x="318" y="1065"/>
      <point x="361" y="1094" type="qcurve" smooth="yes"/>
      <point x="403" y="1121"/>
      <point x="525" y="1150"/>
      <point x="604" y="1150" type="qcurve" smooth="yes"/>
      <point x="741" y="1150" type="line"/>
      <point x="741" y="1201" type="line" smooth="yes"/>
      <point x="741" y="1232"/>
      <point x="727" y="1279"/>
      <point x="713" y="1295" type="qcurve" smooth="yes"/>
      <point x="699" y="1311"/>
      <point x="655" y="1328"/>
      <point x="625" y="1328" type="qcurve" smooth="yes"/>
      <point x="587" y="1328"/>
      <point x="530" y="1311"/>
      <point x="513" y="1294" type="qcurve" smooth="yes"/>
      <point x="500" y="1282"/>
      <point x="487" y="1249"/>
      <point x="487" y="1229" type="qcurve"/>
      <point x="314" y="1243" type="line"/>
      <point x="314" y="1294"/>
      <point x="358" y="1379"/>
      <point x="399" y="1410" type="qcurve" smooth="yes" name="inserted"/>
      <point x="440" y="1441"/>
      <point x="554" y="1476"/>
      <point x="625" y="1476" type="qcurve" smooth="yes"/>
      <point x="690" y="1476"/>
      <point x="797" y="1441"/>
      <point x="836" y="1407" type="qcurve" smooth="yes" name="inserted"/>
      <point x="874" y="1372"/>
      <point x="916" y="1269"/>
      <point x="916" y="1200" type="qcurve" smooth="yes"/>
      <point x="916" y="886" type="line" smooth="yes"/>
      <point x="916" y="837"/>
      <point x="928" y="749"/>
      <point x="942" y="705" type="qcurve"/>
    </contour>
    <contour>
      <point x="565" y="835" type="qcurve" smooth="yes"/>
      <point x="591" y="835"/>
      <point x="647" y="852"/>
      <point x="672" y="866" type="qcurve" smooth="yes" name="inserted"/>
      <point x="696" y="879"/>
      <point x="733" y="913"/>
      <point x="741" y="930" type="qcurve"/>
      <point x="741" y="1033" type="line"/>
      <point x="605" y="1033" type="line" smooth="yes"/>
      <point x="566" y="1033"/>
      <point x="508" y="1015"/>
      <point x="488" y="1000" type="qcurve" smooth="yes" name="inserted"/>
      <point x="468" y="985"/>
      <point x="448" y="945"/>
      <point x="448" y="923" type="qcurve" smooth="yes"/>
      <point x="448" y="903"/>
      <point x="460" y="872"/>
      <point x="473" y="861" type="qcurve" smooth="yes"/>
      <point x="487" y="848"/>
      <point x="533" y="835"/>
    </contour>
  </outline>
</glyph>
<glyph name="registered" format="2">
  <advance width="1229"/>
  <unicode hex="00AE"/>
  <outline>
    <contour>
      <point x="88" y="541" type="qcurve" smooth="yes"/>
      <point x="88" y="660"/>
      <point x="172" y="865"/>
      <point x="244.0" y="940.5" type="qcurve" smooth="yes" name="inserted"/>
      <point x="316" y="1016"/>
      <point x="510" y="1102"/>
      <point x="620" y="1102" type="qcurve" smooth="yes"/>
      <point x="730" y="1102"/>
      <point x="924" y="1016"/>
      <point x="996.0" y="940.5" type="qcurve" smooth="yes" name="inserted"/>
      <point x="1068" y="865"/>
      <point x="1152" y="660"/>
      <point x="1152" y="541" type="qcurve" smooth="yes"/>
      <point x="1152" y="422"/>
      <point x="1068" y="217"/>
      <point x="996.0" y="141.0" type="qcurve" smooth="yes" name="inserted"/>
      <point x="924" y="65"/>
      <point x="730" y="-21"/>
      <point x="620" y="-21" type="qcurve" smooth="yes"/>
      <point x="510" y="-21"/>
      <point x="316" y="65"/>
      <point x="244.0" y="141.0" type="qcurve" smooth="yes" name="inserted"/>
      <point x="172" y="217"/>
      <point x="88" y="422"/>
    </contour>
    <contour>
      <point x="179" y="541" type="qcurve" smooth="yes"/>
      <point x="179" y="442"/>
      <point x="248" y="271"/>
      <point x="308.0" y="208.0" type="qcurve" smooth="yes" name="inserted"/>
      <point x="368" y="145"/>
      <point x="529" y="73"/>
      <point x="620" y="73" type="qcurve" smooth="yes"/>
      <point x="711" y="73"/>
      <point x="872" y="145"/>
      <point x="932.0" y="208.0" type="qcurve" smooth="yes" name="inserted"/>
      <point x="992" y="271"/>
      <point x="1061" y="442"/>
      <point x="1061" y="541" type="qcurve" smooth="yes"/>
      <point x="1061" y="640"/>
      <point x="992" y="811"/>
      <point x="932.0" y="874.0" type="qcurve" smooth="yes" name="inserted"/>
      <point x="872" y="937"/>
      <point x="711" y="1008"/>
      <point x="620" y="1008" type="qcurve" smooth="yes"/>
      <point x="529" y="1008"/>
      <point x="368" y="937"/>
      <point x="308.0" y="874.0" type="qcurve" smooth="yes" name="inserted"/>
      <point x="248" y="811"/>
      <point x="179" y="640"/>
    </contour>
    <contour>
      <point x="512" y="484" type="line"/>
      <point x="512" y="232" type="line"/>
      <point x="399" y="232" type="line"/>
      <point x="399" y="869" type="line"/>
      <point x="610" y="869" type="line" smooth="yes"/>
      <point x="721" y="869"/>
      <point x="854" y="773"/>
      <point x="854" y="676" type="qcurve" smooth="yes"/>
      <point x="854" y="620"/>
      <point x="784" y="542"/>
      <point x="718" y="519" type="qcurve"/>
      <point x="864" y="232" type="line"/>
      <point x="748" y="232" type="line"/>
      <point x="631" y="484" type="line"/>
    </contour>
    <contour>
      <point x="512" y="585" type="line"/>
      <point x="626" y="585" type="line" smooth="yes"/>
      <point x="648" y="585"/>
      <point x="690" y="597"/>
      <point x="706.0" y="608.0" type="qcurve" smooth="yes" name="inserted"/>
      <point x="722" y="619"/>
      <point x="741" y="651"/>
      <point x="741" y="672" type="qcurve" smooth="yes"/>
      <point x="741" y="727"/>
      <point x="683" y="769"/>
      <point x="610" y="769" type="qcurve" smooth="yes"/>
      <point x="512" y="769" type="line"/>
    </contour>
  </outline>
</glyph>
<glyph name="macron" format="2">
  <advance width="1229"/>
  <unicode hex="00AF"/>
  <unicode hex="02C9"/>
  <outline>
    <contour>
      <point x="1003" y="1292" type="line"/>
      <point x="273" y="1292" type="line"/>
      <point x="273" y="1456" type="line"/>
      <point x="1003" y="1456" type="line"/>
    </contour>
  </outline>
</glyph>
<glyph name="twosuperior" format="2">
  <advance width="1229"/>
  <unicode hex="00B2"/>
  <outline>
    <contour>
      <point x="934" y="667" type="line"/>
      <point x="316" y="667" type="line"/>
      <point x="316" y="801" type="line"/>
      <point x="603" y="1060" type="line" smooth="yes"/>
      <point x="628" y="1082"/>
      <point x="664" y="1123"/>
      <point x="677" y="1141" type="qcurve" smooth="yes"/>
      <point x="694" y="1165"/>
      <point x="709" y="1205"/>
      <point x="709" y="1219" type="qcurve" smooth="yes"/>
      <point x="709" y="1238"/>
      <point x="697" y="1271"/>
      <point x="685" y="1282" type="qcurve" smooth="yes"/>
      <point x="673" y="1293"/>
      <point x="636" y="1306"/>
      <point x="612" y="1306" type="qcurve" smooth="yes"/>
      <point x="583" y="1306"/>
      <point x="540" y="1287"/>
      <point x="526" y="1271" type="qcurve" smooth="yes"/>
      <point x="512" y="1256"/>
      <point x="499" y="1216"/>
      <point x="499" y="1194" type="qcurve"/>
      <point x="298" y="1194" type="line"/>
      <point x="298" y="1250"/>
      <point x="340" y="1349"/>
      <point x="380" y="1387" type="qcurve" smooth="yes" name="inserted"/>
      <point x="420" y="1424"/>
      <point x="532" y="1467"/>
      <point x="603" y="1467" type="qcurve" smooth="yes"/>
      <point x="685" y="1467"/>
      <point x="809" y="1426"/>
      <point x="848" y="1387" type="qcurve" smooth="yes"/>
      <point x="879" y="1357"/>
      <point x="911" y="1272"/>
      <point x="911" y="1220" type="qcurve" smooth="yes"/>
      <point x="911" y="1176"/>
      <point x="884" y="1104"/>
      <point x="857" y="1069" type="qcurve" smooth="yes" name="inserted"/>
      <point x="830" y="1034"/>
      <point x="750" y="962"/>
      <point x="696" y="919" type="qcurve" smooth="yes"/>
      <point x="579" y="826" type="line"/>
      <point x="934" y="826" type="line"/>
    </contour>
  </outline>
</glyph>
<glyph name="threesuperior" format="2">
  <advance width="1229"/>
  <unicode hex="00B3"/>
  <outline>
    <contour>
      <point x="515" y="1135" type="line"/>
      <point x="603" y="1135" type="line" smooth="yes"/>
      <point x="630" y="1135"/>
      <point x="671" y="1145"/>
      <point x="685" y="1155" type="qcurve" smooth="yes"/>
      <point x="703" y="1167"/>
      <point x="719" y="1203"/>
      <point x="719" y="1225" type="qcurve" smooth="yes"/>
      <point x="719" y="1240"/>
      <point x="707" y="1268"/>
      <point x="695" y="1280" type="qcurve" smooth="yes" name="inserted"/>
      <point x="682" y="1291"/>
      <point x="641" y="1305"/>
      <point x="611" y="1305" type="qcurve" smooth="yes"/>
      <point x="590" y="1305"/>
      <point x="553" y="1297"/>
      <point x="539" y="1289" type="qcurve" smooth="yes"/>
      <point x="524" y="1281"/>
      <point x="507" y="1257"/>
      <point x="507" y="1241" type="qcurve"/>
      <point x="306" y="1241" type="line"/>
      <point x="306" y="1296"/>
      <point x="355" y="1380"/>
      <point x="396" y="1409" type="qcurve" smooth="yes" name="inserted"/>
      <point x="437" y="1437"/>
      <point x="545" y="1466"/>
      <point x="605" y="1466" type="qcurve" smooth="yes"/>
      <point x="675" y="1466"/>
      <point x="791" y="1437"/>
      <point x="832" y="1409" type="qcurve" smooth="yes" name="inserted"/>
      <point x="873" y="1380"/>
      <point x="919" y="1295"/>
      <point x="919" y="1240" type="qcurve" smooth="yes"/>
      <point x="919" y="1205"/>
      <point x="895" y="1146"/>
      <point x="872" y="1124" type="qcurve" smooth="yes"/>
      <point x="855" y="1107"/>
      <point x="811" y="1080"/>
      <point x="784" y="1070" type="qcurve"/>
      <point x="817" y="1061"/>
      <point x="871" y="1033"/>
      <point x="890" y="1013" type="qcurve" smooth="yes"/>
      <point x="911" y="991"/>
      <point x="934" y="928"/>
      <point x="934" y="887" type="qcurve" smooth="yes"/>
      <point x="934" y="831"/>
      <point x="884" y="745"/>
      <point x="840" y="716" type="qcurve" smooth="yes" name="inserted"/>
      <point x="795" y="686"/>
      <point x="675" y="655"/>
      <point x="605" y="655" type="qcurve" smooth="yes"/>
      <point x="549" y="655"/>
      <point x="438" y="681"/>
      <point x="394" y="711" type="qcurve" smooth="yes" name="inserted"/>
      <point x="349" y="740"/>
      <point x="293" y="833"/>
      <point x="293" y="900" type="qcurve"/>
      <point x="495" y="900" type="line"/>
      <point x="495" y="884"/>
      <point x="510" y="854"/>
      <point x="524" y="843" type="qcurve" smooth="yes"/>
      <point x="540" y="830"/>
      <point x="587" y="815"/>
      <point x="617" y="815" type="qcurve" smooth="yes"/>
      <point x="649" y="815"/>
      <point x="694" y="831"/>
      <point x="708" y="844" type="qcurve" smooth="yes"/>
      <point x="720" y="856"/>
      <point x="732" y="888"/>
      <point x="732" y="905" type="qcurve" smooth="yes"/>
      <point x="732" y="932"/>
      <point x="715" y="968"/>
      <point x="698" y="979" type="qcurve" smooth="yes"/>
      <point x="682" y="990"/>
      <point x="633" y="1000"/>
      <point x="603" y="1000" type="qcurve" smooth="yes"/>
      <point x="515" y="1000" type="line"/>
    </contour>
  </outline>
</glyph>
<glyph name="mu" format="2">
  <advance width="1229"/>
  <unicode hex="00B5"/>
  <outline>
    <contour>
      <point x="450" y="1082" type="line"/>
      <point x="450" y="462" type="line" smooth="yes"/>
      <point x="450" y="382"/>
      <point x="477" y="282"/>
      <point x="502" y="254" type="qcurve" smooth="yes" name="inserted"/>
      <point x="526" y="225"/>
      <point x="594" y="205"/>
      <point x="635" y="205" type="qcurve" smooth="yes"/>
      <point x="684" y="205"/>
      <point x="759" y="226"/>
      <point x="786" y="246" type="qcurve" smooth="yes"/>
      <point x="805" y="259"/>
      <point x="833" y="293"/>
      <point x="844" y="313" type="qcurve"/>
      <point x="844" y="1082" type="line"/>
      <point x="1123" y="1082" type="line"/>
      <point x="1123" y="0" type="line"/>
      <point x="864" y="0" type="line"/>
      <point x="858" y="72" type="line"/>
      <point x="843" y="56"/>
      <point x="809" y="29"/>
      <point x="790" y="18" type="qcurve" smooth="yes"/>
      <point x="756" y="-1"/>
      <point x="676" y="-21"/>
      <point x="630" y="-21" type="qcurve" smooth="yes"/>
      <point x="577" y="-21" name="inserted"/>
      <point x="487" y="3"/>
      <point x="450" y="27" type="qcurve"/>
      <point x="450" y="-416" type="line"/>
      <point x="172" y="-416" type="line"/>
      <point x="172" y="1082" type="line"/>
    </contour>
  </outline>
</glyph>
<glyph name="periodcentered" format="2">
  <advance width="1229"/>
  <unicode hex="00B7"/>
  <outline>
    <contour>
      <point x="494" y="701" type="qcurve" smooth="yes"/>
      <point x="494.0" y="764.2102303420269"/>
      <point x="579.0890260220622" y="851.0"/>
      <point x="652" y="851" type="qcurve" smooth="yes"/>
      <point x="723.1115091347802" y="851.0"/>
      <point x="810.0" y="765.8097546470558"/>
      <point x="810" y="701" type="qcurve" smooth="yes"/>
      <point x="810.0" y="636.1902453529442"/>
      <point x="723.1115091347802" y="552.0"/>
      <point x="652" y="552" type="qcurve" smooth="yes"/>
      <point x="579.0890260220622" y="552.0"/>
      <point x="494.0" y="637.7897696579731"/>
    </contour>
  </outline>
</glyph>
<glyph name="cedilla" format="2">
  <advance width="1229"/>
  <unicode hex="00B8"/>
  <outline>
    <contour>
      <point x="676" y="5" type="line"/>
      <point x="665" y="-51" type="line"/>
      <point x="693" y="-56"/>
      <point x="747" y="-79"/>
      <point x="768" y="-99" type="qcurve" smooth="yes" name="inserted"/>
      <point x="789" y="-120"/>
      <point x="815" y="-181"/>
      <point x="815" y="-224" type="qcurve" smooth="yes"/>
      <point x="815" y="-277"/>
      <point x="771" y="-363"/>
      <point x="728" y="-393" type="qcurve" smooth="yes" name="inserted"/>
      <point x="684" y="-424"/>
      <point x="556" y="-458"/>
      <point x="471" y="-458" type="qcurve"/>
      <point x="464" y="-298" type="line"/>
      <point x="489" y="-298"/>
      <point x="532" y="-289"/>
      <point x="548" y="-280" type="qcurve" smooth="yes"/>
      <point x="564" y="-270"/>
      <point x="583" y="-238"/>
      <point x="583" y="-215" type="qcurve" smooth="yes"/>
      <point x="583" y="-195"/>
      <point x="567" y="-167"/>
      <point x="550" y="-158" type="qcurve" smooth="yes"/>
      <point x="533" y="-148"/>
      <point x="477" y="-139"/>
      <point x="438" y="-136" type="qcurve"/>
      <point x="469" y="5" type="line"/>
    </contour>
  </outline>
</glyph>
<glyph name="onequarter" format="2">
  <advance width="1229"/>
  <unicode hex="00BC"/>
  <outline>
    <contour>
      <point x="416.4" y="751.0" type="line"/>
      <point x="237.3" y="751.0" type="line"/>
      <point x="237.3" y="1248.7" type="line"/>
      <point x="65.40000000000003" y="1210.0" type="line"/>
      <point x="65.40000000000003" y="1350.4" type="line"/>
      <point x="399.30000000000007" y="1458.4" type="line"/>
      <point x="416.4" y="1458.4" type="line"/>
    </contour>
    <contour>
      <point x="1087.9" y="290.7" type="line"/>
      <point x="1169.8000000000002" y="290.7" type="line"/>
      <point x="1169.8000000000002" y="144.0" type="line"/>
      <point x="1087.9" y="144.0" type="line"/>
      <point x="1087.9" y="0.0" type="line"/>
      <point x="906.1" y="0.0" type="line"/>
      <point x="906.1" y="144.0" type="line"/>
      <point x="594.7" y="144.0" type="line"/>
      <point x="584.8" y="261.90000000000003" type="line"/>
      <point x="907.0" y="710.1" type="line"/>
      <point x="1087.9" y="710.1" type="line"/>
    </contour>
    <contour>
      <point x="757.6" y="290.7" type="line"/>
      <point x="906.1" y="290.7" type="line"/>
      <point x="906.1" y="484.2" type="line"/>
      <point x="895.3000000000001" y="467.1" type="line"/>
    </contour>
    <component base="fraction" xOffset="14" yOffset="8"/>
  </outline>
</glyph>
<glyph name="onehalf" format="2">
  <advance width="1229"/>
  <unicode hex="00BD"/>
  <outline>
    <contour>
      <point x="375.4" y="752.0" type="line"/>
      <point x="196.3" y="752.0" type="line"/>
      <point x="196.3" y="1249.7" type="line"/>
      <point x="24.400000000000034" y="1211.0" type="line"/>
      <point x="24.400000000000034" y="1351.4" type="line"/>
      <point x="358.30000000000007" y="1459.4" type="line"/>
      <point x="375.4" y="1459.4" type="line"/>
    </contour>
    <contour>
      <point x="1206.7" y="0.0" type="line"/>
      <point x="650.5" y="0.0" type="line"/>
      <point x="650.5" y="120.60000000000001" type="line"/>
      <point x="908.8000000000001" y="353.7" type="line" smooth="yes"/>
      <point x="931.3000000000001" y="373.5"/>
      <point x="964.6" y="410.40000000000003"/>
      <point x="976.3000000000001" y="427.5" type="qcurve" smooth="yes"/>
      <point x="990.7" y="449.1"/>
      <point x="1004.2" y="484.2"/>
      <point x="1004.2" y="496.8" type="qcurve" smooth="yes"/>
      <point x="1004.2" y="512.1"/>
      <point x="995.2" y="539.1"/>
      <point x="987.1" y="549.0" type="qcurve" smooth="yes"/>
      <point x="976.3000000000001" y="561.6"/>
      <point x="941.2" y="575.1"/>
      <point x="916.9" y="575.1" type="qcurve" smooth="yes"/>
      <point x="889.0" y="575.1"/>
      <point x="848.5" y="556.2"/>
      <point x="835.9000000000001" y="540.0" type="qcurve" smooth="yes"/>
      <point x="825.1" y="526.5"/>
      <point x="815.2" y="492.3"/>
      <point x="815.2" y="474.3" type="qcurve"/>
      <point x="634.3" y="474.3" type="line"/>
      <point x="634.3" y="524.7"/>
      <point x="672.1" y="613.8000000000001"/>
      <point x="708.1" y="648.0" type="qcurve" smooth="yes" name="inserted"/>
      <point x="744.1" y="681.3000000000001"/>
      <point x="844.9000000000001" y="720.0"/>
      <point x="908.8000000000001" y="720.0" type="qcurve" smooth="yes"/>
      <point x="978.1" y="720.0"/>
      <point x="1086.1" y="687.6"/>
      <point x="1121.2" y="656.1" type="qcurve" smooth="yes"/>
      <point x="1152.7" y="628.2"/>
      <point x="1186.0" y="548.1"/>
      <point x="1186.0" y="497.7" type="qcurve" smooth="yes"/>
      <point x="1186.0" y="458.1"/>
      <point x="1161.7" y="393.3"/>
      <point x="1137.4" y="361.8" type="qcurve" smooth="yes" name="inserted"/>
      <point x="1113.1" y="330.3"/>
      <point x="1041.1" y="265.5"/>
      <point x="992.5" y="226.8" type="qcurve" smooth="yes"/>
      <point x="887.2" y="143.1" type="line"/>
      <point x="1206.7" y="143.1" type="line"/>
    </contour>
    <component base="fraction" xOffset="-55" yOffset="8"/>
  </outline>
</glyph>
<glyph name="threequarters" format="2">
  <advance width="1229"/>
  <unicode hex="00BE"/>
  <outline>
    <contour>
      <point x="1135.9" y="290.7" type="line"/>
      <point x="1217.8000000000002" y="290.7" type="line"/>
      <point x="1217.8000000000002" y="144.0" type="line"/>
      <point x="1135.9" y="144.0" type="line"/>
      <point x="1135.9" y="0.0" type="line"/>
      <point x="954.1" y="0.0" type="line"/>
      <point x="954.1" y="144.0" type="line"/>
      <point x="642.7" y="144.0" type="line"/>
      <point x="632.8" y="261.90000000000003" type="line"/>
      <point x="955.0" y="710.1" type="line"/>
      <point x="1135.9" y="710.1" type="line"/>
    </contour>
    <contour>
      <point x="805.6" y="290.7" type="line"/>
      <point x="954.1" y="290.7" type="line"/>
      <point x="954.1" y="484.2" type="line"/>
      <point x="943.3000000000001" y="467.1" type="line"/>
    </contour>
    <contour>
      <point x="233.0" y="1166.1" type="line"/>
      <point x="312.20000000000005" y="1166.1" type="line" smooth="yes"/>
      <point x="338.30000000000007" y="1166.1"/>
      <point x="377.9" y="1176.9"/>
      <point x="390.5" y="1186.8" type="qcurve" smooth="yes"/>
      <point x="404.0" y="1197.6"/>
      <point x="416.6" y="1228.2"/>
      <point x="416.6" y="1247.1" type="qcurve" smooth="yes"/>
      <point x="416.6" y="1260.6"/>
      <point x="405.80000000000007" y="1285.8000000000002"/>
      <point x="395.0" y="1296.6" type="qcurve" smooth="yes" name="inserted"/>
      <point x="383.30000000000007" y="1306.5"/>
      <point x="346.4" y="1319.1"/>
      <point x="319.4" y="1319.1" type="qcurve" smooth="yes"/>
      <point x="298.70000000000005" y="1319.1"/>
      <point x="262.7" y="1310.1"/>
      <point x="250.10000000000002" y="1302.0" type="qcurve" smooth="yes"/>
      <point x="238.40000000000003" y="1294.8000000000002"/>
      <point x="225.8" y="1274.1"/>
      <point x="225.8" y="1261.5" type="qcurve"/>
      <point x="44.900000000000034" y="1261.5" type="line"/>
      <point x="44.900000000000034" y="1311.0"/>
      <point x="89.0" y="1386.6"/>
      <point x="125.90000000000003" y="1412.7" type="qcurve" smooth="yes" name="inserted"/>
      <point x="162.8" y="1437.9"/>
      <point x="260.0" y="1464.0"/>
      <point x="314.0" y="1464.0" type="qcurve" smooth="yes"/>
      <point x="377.0" y="1464.0"/>
      <point x="481.4" y="1437.9"/>
      <point x="518.3000000000001" y="1412.7" type="qcurve" smooth="yes" name="inserted"/>
      <point x="555.2" y="1386.6"/>
      <point x="596.6" y="1310.1"/>
      <point x="596.6" y="1260.6" type="qcurve" smooth="yes"/>
      <point x="596.6" y="1227.3"/>
      <point x="572.3000000000001" y="1173.3"/>
      <point x="550.7" y="1151.7" type="qcurve" smooth="yes"/>
      <point x="535.4" y="1138.2"/>
      <point x="497.6" y="1115.7"/>
      <point x="475.1" y="1107.6" type="qcurve"/>
      <point x="502.1" y="1100.4"/>
      <point x="546.2" y="1078.8"/>
      <point x="563.3000000000001" y="1063.5" type="qcurve" smooth="yes"/>
      <point x="585.8000000000001" y="1042.8"/>
      <point x="610.1" y="983.4"/>
      <point x="610.1" y="942.9" type="qcurve" smooth="yes"/>
      <point x="610.1" y="892.5"/>
      <point x="565.1" y="815.1"/>
      <point x="525.5" y="789.0" type="qcurve" smooth="yes" name="inserted"/>
      <point x="485.0" y="762.0"/>
      <point x="377.0" y="734.1"/>
      <point x="314.0" y="734.1" type="qcurve" smooth="yes"/>
      <point x="263.6" y="734.1"/>
      <point x="163.7" y="757.5"/>
      <point x="124.10000000000002" y="784.5" type="qcurve" smooth="yes" name="inserted"/>
      <point x="83.60000000000002" y="810.6"/>
      <point x="33.19999999999999" y="894.3"/>
      <point x="33.19999999999999" y="954.6" type="qcurve"/>
      <point x="215.0" y="954.6" type="line"/>
      <point x="215.0" y="940.2"/>
      <point x="228.5" y="913.2"/>
      <point x="242.0" y="902.4" type="qcurve" smooth="yes"/>
      <point x="255.5" y="891.6"/>
      <point x="297.80000000000007" y="878.1"/>
      <point x="324.80000000000007" y="878.1" type="qcurve" smooth="yes"/>
      <point x="353.6" y="878.1"/>
      <point x="393.20000000000005" y="892.5"/>
      <point x="405.80000000000007" y="904.2" type="qcurve" smooth="yes"/>
      <point x="417.5" y="915.0"/>
      <point x="428.30000000000007" y="943.8"/>
      <point x="428.30000000000007" y="959.1" type="qcurve" smooth="yes"/>
      <point x="428.30000000000007" y="977.1"/>
      <point x="419.30000000000007" y="1004.1"/>
      <point x="411.20000000000005" y="1014.0" type="qcurve" smooth="yes"/>
      <point x="396.80000000000007" y="1030.2"/>
      <point x="346.4" y="1044.6"/>
      <point x="312.20000000000005" y="1044.6" type="qcurve" smooth="yes"/>
      <point x="233.0" y="1044.6" type="line"/>
    </contour>
    <component base="fraction" xOffset="98" yOffset="8"/>
  </outline>
</glyph>
<glyph name="questiondown" format="2">
  <advance width="1229"/>
  <unicode hex="00BF"/>
  <outline>
    <contour>
      <point x="791" y="639" type="line"/>
      <point x="791" y="571"/>
      <point x="786" y="474"/>
      <point x="774" y="437" type="qcurve" smooth="yes" name="inserted"/>
      <point x="762" y="399"/>
      <point x="711" y="335"/>
      <point x="663" y="299" type="qcurve"/>
      <point x="631" y="266"/>
      <point x="566" y="195"/>
      <point x="540" y="158" type="qcurve" smooth="yes" name="inserted"/>
      <point x="514" y="120"/>
      <point x="481" y="41"/>
      <point x="481" y="-1" type="qcurve" smooth="yes"/>
      <point x="481" y="-41"/>
      <point x="502" y="-102"/>
      <point x="522" y="-123" type="qcurve" smooth="yes"/>
      <point x="542" y="-144"/>
      <point x="604" y="-165"/>
      <point x="642" y="-165" type="qcurve" smooth="yes"/>
      <point x="677" y="-165"/>
      <point x="740" y="-146"/>
      <point x="764" y="-126" type="qcurve" smooth="yes" name="inserted"/>
      <point x="788" y="-106"/>
      <point x="817" y="-42"/>
      <point x="818" y="3" type="qcurve"/>
      <point x="1097" y="3" type="line"/>
      <point x="1095" y="-98"/>
      <point x="1025" y="-247"/>
      <point x="965" y="-296" type="qcurve" smooth="yes" name="inserted"/>
      <point x="905" y="-345"/>
      <point x="741" y="-393"/>
      <point x="647" y="-393" type="qcurve" smooth="yes"/>
      <point x="542" y="-393"/>
      <point x="377" y="-342"/>
      <point x="320" y="-292" type="qcurve" smooth="yes" name="inserted"/>
      <point x="263" y="-243"/>
      <point x="202" y="-97"/>
      <point x="202" y="-2" type="qcurve" smooth="yes"/>
      <point x="202" y="68"/>
      <point x="248" y="186"/>
      <point x="286" y="238" type="qcurve" smooth="yes" name="inserted"/>
      <point x="323" y="289"/>
      <point x="417" y="381"/>
      <point x="464" y="425" type="qcurve" smooth="yes"/>
      <point x="495" y="454"/>
      <point x="526" y="498"/>
      <point x="533" y="521" type="qcurve" smooth="yes" name="inserted"/>
      <point x="540" y="544"/>
      <point x="541" y="599"/>
      <point x="542" y="639" type="qcurve"/>
    </contour>
    <contour>
      <point x="538" y="942" type="qcurve" smooth="yes"/>
      <point x="538.0" y="997.9999999999999"/>
      <point x="594.0" y="1076.0"/>
      <point x="670" y="1076" type="qcurve" smooth="yes"/>
      <point x="744.9705381304516" y="1076.0"/>
      <point x="805.0" y="998.7796730533281"/>
      <point x="805" y="942" type="qcurve" smooth="yes"/>
      <point x="805.0" y="889.2274314266343"/>
      <point x="744.9034445571613" y="817.0"/>
      <point x="670" y="817" type="qcurve" smooth="yes"/>
      <point x="594.0000000000001" y="817.0"/>
      <point x="538.0" y="890.0"/>
    </contour>
  </outline>
</glyph>
<glyph name="Eth" format="2">
  <advance width="1229"/>
  <unicode hex="00D0"/>
  <outline>
    <contour>
      <point x="140" y="0" type="line"/>
      <point x="140" y="643" type="line"/>
      <point x="-42" y="643" type="line"/>
      <point x="-42" y="823" type="line"/>
      <point x="140" y="823" type="line"/>
      <point x="140" y="1456" type="line"/>
      <point x="517" y="1456" type="line" smooth="yes"/>
      <point x="662" y="1456"/>
      <point x="897" y="1357"/>
      <point x="981" y="1269" type="qcurve" smooth="yes" name="inserted"/>
      <point x="1064" y="1180"/>
      <point x="1155" y="934"/>
      <point x="1155" y="787" type="qcurve" smooth="yes"/>
      <point x="1155" y="667" type="line" smooth="yes"/>
      <point x="1155" y="520"/>
      <point x="1064" y="275"/>
      <point x="982.0" y="187" type="qcurve" smooth="yes" name="inserted"/>
      <point x="900" y="98"/>
      <point x="670" y="0"/>
      <point x="531" y="0" type="qcurve" smooth="yes"/>
    </contour>
    <contour>
      <point x="650" y="643" type="line"/>
      <point x="423" y="643" type="line"/>
      <point x="423" y="226" type="line"/>
      <point x="531" y="226" type="line" smooth="yes"/>
      <point x="610" y="226"/>
      <point x="735" y="286"/>
      <point x="779" y="343.0" type="qcurve" smooth="yes" name="inserted"/>
      <point x="822" y="400"/>
      <point x="868" y="563"/>
      <point x="868" y="667" type="qcurve" smooth="yes"/>
      <point x="868" y="789" type="line" smooth="yes"/>
      <point x="868" y="887"/>
      <point x="823" y="1048"/>
      <point x="779" y="1106.0" type="qcurve" smooth="yes" name="inserted"/>
      <point x="734" y="1164"/>
      <point x="603" y="1228"/>
      <point x="517" y="1228" type="qcurve" smooth="yes"/>
      <point x="423" y="1228" type="line"/>
      <point x="423" y="823" type="line"/>
      <point x="650" y="823" type="line"/>
    </contour>
  </outline>
</glyph>
<glyph name="Oslash" format="2">
  <advance width="1229"/>
  <unicode hex="00D8"/>
  <outline>
    <contour>
      <point x="1152" y="621" type="line" smooth="yes"/>
      <point x="1152" y="481"/>
      <point x="1078" y="245"/>
      <point x="1008" y="160" type="qcurve" smooth="yes" name="inserted"/>
      <point x="938" y="75"/>
      <point x="737" y="-20"/>
      <point x="611" y="-20" type="qcurve" smooth="yes"/>
      <point x="525" y="-20"/>
      <point x="381" y="23"/>
      <point x="322" y="65" type="qcurve"/>
      <point x="231" y="-95" type="line"/>
      <point x="48" y="-95" type="line"/>
      <point x="205" y="183" type="line"/>
      <point x="175" y="225"/>
      <point x="130" y="323"/>
      <point x="115" y="377" type="qcurve" smooth="yes"/>
      <point x="100" y="432"/>
      <point x="85" y="555"/>
      <point x="85" y="621" type="qcurve" smooth="yes"/>
      <point x="85" y="833" type="line" smooth="yes"/>
      <point x="85" y="973"/>
      <point x="155" y="1209"/>
      <point x="222" y="1295" type="qcurve" smooth="yes" name="inserted"/>
      <point x="289" y="1380"/>
      <point x="484" y="1476"/>
      <point x="610" y="1476" type="qcurve" smooth="yes"/>
      <point x="655" y="1476"/>
      <point x="739" y="1464"/>
      <point x="777" y="1452" type="qcurve" smooth="yes"/>
      <point x="807" y="1442"/>
      <point x="865" y="1415"/>
      <point x="891" y="1398" type="qcurve"/>
      <point x="959" y="1518" type="line"/>
      <point x="1143" y="1518" type="line"/>
      <point x="1013" y="1288" type="line"/>
      <point x="1081" y="1202"/>
      <point x="1152" y="971"/>
      <point x="1152" y="833" type="qcurve" smooth="yes"/>
    </contour>
    <contour>
      <point x="370" y="621" type="line" smooth="yes"/>
      <point x="370" y="600"/>
      <point x="371" y="560"/>
      <point x="373" y="541" type="qcurve" smooth="yes"/>
      <point x="374" y="528"/>
      <point x="376" y="502"/>
      <point x="378" y="489" type="qcurve"/>
      <point x="768" y="1180" type="line"/>
      <point x="753" y="1195"/>
      <point x="720" y="1218"/>
      <point x="701" y="1226" type="qcurve" smooth="yes"/>
      <point x="681" y="1234"/>
      <point x="635" y="1243"/>
      <point x="610" y="1243" type="qcurve" smooth="yes"/>
      <point x="542" y="1243"/>
      <point x="450" y="1182"/>
      <point x="422" y="1128" type="qcurve" smooth="yes" name="inserted"/>
      <point x="394" y="1074"/>
      <point x="370" y="924"/>
      <point x="370" y="835" type="qcurve" smooth="yes"/>
    </contour>
    <contour>
      <point x="867" y="835" type="line" smooth="yes"/>
      <point x="867" y="880"/>
      <point x="859" y="964"/>
      <point x="851" y="1002" type="qcurve"/>
      <point x="447" y="287" type="line"/>
      <point x="476" y="251"/>
      <point x="556" y="211"/>
      <point x="611" y="211" type="qcurve" smooth="yes"/>
      <point x="679" y="211"/>
      <point x="776" y="273"/>
      <point x="807" y="328" type="qcurve" smooth="yes" name="inserted"/>
      <point x="837" y="382"/>
      <point x="867" y="532"/>
      <point x="867" y="621" type="qcurve" smooth="yes"/>
    </contour>
  </outline>
</glyph>
<glyph name="Thorn" format="2">
  <advance width="1229"/>
  <unicode hex="00DE"/>
  <outline>
    <contour>
      <point x="415" y="1456" type="line"/>
      <point x="415" y="1185" type="line"/>
      <point x="642" y="1185" type="line" smooth="yes"/>
      <point x="771" y="1185"/>
      <point x="969" y="1118"/>
      <point x="1036.5" y="1059.0" type="qcurve" smooth="yes" name="inserted"/>
      <point x="1104" y="1000"/>
      <point x="1174" y="835"/>
      <point x="1174" y="738" type="qcurve" smooth="yes"/>
      <point x="1174" y="640"/>
      <point x="1104" y="475"/>
      <point x="1036.5" y="415.5" type="qcurve" smooth="yes" name="inserted"/>
      <point x="969" y="356"/>
      <point x="771" y="289"/>
      <point x="642" y="289" type="qcurve" smooth="yes"/>
      <point x="415" y="289" type="line"/>
      <point x="415" y="0" type="line"/>
      <point x="136" y="0" type="line"/>
      <point x="136" y="1456" type="line"/>
    </contour>
    <contour>
      <point x="415" y="961" type="line"/>
      <point x="415" y="513" type="line"/>
      <point x="642" y="513" type="line" smooth="yes"/>
      <point x="710" y="513"/>
      <point x="806" y="550"/>
      <point x="836.5" y="581.0" type="qcurve" smooth="yes" name="inserted"/>
      <point x="867" y="612"/>
      <point x="895" y="693"/>
      <point x="895" y="736" type="qcurve" smooth="yes"/>
      <point x="895" y="779"/>
      <point x="867" y="861"/>
      <point x="836.5" y="892.0" type="qcurve" smooth="yes" name="inserted"/>
      <point x="806" y="923"/>
      <point x="710" y="961"/>
      <point x="642" y="961" type="qcurve" smooth="yes"/>
    </contour>
  </outline>
</glyph>
<glyph name="germandbls" format="2">
  <advance width="1229"/>
  <unicode hex="00DF"/>
  <outline>
    <contour>
      <point x="439" y="0" type="line"/>
      <point x="162" y="0" type="line"/>
      <point x="162" y="1076" type="line" smooth="yes"/>
      <point x="162" y="1194"/>
      <point x="231" y="1376"/>
      <point x="293" y="1438" type="qcurve" smooth="yes" name="inserted"/>
      <point x="354" y="1499"/>
      <point x="525" y="1562"/>
      <point x="627" y="1562" type="qcurve" smooth="yes"/>
      <point x="706" y="1562"/>
      <point x="850" y="1517"/>
      <point x="905" y="1471" type="qcurve" smooth="yes" name="inserted"/>
      <point x="959" y="1425"/>
      <point x="1024" y="1288"/>
      <point x="1024" y="1196" type="qcurve" smooth="yes"/>
      <point x="1024" y="1118"/>
      <point x="987" y="1028"/>
      <point x="968" y="995" type="qcurve" smooth="yes"/>
      <point x="947" y="962"/>
      <point x="914" y="889"/>
      <point x="914" y="832" type="qcurve" smooth="yes"/>
      <point x="914" y="797"/>
      <point x="954" y="733"/>
      <point x="984" y="701" type="qcurve" smooth="yes" name="inserted"/>
      <point x="1013" y="668"/>
      <point x="1082" y="597"/>
      <point x="1112" y="556" type="qcurve" smooth="yes" name="inserted"/>
      <point x="1141" y="514"/>
      <point x="1181" y="413"/>
      <point x="1181" y="350" type="qcurve" smooth="yes"/>
      <point x="1181" y="261"/>
      <point x="1128" y="122"/>
      <point x="1077" y="75" type="qcurve" smooth="yes" name="inserted"/>
      <point x="1026" y="28"/>
      <point x="877" y="-21"/>
      <point x="782" y="-21" type="qcurve" smooth="yes"/>
      <point x="743" y="-21"/>
      <point x="661" y="-13"/>
      <point x="623" y="-5" type="qcurve" smooth="yes" name="inserted"/>
      <point x="585" y="2"/>
      <point x="521" y="23"/>
      <point x="500" y="37" type="qcurve"/>
      <point x="554" y="258" type="line"/>
      <point x="570" y="249"/>
      <point x="616" y="229"/>
      <point x="645" y="221" type="qcurve" smooth="yes" name="inserted"/>
      <point x="673" y="213"/>
      <point x="739" y="202"/>
      <point x="774" y="202" type="qcurve" smooth="yes"/>
      <point x="803" y="202"/>
      <point x="849" y="220"/>
      <point x="866" y="237" type="qcurve" smooth="yes"/>
      <point x="884" y="255"/>
      <point x="903" y="310"/>
      <point x="903" y="344" type="qcurve" smooth="yes"/>
      <point x="903" y="385"/>
      <point x="863" y="452"/>
      <point x="834" y="484" type="qcurve" smooth="yes" name="inserted"/>
      <point x="804" y="515"/>
      <point x="735" y="580"/>
      <point x="706" y="619" type="qcurve" smooth="yes" name="inserted"/>
      <point x="676" y="658"/>
      <point x="636" y="756"/>
      <point x="636" y="821" type="qcurve" smooth="yes"/>
      <point x="636" y="890"/>
      <point x="678" y="985"/>
      <point x="703" y="1025" type="qcurve" smooth="yes"/>
      <point x="722" y="1056"/>
      <point x="750" y="1129"/>
      <point x="750" y="1180" type="qcurve" smooth="yes"/>
      <point x="750" y="1217"/>
      <point x="725" y="1276"/>
      <point x="705" y="1297" type="qcurve" smooth="yes" name="inserted"/>
      <point x="685" y="1317"/>
      <point x="635" y="1339"/>
      <point x="610" y="1339" type="qcurve" smooth="yes"/>
      <point x="575" y="1339"/>
      <point x="512" y="1308"/>
      <point x="489" y="1276" type="qcurve" smooth="yes" name="inserted"/>
      <point x="466" y="1243"/>
      <point x="439" y="1142"/>
      <point x="439" y="1072" type="qcurve" smooth="yes"/>
    </contour>
  </outline>
</glyph>
<glyph name="eth" format="2">
  <advance width="1229"/>
  <unicode hex="00F0"/>
  <outline>
    <contour>
      <point x="899" y="1264" type="line"/>
      <point x="994" y="1149"/>
      <point x="1101" y="839"/>
      <point x="1101" y="647" type="qcurve"/>
      <point x="1101" y="579" type="line"/>
      <point x="1101" y="501"/>
      <point x="1072" y="359"/>
      <point x="1046" y="299" type="qcurve" smooth="yes"/>
      <point x="1010.1024721227417" y="215.8688828105598"/>
      <point x="896.2304443994689" y="88.36407187029153"/>
      <point x="824" y="48" type="qcurve" smooth="yes"/>
      <point x="766" y="14"/>
      <point x="631" y="-21"/>
      <point x="558" y="-21" type="qcurve" smooth="yes"/>
      <point x="442" y="-21"/>
      <point x="250" y="55"/>
      <point x="182" y="122" type="qcurve" smooth="yes" name="inserted"/>
      <point x="113" y="188"/>
      <point x="38" y="366"/>
      <point x="38" y="468" type="qcurve" smooth="yes"/>
      <point x="38" y="580"/>
      <point x="107" y="764"/>
      <point x="171" y="830" type="qcurve" smooth="yes" name="inserted"/>
      <point x="234" y="895"/>
      <point x="416" y="967"/>
      <point x="530" y="967" type="qcurve" smooth="yes"/>
      <point x="605" y="967"/>
      <point x="740" y="921"/>
      <point x="794" y="879" type="qcurve"/>
      <point x="773" y="958"/>
      <point x="705" y="1084"/>
      <point x="661" y="1133" type="qcurve"/>
      <point x="419" y="1000" type="line"/>
      <point x="341" y="1112" type="line"/>
      <point x="552" y="1229" type="line"/>
      <point x="519" y="1251"/>
      <point x="449" y="1285"/>
      <point x="414" y="1298" type="qcurve"/>
      <point x="502" y="1515" type="line"/>
      <point x="586" y="1494" name="inserted"/>
      <point x="734" y="1419"/>
      <point x="799" y="1365" type="qcurve"/>
      <point x="998" y="1475" type="line"/>
      <point x="1076" y="1362" type="line"/>
    </contour>
    <contour>
      <point x="562" y="202" type="qcurve" smooth="yes"/>
      <point x="600" y="202"/>
      <point x="668" y="224"/>
      <point x="696" y="244" type="qcurve" smooth="yes"/>
      <point x="729.072593274267" y="268.8044449557002"/>
      <point x="780.502603562112" y="339.50781068633586"/>
      <point x="796" y="386" type="qcurve" smooth="yes"/>
      <point x="809" y="422"/>
      <point x="822" y="507"/>
      <point x="822" y="554" type="qcurve"/>
      <point x="822" y="619" type="line"/>
      <point x="822" y="626"/>
      <point x="822" y="641"/>
      <point x="822" y="661" type="qcurve"/>
      <point x="790" y="699"/>
      <point x="651" y="755"/>
      <point x="544" y="755" type="qcurve" smooth="yes"/>
      <point x="490" y="755"/>
      <point x="406" y="707"/>
      <point x="377" y="668" type="qcurve" smooth="yes" name="inserted"/>
      <point x="347" y="628"/>
      <point x="316" y="524"/>
      <point x="316" y="468" type="qcurve" smooth="yes"/>
      <point x="316" y="414"/>
      <point x="349" y="318"/>
      <point x="381" y="282" type="qcurve" smooth="yes" name="inserted"/>
      <point x="412" y="245"/>
      <point x="503" y="202"/>
    </contour>
  </outline>
</glyph>
<glyph name="oslash" format="2">
  <advance width="1229"/>
  <unicode hex="00F8"/>
  <outline>
    <contour>
      <point x="103" y="551" type="line" smooth="yes"/>
      <point x="103" y="669"/>
      <point x="171" y="870"/>
      <point x="237" y="944" type="qcurve" smooth="yes" name="inserted"/>
      <point x="302" y="1018"/>
      <point x="491" y="1102"/>
      <point x="613" y="1102" type="qcurve" smooth="yes"/>
      <point x="665" y="1102" name="inserted"/>
      <point x="761" y="1086"/>
      <point x="804" y="1070" type="qcurve"/>
      <point x="875" y="1215" type="line"/>
      <point x="1032" y="1215" type="line"/>
      <point x="928" y="1002" type="line"/>
      <point x="970" y="970"/>
      <point x="1036" y="889"/>
      <point x="1060" y="842" type="qcurve" smooth="yes"/>
      <point x="1092" y="780"/>
      <point x="1124" y="633"/>
      <point x="1124" y="551" type="qcurve" smooth="yes"/>
      <point x="1124" y="530" type="line" smooth="yes"/>
      <point x="1124" y="411"/>
      <point x="1056" y="210"/>
      <point x="991" y="136" type="qcurve" smooth="yes" name="inserted"/>
      <point x="926" y="62"/>
      <point x="736" y="-21"/>
      <point x="615" y="-21" type="qcurve" smooth="yes"/>
      <point x="568" y="-21" name="inserted"/>
      <point x="481" y="-8"/>
      <point x="440" y="5" type="qcurve"/>
      <point x="369" y="-141" type="line"/>
      <point x="212" y="-141" type="line"/>
      <point x="314" y="67" type="line"/>
      <point x="211" y="139"/>
      <point x="103" y="380"/>
      <point x="103" y="530" type="qcurve" smooth="yes"/>
    </contour>
    <contour>
      <point x="381" y="530" type="line" smooth="yes"/>
      <point x="381" y="464"/>
      <point x="404" y="349"/>
      <point x="430" y="305" type="qcurve"/>
      <point x="701" y="860" type="line"/>
      <point x="681.5" y="868.5" name="inserted"/>
      <point x="637.5" y="877.0"/>
      <point x="613" y="877" type="qcurve" smooth="yes"/>
      <point x="551" y="877"/>
      <point x="463" y="825"/>
      <point x="435.0" y="780.0" type="qcurve" smooth="yes" name="inserted"/>
      <point x="407" y="735"/>
      <point x="381" y="617"/>
      <point x="381" y="551" type="qcurve" smooth="yes"/>
    </contour>
    <contour>
      <point x="845" y="551" type="line" smooth="yes"/>
      <point x="845" y="582"/>
      <point x="840" y="640"/>
      <point x="834" y="667" type="qcurve" smooth="yes"/>
      <point x="829" y="690"/>
      <point x="815" y="734"/>
      <point x="806" y="753" type="qcurve"/>
      <point x="542" y="213" type="line"/>
      <point x="560" y="208" name="inserted"/>
      <point x="596" y="202"/>
      <point x="615" y="202" type="qcurve" smooth="yes"/>
      <point x="676" y="202"/>
      <point x="764" y="254"/>
      <point x="792" y="299" type="qcurve" smooth="yes" name="inserted"/>
      <point x="819" y="343"/>
      <point x="845" y="462"/>
      <point x="845" y="530" type="qcurve" smooth="yes"/>
    </contour>
  </outline>
</glyph>
<glyph name="thorn" format="2">
  <advance width="1229"/>
  <unicode hex="00FE"/>
  <outline>
    <contour>
      <point x="1113" y="531" type="line" smooth="yes"/>
      <point x="1113" y="413"/>
      <point x="1058" y="211"/>
      <point x="1005" y="138" type="qcurve" smooth="yes" name="inserted"/>
      <point x="951" y="64"/>
      <point x="794" y="-20"/>
      <point x="692" y="-20" type="qcurve" smooth="yes"/>
      <point x="634" y="-20"/>
      <point x="537" y="6"/>
      <point x="497" y="31" type="qcurve" smooth="yes"/>
      <point x="477" y="44"/>
      <point x="440" y="76"/>
      <point x="423" y="95" type="qcurve"/>
      <point x="423" y="-416" type="line"/>
      <point x="145" y="-416" type="line"/>
      <point x="145" y="1543" type="line"/>
      <point x="423" y="1543" type="line"/>
      <point x="423" y="987" type="line"/>
      <point x="445" y="1012"/>
      <point x="496" y="1052"/>
      <point x="525" y="1066" type="qcurve" smooth="yes"/>
      <point x="560" y="1084"/>
      <point x="642" y="1102"/>
      <point x="690" y="1102" type="qcurve" smooth="yes"/>
      <point x="793" y="1102"/>
      <point x="951" y="1023"/>
      <point x="1005" y="951" type="qcurve" smooth="yes" name="inserted"/>
      <point x="1058" y="878"/>
      <point x="1113" y="675"/>
      <point x="1113" y="552" type="qcurve" smooth="yes"/>
    </contour>
    <contour>
      <point x="835" y="552" type="line" smooth="yes"/>
      <point x="835" y="620"/>
      <point x="810" y="739"/>
      <point x="784" y="783" type="qcurve" smooth="yes" name="inserted"/>
      <point x="758" y="826"/>
      <point x="674" y="876"/>
      <point x="616" y="876" type="qcurve" smooth="yes"/>
      <point x="585" y="876"/>
      <point x="531" y="865"/>
      <point x="510" y="855" type="qcurve" smooth="yes"/>
      <point x="481" y="841"/>
      <point x="438" y="796"/>
      <point x="423" y="766" type="qcurve"/>
      <point x="423" y="316" type="line"/>
      <point x="436" y="290"/>
      <point x="472" y="248"/>
      <point x="496" y="233" type="qcurve" smooth="yes"/>
      <point x="520" y="219"/>
      <point x="581" y="203"/>
      <point x="618" y="203" type="qcurve" smooth="yes"/>
      <point x="677" y="203"/>
      <point x="760" y="255"/>
      <point x="786" y="300" type="qcurve" smooth="yes" name="inserted"/>
      <point x="812" y="345"/>
      <point x="835" y="464"/>
      <point x="835" y="531" type="qcurve" smooth="yes"/>
    </contour>
  </outline>
</glyph>
<glyph name="Aogonek" format="2">
  <advance width="1229"/>
  <unicode hex="0104"/>
  <outline>
    <contour>
      <point x="760" y="1456" type="line"/>
      <point x="1228" y="0" type="line"/>
      <point x="1159" y="0" type="line"/>
      <point x="1114" y="-18"/>
      <point x="1054" y="-58"/>
      <point x="1036" y="-80" type="qcurve" smooth="yes" name="inserted"/>
      <point x="1018" y="-102"/>
      <point x="1003" y="-151"/>
      <point x="1003" y="-178" type="qcurve" smooth="yes"/>
      <point x="1003" y="-207"/>
      <point x="1033" y="-246"/>
      <point x="1070" y="-246" type="qcurve" smooth="yes"/>
      <point x="1099" y="-246"/>
      <point x="1139" y="-232"/>
      <point x="1153" y="-226" type="qcurve"/>
      <point x="1200" y="-380" type="line"/>
      <point x="1172" y="-395"/>
      <point x="1083" y="-424"/>
      <point x="1014" y="-424" type="qcurve" smooth="yes"/>
      <point x="968" y="-424"/>
      <point x="887" y="-397"/>
      <point x="857" y="-371" type="qcurve" smooth="yes" name="inserted"/>
      <point x="827" y="-345"/>
      <point x="792" y="-268"/>
      <point x="792" y="-217" type="qcurve" smooth="yes"/>
      <point x="792" y="-184"/>
      <point x="812" y="-117"/>
      <point x="832" y="-86" type="qcurve" smooth="yes"/>
      <point x="848" y="-59"/>
      <point x="897" y="-8"/>
      <point x="928" y="14" type="qcurve"/>
      <point x="847" y="304" type="line"/>
      <point x="410" y="304" type="line"/>
      <point x="324" y="0" type="line"/>
      <point x="28" y="0" type="line"/>
      <point x="505" y="1456" type="line"/>
    </contour>
    <contour>
      <point x="479" y="543" type="line"/>
      <point x="781" y="543" type="line"/>
      <point x="632" y="1079" type="line"/>
    </contour>
  </outline>
</glyph>
<glyph name="dcroat" format="2">
  <advance width="1259"/>
  <unicode hex="0111"/>
  <outline>
    <contour>
      <point x="1249" y="1220" type="line"/>
      <point x="1080" y="1220" type="line"/>
      <point x="1080" y="0" type="line"/>
      <point x="829" y="0" type="line"/>
      <point x="815" y="113" type="line"/>
      <point x="795" y="88"/>
      <point x="748" y="46"/>
      <point x="722" y="30" type="qcurve" smooth="yes"/>
      <point x="683" y="6"/>
      <point x="590" y="-20"/>
      <point x="535" y="-20" type="qcurve" smooth="yes"/>
      <point x="436" y="-20"/>
      <point x="279" y="63"/>
      <point x="225" y="136" type="qcurve" smooth="yes" name="inserted"/>
      <point x="170" y="209"/>
      <point x="112" y="410"/>
      <point x="112" y="528" type="qcurve" smooth="yes"/>
      <point x="112" y="549" type="line" smooth="yes"/>
      <point x="112" y="672"/>
      <point x="169" y="876"/>
      <point x="224" y="949" type="qcurve" smooth="yes" name="inserted"/>
      <point x="279" y="1022"/>
      <point x="436" y="1102"/>
      <point x="537" y="1102" type="qcurve" smooth="yes"/>
      <point x="593" y="1102"/>
      <point x="688" y="1075"/>
      <point x="728" y="1049" type="qcurve" smooth="yes"/>
      <point x="747" y="1036"/>
      <point x="784" y="1004"/>
      <point x="801" y="985" type="qcurve"/>
      <point x="801" y="1220" type="line"/>
      <point x="557" y="1220" type="line"/>
      <point x="557" y="1400" type="line"/>
      <point x="801" y="1400" type="line"/>
      <point x="801" y="1536" type="line"/>
      <point x="1080" y="1536" type="line"/>
      <point x="1080" y="1400" type="line"/>
      <point x="1249" y="1400" type="line"/>
    </contour>
    <contour>
      <point x="390" y="528" type="line" smooth="yes"/>
      <point x="390" y="460"/>
      <point x="413" y="343"/>
      <point x="439" y="300" type="qcurve" smooth="yes" name="inserted"/>
      <point x="465" y="256"/>
      <point x="547" y="206"/>
      <point x="606" y="206" type="qcurve" smooth="yes"/>
      <point x="643" y="206"/>
      <point x="704" y="223"/>
      <point x="728" y="238" type="qcurve" smooth="yes"/>
      <point x="751" y="253"/>
      <point x="787" y="296"/>
      <point x="801" y="322" type="qcurve"/>
      <point x="801" y="760" type="line"/>
      <point x="786" y="789"/>
      <point x="746" y="835"/>
      <point x="719" y="850" type="qcurve" smooth="yes"/>
      <point x="697" y="862"/>
      <point x="641" y="876"/>
      <point x="608" y="876" type="qcurve" smooth="yes"/>
      <point x="549" y="876"/>
      <point x="466" y="825"/>
      <point x="440" y="781" type="qcurve" smooth="yes" name="inserted"/>
      <point x="414" y="736"/>
      <point x="390" y="617"/>
      <point x="390" y="549" type="qcurve" smooth="yes"/>
    </contour>
  </outline>
</glyph>
<glyph name="Eogonek" format="2">
  <advance width="1229"/>
  <unicode hex="0118"/>
  <outline>
    <contour>
      <point x="1027" y="638" type="line"/>
      <point x="429" y="638" type="line"/>
      <point x="429" y="227" type="line"/>
      <point x="1128" y="227" type="line"/>
      <point x="1128" y="0" type="line"/>
      <point x="1003" y="0" type="line"/>
      <point x="958" y="-18"/>
      <point x="898" y="-58"/>
      <point x="880" y="-80" type="qcurve" smooth="yes" name="inserted"/>
      <point x="862" y="-102"/>
      <point x="847" y="-151"/>
      <point x="847" y="-178" type="qcurve" smooth="yes"/>
      <point x="847" y="-207"/>
      <point x="877" y="-246"/>
      <point x="914" y="-246" type="qcurve" smooth="yes"/>
      <point x="943" y="-246"/>
      <point x="983" y="-232"/>
      <point x="997" y="-226" type="qcurve"/>
      <point x="1044" y="-380" type="line"/>
      <point x="1016" y="-395"/>
      <point x="927" y="-424"/>
      <point x="858" y="-424" type="qcurve" smooth="yes"/>
      <point x="812" y="-424"/>
      <point x="731" y="-397"/>
      <point x="701" y="-371" type="qcurve" smooth="yes" name="inserted"/>
      <point x="671" y="-345"/>
      <point x="636" y="-268"/>
      <point x="636" y="-217" type="qcurve" smooth="yes"/>
      <point x="636" y="-184"/>
      <point x="656" y="-118"/>
      <point x="675" y="-87" type="qcurve" smooth="yes"/>
      <point x="690" y="-64"/>
      <point x="729" y="-20"/>
      <point x="753" y="0" type="qcurve"/>
      <point x="147" y="0" type="line"/>
      <point x="147" y="1456" type="line"/>
      <point x="1125" y="1456" type="line"/>
      <point x="1125" y="1227" type="line"/>
      <point x="429" y="1227" type="line"/>
      <point x="429" y="860" type="line"/>
      <point x="1027" y="860" type="line"/>
    </contour>
  </outline>
</glyph>
<glyph name="eogonek" format="2">
  <advance width="1229"/>
  <unicode hex="0119"/>
  <outline>
    <contour>
      <point x="112" y="503" type="qcurve" smooth="yes"/>
      <point x="112" y="543" type="line" smooth="yes"/>
      <point x="112" y="667"/>
      <point x="190" y="872"/>
      <point x="260" y="946" type="qcurve" smooth="yes" name="inserted"/>
      <point x="330" y="1020"/>
      <point x="522" y="1102"/>
      <point x="635" y="1102" type="qcurve" smooth="yes"/>
      <point x="752" y="1102"/>
      <point x="935" y="1025"/>
      <point x="999" y="955" type="qcurve" smooth="yes" name="inserted"/>
      <point x="1062" y="885"/>
      <point x="1128" y="688"/>
      <point x="1128" y="569" type="qcurve" smooth="yes"/>
      <point x="1128" y="451" type="line"/>
      <point x="393" y="451" type="line"/>
      <point x="394" y="446" type="line"/>
      <point x="402" y="395"/>
      <point x="451" y="305"/>
      <point x="489" y="272" type="qcurve" smooth="yes" name="inserted"/>
      <point x="527" y="239"/>
      <point x="625" y="203"/>
      <point x="683" y="203" type="qcurve" smooth="yes"/>
      <point x="765" y="203"/>
      <point x="919" y="265"/>
      <point x="967" y="327" type="qcurve"/>
      <point x="1106" y="177" type="line"/>
      <point x="1075" y="133"/>
      <point x="968" y="49"/>
      <point x="895" y="22" type="qcurve" smooth="yes"/>
      <point x="850" y="6"/>
      <point x="793" y="-35"/>
      <point x="775" y="-57" type="qcurve" smooth="yes" name="inserted"/>
      <point x="757" y="-79"/>
      <point x="742" y="-128"/>
      <point x="742" y="-155" type="qcurve" smooth="yes"/>
      <point x="742" y="-184"/>
      <point x="772" y="-223"/>
      <point x="809" y="-223" type="qcurve" smooth="yes"/>
      <point x="838" y="-223"/>
      <point x="878" y="-209"/>
      <point x="892" y="-203" type="qcurve"/>
      <point x="939" y="-357" type="line"/>
      <point x="911" y="-372"/>
      <point x="822" y="-401"/>
      <point x="753" y="-401" type="qcurve" smooth="yes"/>
      <point x="707" y="-401"/>
      <point x="626" y="-374"/>
      <point x="596" y="-348" type="qcurve" smooth="yes" name="inserted"/>
      <point x="566" y="-322"/>
      <point x="531" y="-245"/>
      <point x="531" y="-194" type="qcurve" smooth="yes"/>
      <point x="531" y="-151"/>
      <point x="569" y="-57"/>
      <point x="612" y="-19" type="qcurve"/>
      <point x="609" y="-19"/>
      <point x="605" y="-18"/>
      <point x="600" y="-17" type="qcurve"/>
      <point x="494" y="-7"/>
      <point x="311" y="81"/>
      <point x="247" y="151" type="qcurve" smooth="yes" name="inserted"/>
      <point x="182" y="220"/>
      <point x="112" y="401"/>
    </contour>
    <contour>
      <point x="633" y="877" type="qcurve" smooth="yes"/>
      <point x="586" y="877"/>
      <point x="508" y="844"/>
      <point x="479" y="813" type="qcurve" smooth="yes" name="inserted"/>
      <point x="449" y="782"/>
      <point x="409" y="696"/>
      <point x="399" y="643" type="qcurve"/>
      <point x="855" y="643" type="line"/>
      <point x="855" y="665" type="line" smooth="yes"/>
      <point x="853" y="709"/>
      <point x="823" y="787"/>
      <point x="795" y="816" type="qcurve" smooth="yes" name="inserted"/>
      <point x="767" y="844"/>
      <point x="686" y="877"/>
    </contour>
  </outline>
</glyph>
<glyph name="hbar" format="2">
  <advance width="1259"/>
  <unicode hex="0127"/>
  <outline>
    <contour>
      <point x="703" y="1216" type="line"/>
      <point x="449" y="1216" type="line"/>
      <point x="449" y="933" type="line"/>
      <point x="471" y="966"/>
      <point x="525" y="1021"/>
      <point x="555" y="1041" type="qcurve" smooth="yes"/>
      <point x="598" y="1070"/>
      <point x="698" y="1102"/>
      <point x="754" y="1102" type="qcurve" smooth="yes"/>
      <point x="839" y="1102"/>
      <point x="981" y="1051"/>
      <point x="1032" y="997" type="qcurve" smooth="yes" name="inserted"/>
      <point x="1083" y="943"/>
      <point x="1140" y="774"/>
      <point x="1140" y="655" type="qcurve" smooth="yes"/>
      <point x="1140" y="0" type="line"/>
      <point x="862" y="0" type="line"/>
      <point x="862" y="657" type="line" smooth="yes"/>
      <point x="862" y="715"/>
      <point x="833" y="799"/>
      <point x="806" y="825" type="qcurve" smooth="yes" name="inserted"/>
      <point x="779" y="851"/>
      <point x="703" y="876"/>
      <point x="655" y="876" type="qcurve" smooth="yes"/>
      <point x="624" y="876"/>
      <point x="570" y="866"/>
      <point x="547" y="857" type="qcurve" smooth="yes"/>
      <point x="517" y="845"/>
      <point x="468" y="806"/>
      <point x="449" y="781" type="qcurve"/>
      <point x="449" y="0" type="line"/>
      <point x="171" y="0" type="line"/>
      <point x="171" y="1216" type="line"/>
      <point x="11" y="1216" type="line"/>
      <point x="11" y="1396" type="line"/>
      <point x="171" y="1396" type="line"/>
      <point x="171" y="1536" type="line"/>
      <point x="449" y="1536" type="line"/>
      <point x="449" y="1396" type="line"/>
      <point x="703" y="1396" type="line"/>
    </contour>
  </outline>
</glyph>
<glyph name="dotlessi" format="2">
  <advance width="1229"/>
  <unicode hex="0131"/>
  <outline>
    <contour>
      <point x="199" y="1082" type="line"/>
      <point x="804" y="1082" type="line"/>
      <point x="804" y="226" type="line"/>
      <point x="1114" y="226" type="line"/>
      <point x="1114" y="0" type="line"/>
      <point x="199" y="0" type="line"/>
      <point x="199" y="226" type="line"/>
      <point x="523" y="226" type="line"/>
      <point x="523" y="855" type="line"/>
      <point x="199" y="855" type="line"/>
    </contour>
  </outline>
</glyph>
<glyph name="Eng" format="2">
  <advance width="1229"/>
  <unicode hex="014A"/>
  <outline>
    <contour>
      <point x="1095" y="1456" type="line"/>
      <point x="1095" y="-39" type="line" smooth="yes"/>
      <point x="1095" y="-135"/>
      <point x="1043" y="-284"/>
      <point x="995" y="-334" type="qcurve" smooth="yes" name="inserted"/>
      <point x="946" y="-385"/>
      <point x="807" y="-437"/>
      <point x="719" y="-437" type="qcurve" smooth="yes"/>
      <point x="681" y="-437"/>
      <point x="617" y="-430"/>
      <point x="579" y="-420" type="qcurve"/>
      <point x="593" y="-198" type="line"/>
      <point x="615" y="-204"/>
      <point x="666" y="-209"/>
      <point x="692" y="-209" type="qcurve" smooth="yes"/>
      <point x="717" y="-209"/>
      <point x="757" y="-193"/>
      <point x="772" y="-177" type="qcurve" smooth="yes"/>
      <point x="793" y="-156"/>
      <point x="814" y="-87"/>
      <point x="814" y="-39" type="qcurve" smooth="yes"/>
      <point x="814" y="0" type="line"/>
      <point x="429" y="881" type="line"/>
      <point x="429" y="0" type="line"/>
      <point x="148" y="0" type="line"/>
      <point x="148" y="1456" type="line"/>
      <point x="429" y="1456" type="line"/>
      <point x="430" y="1453" type="line"/>
      <point x="814" y="574" type="line"/>
      <point x="814" y="1456" type="line"/>
    </contour>
  </outline>
</glyph>
<glyph name="eng" format="2">
  <advance width="1229"/>
  <unicode hex="014B"/>
  <outline>
    <contour>
      <point x="149" y="0" type="line"/>
      <point x="149" y="1082" type="line"/>
      <point x="407" y="1082" type="line"/>
      <point x="419" y="942" type="line"/>
      <point x="420" y="930" type="line"/>
      <point x="443" y="965"/>
      <point x="498" y="1022"/>
      <point x="529" y="1043" type="qcurve" smooth="yes"/>
      <point x="571" y="1072"/>
      <point x="672" y="1102"/>
      <point x="729" y="1102" type="qcurve" smooth="yes"/>
      <point x="808" y="1102"/>
      <point x="937" y="1054"/>
      <point x="983" y="1002" type="qcurve" smooth="yes" name="inserted"/>
      <point x="1029" y="949"/>
      <point x="1080" y="782"/>
      <point x="1080" y="663" type="qcurve" smooth="yes"/>
      <point x="1080" y="-40" type="line" smooth="yes"/>
      <point x="1080" y="-136"/>
      <point x="1028" y="-285"/>
      <point x="980" y="-335" type="qcurve" smooth="yes" name="inserted"/>
      <point x="931" y="-385"/>
      <point x="792" y="-437"/>
      <point x="705" y="-437" type="qcurve" smooth="yes"/>
      <point x="668" y="-437"/>
      <point x="603" y="-430"/>
      <point x="566" y="-420" type="qcurve"/>
      <point x="580" y="-196" type="line"/>
      <point x="602" y="-202"/>
      <point x="654" y="-208"/>
      <point x="680" y="-208" type="qcurve" smooth="yes"/>
      <point x="706" y="-208"/>
      <point x="748" y="-190"/>
      <point x="764" y="-173" type="qcurve" smooth="yes"/>
      <point x="781" y="-152"/>
      <point x="800" y="-85"/>
      <point x="800" y="-40" type="qcurve" smooth="yes"/>
      <point x="800" y="662" type="line" smooth="yes"/>
      <point x="800" y="722"/>
      <point x="777" y="804"/>
      <point x="756" y="829" type="qcurve" smooth="yes" name="inserted"/>
      <point x="734" y="854"/>
      <point x="670" y="876"/>
      <point x="628" y="876" type="qcurve" smooth="yes"/>
      <point x="588" y="876"/>
      <point x="521" y="859"/>
      <point x="494" y="844" type="qcurve" smooth="yes"/>
      <point x="474" y="832"/>
      <point x="440" y="802"/>
      <point x="427" y="784" type="qcurve"/>
      <point x="427" y="0" type="line"/>
    </contour>
  </outline>
</glyph>
<glyph name="OE" format="2">
  <advance width="1229"/>
  <unicode hex="0152"/>
  <outline>
    <contour>
      <point x="1190" y="0" type="line"/>
      <point x="769" y="0" type="line"/>
      <point x="706" y="-8"/>
      <point x="572" y="-21"/>
      <point x="501" y="-21" type="qcurve" smooth="yes"/>
      <point x="408" y="-21"/>
      <point x="250" y="41"/>
      <point x="192.5" y="105.0" type="qcurve" smooth="yes" name="inserted"/>
      <point x="135" y="169"/>
      <point x="71" y="364"/>
      <point x="71" y="496" type="qcurve" smooth="yes"/>
      <point x="71" y="960" type="line" smooth="yes"/>
      <point x="71" y="1092"/>
      <point x="135" y="1287"/>
      <point x="192.0" y="1351.0" type="qcurve" smooth="yes" name="inserted"/>
      <point x="249" y="1415"/>
      <point x="406" y="1477"/>
      <point x="499" y="1477" type="qcurve" smooth="yes"/>
      <point x="570" y="1477"/>
      <point x="706" y="1464"/>
      <point x="769" y="1456" type="qcurve"/>
      <point x="1179" y="1456" type="line"/>
      <point x="1179" y="1239" type="line"/>
      <point x="832" y="1239" type="line"/>
      <point x="832" y="865" type="line"/>
      <point x="1128" y="865" type="line"/>
      <point x="1128" y="648" type="line"/>
      <point x="832" y="648" type="line"/>
      <point x="832" y="232" type="line"/>
      <point x="1190" y="232" type="line"/>
    </contour>
    <contour>
      <point x="501" y="211" type="qcurve" smooth="yes"/>
      <point x="524.0" y="211.0" name="inserted"/>
      <point x="569.5" y="212.5"/>
      <point x="592" y="214" type="qcurve"/>
      <point x="592" y="1256" type="line"/>
      <point x="569" y="1258"/>
      <point x="522" y="1260"/>
      <point x="499" y="1260" type="qcurve" smooth="yes"/>
      <point x="455" y="1260"/>
      <point x="386" y="1233"/>
      <point x="362.0" y="1199.0" type="qcurve" smooth="yes" name="inserted"/>
      <point x="338" y="1165"/>
      <point x="312" y="1050"/>
      <point x="312" y="962" type="qcurve" smooth="yes"/>
      <point x="312" y="496" type="line" smooth="yes"/>
      <point x="312" y="412"/>
      <point x="338" y="301"/>
      <point x="362.5" y="269.0" type="qcurve" smooth="yes" name="inserted"/>
      <point x="387" y="237"/>
      <point x="457" y="211"/>
    </contour>
  </outline>
</glyph>
<glyph name="oe" format="2">
  <advance width="1229"/>
  <unicode hex="0153"/>
  <outline>
    <contour>
      <point x="38" y="640" type="line" smooth="yes"/>
      <point x="38" y="748"/>
      <point x="86" y="919"/>
      <point x="133" y="979" type="qcurve" smooth="yes" name="inserted"/>
      <point x="179" y="1038"/>
      <point x="315" y="1102"/>
      <point x="402" y="1102" type="qcurve" smooth="yes"/>
      <point x="449" y="1102"/>
      <point x="531" y="1082"/>
      <point x="566" y="1063" type="qcurve" smooth="yes"/>
      <point x="584" y="1053"/>
      <point x="616" y="1029"/>
      <point x="631" y="1015" type="qcurve"/>
      <point x="647" y="1032"/>
      <point x="682" y="1059"/>
      <point x="702" y="1069" type="qcurve" smooth="yes"/>
      <point x="733" y="1086"/>
      <point x="806" y="1103"/>
      <point x="847" y="1102" type="qcurve" smooth="yes"/>
      <point x="927" y="1102"/>
      <point x="1053" y="1040"/>
      <point x="1097" y="984" type="qcurve" smooth="yes" name="inserted"/>
      <point x="1140" y="928"/>
      <point x="1185" y="769"/>
      <point x="1185" y="672" type="qcurve" smooth="yes"/>
      <point x="1185" y="454" type="line"/>
      <point x="765" y="454" type="line"/>
      <point x="765" y="420" type="line" smooth="yes"/>
      <point x="765" y="392"/>
      <point x="770" y="344"/>
      <point x="776" y="323" type="qcurve" smooth="yes"/>
      <point x="782" y="300"/>
      <point x="801" y="262"/>
      <point x="814" y="248" type="qcurve" smooth="yes"/>
      <point x="834" y="226"/>
      <point x="894" y="203"/>
      <point x="933" y="203" type="qcurve" smooth="yes"/>
      <point x="959" y="203"/>
      <point x="999" y="209"/>
      <point x="1016" y="215" type="qcurve" smooth="yes" name="inserted"/>
      <point x="1033" y="220"/>
      <point x="1064" y="235"/>
      <point x="1081" y="244" type="qcurve"/>
      <point x="1141" y="64" type="line"/>
      <point x="1124" y="48"/>
      <point x="1081" y="19"/>
      <point x="1055" y="8" type="qcurve" smooth="yes"/>
      <point x="1024" y="-5"/>
      <point x="949" y="-20"/>
      <point x="906" y="-20" type="qcurve" smooth="yes"/>
      <point x="852" y="-20"/>
      <point x="758" y="1"/>
      <point x="718" y="21" type="qcurve" smooth="yes"/>
      <point x="697" y="32"/>
      <point x="658" y="59"/>
      <point x="641" y="75" type="qcurve"/>
      <point x="624" y="57"/>
      <point x="587" y="28"/>
      <point x="566" y="17" type="qcurve" smooth="yes"/>
      <point x="532" y="-1"/>
      <point x="451" y="-20"/>
      <point x="404" y="-20" type="qcurve" smooth="yes"/>
      <point x="316" y="-20"/>
      <point x="180" y="42"/>
      <point x="134" y="101" type="qcurve" smooth="yes" name="inserted"/>
      <point x="87" y="160"/>
      <point x="38" y="331"/>
      <point x="38" y="440" type="qcurve" smooth="yes"/>
    </contour>
    <contour>
      <point x="299" y="440" type="line" smooth="yes"/>
      <point x="299" y="374"/>
      <point x="312" y="277"/>
      <point x="328" y="248" type="qcurve" smooth="yes"/>
      <point x="340" y="226"/>
      <point x="377" y="203"/>
      <point x="404" y="203" type="qcurve" smooth="yes"/>
      <point x="430" y="203"/>
      <point x="468" y="226"/>
      <point x="480" y="248" type="qcurve" smooth="yes"/>
      <point x="487" y="262"/>
      <point x="498" y="300"/>
      <point x="501" y="324" type="qcurve" smooth="yes"/>
      <point x="505" y="348"/>
      <point x="508" y="406"/>
      <point x="508" y="440" type="qcurve" smooth="yes"/>
      <point x="508" y="641" type="line" smooth="yes"/>
      <point x="508" y="674"/>
      <point x="505" y="732"/>
      <point x="501" y="756" type="qcurve" smooth="yes"/>
      <point x="498" y="773"/>
      <point x="491" y="803"/>
      <point x="486" y="815" type="qcurve" smooth="yes" name="inserted"/>
      <point x="474" y="845"/>
      <point x="433" y="877"/>
      <point x="402" y="877" type="qcurve" smooth="yes"/>
      <point x="372" y="877"/>
      <point x="333" y="845"/>
      <point x="321" y="815" type="qcurve" smooth="yes" name="inserted"/>
      <point x="309" y="785"/>
      <point x="299" y="697"/>
      <point x="299" y="641" type="qcurve" smooth="yes"/>
    </contour>
    <contour>
      <point x="847" y="877" type="qcurve" smooth="yes"/>
      <point x="829" y="877"/>
      <point x="802" y="864"/>
      <point x="794" y="852" type="qcurve" smooth="yes"/>
      <point x="785" y="840"/>
      <point x="774" y="808"/>
      <point x="770" y="779" type="qcurve" smooth="yes"/>
      <point x="767" y="757"/>
      <point x="765" y="704"/>
      <point x="765" y="673" type="qcurve" smooth="yes"/>
      <point x="765" y="647" type="line"/>
      <point x="928" y="647" type="line"/>
      <point x="928" y="732" type="line" smooth="yes"/>
      <point x="928" y="768"/>
      <point x="918" y="825"/>
      <point x="907" y="844" type="qcurve" smooth="yes"/>
      <point x="897" y="860"/>
      <point x="867" y="877"/>
    </contour>
  </outline>
</glyph>
<glyph name="Tbar" format="2">
  <advance width="1229"/>
  <unicode hex="0166"/>
  <outline>
    <contour>
      <point x="982" y="757" type="line"/>
      <point x="752" y="757" type="line"/>
      <point x="752" y="0" type="line"/>
      <point x="470" y="0" type="line"/>
      <point x="470" y="757" type="line"/>
      <point x="241" y="757" type="line"/>
      <point x="241" y="937" type="line"/>
      <point x="470" y="937" type="line"/>
      <point x="470" y="1227" type="line"/>
      <point x="27" y="1227" type="line"/>
      <point x="27" y="1456" type="line"/>
      <point x="1201" y="1456" type="line"/>
      <point x="1201" y="1227" type="line"/>
      <point x="752" y="1227" type="line"/>
      <point x="752" y="937" type="line"/>
      <point x="982" y="937" type="line"/>
    </contour>
  </outline>
</glyph>
<glyph name="uogonek" format="2">
  <advance width="1229"/>
  <unicode hex="0173"/>
  <outline>
    <contour>
      <point x="1080" y="0" type="line"/>
      <point x="1035" y="-18"/>
      <point x="975" y="-58"/>
      <point x="957" y="-80" type="qcurve" smooth="yes" name="inserted"/>
      <point x="939" y="-102"/>
      <point x="924" y="-151"/>
      <point x="924" y="-178" type="qcurve" smooth="yes"/>
      <point x="924" y="-207"/>
      <point x="954" y="-246"/>
      <point x="991" y="-246" type="qcurve" smooth="yes"/>
      <point x="1020" y="-246"/>
      <point x="1060" y="-232"/>
      <point x="1074" y="-226" type="qcurve"/>
      <point x="1121" y="-380" type="line"/>
      <point x="1093" y="-395"/>
      <point x="1004" y="-424"/>
      <point x="935" y="-424" type="qcurve" smooth="yes"/>
      <point x="889" y="-424"/>
      <point x="808" y="-397"/>
      <point x="778" y="-371" type="qcurve" smooth="yes" name="inserted"/>
      <point x="748" y="-345"/>
      <point x="713" y="-268"/>
      <point x="713" y="-217" type="qcurve" smooth="yes"/>
      <point x="713" y="-181"/>
      <point x="737" y="-108"/>
      <point x="760" y="-74" type="qcurve" smooth="yes"/>
      <point x="776" y="-51"/>
      <point x="819" y="-7"/>
      <point x="846" y="12" type="qcurve"/>
      <point x="831" y="152" type="line"/>
      <point x="776" y="71"/>
      <point x="621" y="-21"/>
      <point x="529" y="-21" type="qcurve" smooth="yes"/>
      <point x="445" y="-21"/>
      <point x="305" y="31"/>
      <point x="255" y="88" type="qcurve" smooth="yes" name="inserted"/>
      <point x="205" y="144"/>
      <point x="150" y="319"/>
      <point x="150" y="442" type="qcurve" smooth="yes"/>
      <point x="150" y="1082" type="line"/>
      <point x="428" y="1082" type="line"/>
      <point x="428" y="440" type="line" smooth="yes"/>
      <point x="428" y="374"/>
      <point x="447" y="284"/>
      <point x="468" y="257" type="qcurve" smooth="yes" name="inserted"/>
      <point x="489" y="229"/>
      <point x="557" y="205"/>
      <point x="606" y="205" type="qcurve" smooth="yes"/>
      <point x="653" y="205"/>
      <point x="727" y="226"/>
      <point x="755" y="245" type="qcurve" smooth="yes"/>
      <point x="776" y="260"/>
      <point x="808" y="299"/>
      <point x="820" y="323" type="qcurve"/>
      <point x="820" y="1082" type="line"/>
      <point x="1099" y="1082" type="line"/>
      <point x="1099" y="0" type="line"/>
    </contour>
  </outline>
</glyph>
<glyph name="longs" format="2">
  <advance width="1229"/>
  <unicode hex="017F"/>
  <outline>
    <contour>
      <point x="412" y="0" type="line"/>
      <point x="412" y="1101" type="line" smooth="yes"/>
      <point x="412" y="1218"/>
      <point x="480" y="1397"/>
      <point x="544" y="1458" type="qcurve" smooth="yes" name="inserted"/>
      <point x="607" y="1518"/>
      <point x="789" y="1581"/>
      <point x="903" y="1581" type="qcurve" smooth="yes"/>
      <point x="944" y="1581"/>
      <point x="1021" y="1569"/>
      <point x="1061" y="1560" type="qcurve"/>
      <point x="1037" y="1345" type="line"/>
      <point x="1016" y="1350"/>
      <point x="973" y="1356"/>
      <point x="941" y="1356" type="qcurve" smooth="yes"/>
      <point x="881" y="1356"/>
      <point x="788" y="1322"/>
      <point x="756" y="1291" type="qcurve" smooth="yes"/>
      <point x="723" y="1258"/>
      <point x="689" y="1162"/>
      <point x="689" y="1101" type="qcurve" smooth="yes"/>
      <point x="689" y="0" type="line"/>
    </contour>
  </outline>
</glyph>
<glyph name="florin" format="2">
  <advance width="1229"/>
  <unicode hex="0192"/>
  <outline>
    <contour>
      <point x="945" y="877" type="line"/>
      <point x="739" y="877" type="line"/>
      <point x="739" y="-13" type="line" smooth="yes"/>
      <point x="739" y="-116"/>
      <point x="684" y="-274"/>
      <point x="633" y="-328" type="qcurve" smooth="yes" name="inserted"/>
      <point x="581" y="-382"/>
      <point x="432" y="-437"/>
      <point x="338" y="-437" type="qcurve" smooth="yes"/>
      <point x="290" y="-437"/>
      <point x="196" y="-421"/>
      <point x="148" y="-400" type="qcurve"/>
      <point x="163" y="-179" type="line"/>
      <point x="183.0" y="-195.0"/>
      <point x="282.0" y="-212.0"/>
      <point x="306" y="-212" type="qcurve" smooth="yes"/>
      <point x="340" y="-212"/>
      <point x="392" y="-194"/>
      <point x="410" y="-177" type="qcurve" smooth="yes"/>
      <point x="436" y="-153"/>
      <point x="460" y="-69"/>
      <point x="460" y="-13" type="qcurve" smooth="yes"/>
      <point x="460" y="877" type="line"/>
      <point x="299" y="877" type="line"/>
      <point x="299" y="1082" type="line"/>
      <point x="460" y="1082" type="line"/>
      <point x="460" y="1161" type="line" smooth="yes"/>
      <point x="460" y="1263"/>
      <point x="525" y="1420"/>
      <point x="586" y="1473" type="qcurve" smooth="yes" name="inserted"/>
      <point x="647" y="1526"/>
      <point x="822" y="1581"/>
      <point x="933" y="1581" type="qcurve" smooth="yes"/>
      <point x="984" y="1581"/>
      <point x="1079" y="1557"/>
      <point x="1130" y="1540" type="qcurve"/>
      <point x="1106" y="1324" type="line"/>
      <point x="1078" y="1338"/>
      <point x="1011" y="1354"/>
      <point x="967" y="1354" type="qcurve" smooth="yes"/>
      <point x="907" y="1354"/>
      <point x="818" y="1327"/>
      <point x="790" y="1300" type="qcurve" smooth="yes"/>
      <point x="764" y="1276"/>
      <point x="739" y="1206"/>
      <point x="739" y="1161" type="qcurve" smooth="yes"/>
      <point x="739" y="1082" type="line"/>
      <point x="945" y="1082" type="line"/>
    </contour>
  </outline>
</glyph>
<glyph name="Uhorn" format="2">
  <advance width="1229"/>
  <unicode hex="01AF"/>
  <outline>
    <contour>
      <point x="1108" y="1456" type="line"/>
      <point x="1108" y="1260" type="line"/>
      <point x="1160" y="1263"/>
      <point x="1222" y="1297"/>
      <point x="1238" y="1328" type="qcurve" smooth="yes" name="inserted"/>
      <point x="1254" y="1358"/>
      <point x="1263" y="1449"/>
      <point x="1263" y="1509" type="qcurve"/>
      <point x="1463" y="1509" type="line"/>
      <point x="1463" y="1410"/>
      <point x="1424" y="1261"/>
      <point x="1382" y="1211" type="qcurve" smooth="yes" name="inserted"/>
      <point x="1339" y="1160"/>
      <point x="1204" y="1106"/>
      <point x="1108" y="1103" type="qcurve"/>
      <point x="1108" y="491" type="line" smooth="yes"/>
      <point x="1108" y="369"/>
      <point x="1042" y="179"/>
      <point x="979" y="114" type="qcurve" smooth="yes" name="inserted"/>
      <point x="915" y="48"/>
      <point x="732" y="-20"/>
      <point x="615" y="-20" type="qcurve" smooth="yes"/>
      <point x="505" y="-20"/>
      <point x="328" y="48"/>
      <point x="265" y="113" type="qcurve" smooth="yes" name="inserted"/>
      <point x="202" y="178"/>
      <point x="133" y="369"/>
      <point x="133" y="491" type="qcurve" smooth="yes"/>
      <point x="134" y="1456" type="line"/>
      <point x="415" y="1456" type="line"/>
      <point x="416" y="491" type="line" smooth="yes"/>
      <point x="416" y="426"/>
      <point x="439" y="324"/>
      <point x="460" y="289" type="qcurve" smooth="yes"/>
      <point x="485" y="248"/>
      <point x="563" y="206"/>
      <point x="615" y="206" type="qcurve" smooth="yes"/>
      <point x="665" y="206"/>
      <point x="742" y="240"/>
      <point x="769" y="273" type="qcurve" smooth="yes"/>
      <point x="798" y="308"/>
      <point x="827" y="418"/>
      <point x="828" y="491" type="qcurve" smooth="yes"/>
      <point x="829" y="1456" type="line"/>
    </contour>
  </outline>
</glyph>
<glyph name="schwa" format="2">
  <advance width="1229"/>
  <unicode hex="0259"/>
  <outline>
    <contour>
      <point x="608" y="1103" type="qcurve" smooth="yes"/>
      <point x="731" y="1103"/>
      <point x="928" y="1021"/>
      <point x="997" y="950" type="qcurve" smooth="yes" name="inserted"/>
      <point x="1065" y="878"/>
      <point x="1139" y="684"/>
      <point x="1139" y="571" type="qcurve" smooth="yes"/>
      <point x="1139" y="531" type="line" smooth="yes"/>
      <point x="1139" y="412"/>
      <point x="1067" y="210"/>
      <point x="1001" y="137" type="qcurve" smooth="yes" name="inserted"/>
      <point x="935" y="63"/>
      <point x="749" y="-20"/>
      <point x="635" y="-19" type="qcurve" smooth="yes"/>
      <point x="518" y="-19"/>
      <point x="339" y="51"/>
      <point x="279" y="115" type="qcurve" smooth="yes" name="inserted"/>
      <point x="218" y="178"/>
      <point x="156" y="358"/>
      <point x="156" y="469" type="qcurve" smooth="yes"/>
      <point x="156" y="627" type="line"/>
      <point x="857" y="627" type="line"/>
      <point x="857.0" y="628.0"/>
      <point x="857" y="630"/>
      <point x="857" y="633" type="qcurve"/>
      <point x="848" y="684"/>
      <point x="808" y="773"/>
      <point x="776" y="806" type="qcurve" smooth="yes" name="inserted"/>
      <point x="741" y="840"/>
      <point x="644" y="879"/>
      <point x="581" y="879" type="qcurve" smooth="yes"/>
      <point x="524" y="879"/>
      <point x="433" y="866"/>
      <point x="395" y="855" type="qcurve" smooth="yes" name="inserted"/>
      <point x="357" y="844"/>
      <point x="291" y="814"/>
      <point x="260" y="797" type="qcurve"/>
      <point x="181" y="977" type="line"/>
      <point x="211" y="1001"/>
      <point x="295" y="1046"/>
      <point x="349" y="1064" type="qcurve" smooth="yes" name="inserted"/>
      <point x="403" y="1081"/>
      <point x="533" y="1103"/>
    </contour>
    <contour>
      <point x="635" y="204" type="qcurve" smooth="yes"/>
      <point x="681" y="204"/>
      <point x="755" y="239"/>
      <point x="782.0" y="269.5" type="qcurve" smooth="yes" name="inserted"/>
      <point x="809" y="300"/>
      <point x="844" y="384"/>
      <point x="853" y="434" type="qcurve"/>
      <point x="429" y="434" type="line"/>
      <point x="429" y="409" type="line" smooth="yes"/>
      <point x="429" y="364"/>
      <point x="453" y="289"/>
      <point x="478.0" y="262.0" type="qcurve" smooth="yes" name="inserted"/>
      <point x="503" y="235"/>
      <point x="581" y="204"/>
    </contour>
  </outline>
</glyph>
<glyph name="breve" format="2">
  <advance width="1229"/>
  <unicode hex="02D8"/>
  <outline>
    <contour>
      <point x="974" y="1442" type="line"/>
      <point x="974" y="1377"/>
      <point x="927" y="1269"/>
      <point x="882.5" y="1230.5" type="qcurve" smooth="yes" name="inserted"/>
      <point x="838" y="1192"/>
      <point x="712" y="1149"/>
      <point x="634" y="1149" type="qcurve" smooth="yes"/>
      <point x="555" y="1149"/>
      <point x="429" y="1192"/>
      <point x="384.5" y="1230.5" type="qcurve" smooth="yes" name="inserted"/>
      <point x="340" y="1269"/>
      <point x="293" y="1377"/>
      <point x="293" y="1442" type="qcurve"/>
      <point x="493" y="1442" type="line"/>
      <point x="493" y="1416"/>
      <point x="508" y="1367"/>
      <point x="525.0" y="1348.5" type="qcurve" smooth="yes" name="inserted"/>
      <point x="542" y="1330"/>
      <point x="595" y="1308"/>
      <point x="634" y="1308" type="qcurve" smooth="yes"/>
      <point x="672" y="1308"/>
      <point x="725" y="1330"/>
      <point x="741.5" y="1348.5" type="qcurve" smooth="yes" name="inserted"/>
      <point x="758" y="1367"/>
      <point x="773" y="1416"/>
      <point x="773" y="1442" type="qcurve"/>
    </contour>
  </outline>
</glyph>
<glyph name="dotaccent" format="2">
  <advance width="1229"/>
  <unicode hex="02D9"/>
  <outline>
    <contour>
      <point x="472" y="1363" type="qcurve" smooth="yes"/>
      <point x="472" y="1424"/>
      <point x="552" y="1503"/>
      <point x="622" y="1503" type="qcurve" smooth="yes"/>
      <point x="692" y="1503"/>
      <point x="772" y="1424"/>
      <point x="772" y="1363" type="qcurve" smooth="yes"/>
      <point x="772" y="1303"/>
      <point x="692" y="1224"/>
      <point x="622" y="1224" type="qcurve" smooth="yes"/>
      <point x="552" y="1224"/>
      <point x="472" y="1303"/>
    </contour>
  </outline>
</glyph>
<glyph name="ring" format="2">
  <advance width="1229"/>
  <unicode hex="02DA"/>
  <outline>
    <contour>
      <point x="403" y="1231" type="qcurve" smooth="yes"/>
      <point x="403" y="1273"/>
      <point x="436" y="1345"/>
      <point x="465.0" y="1371.0" type="qcurve" smooth="yes" name="inserted"/>
      <point x="494" y="1397"/>
      <point x="572" y="1427"/>
      <point x="616" y="1427" type="qcurve" smooth="yes"/>
      <point x="660" y="1427"/>
      <point x="736" y="1397"/>
      <point x="764.0" y="1371.0" type="qcurve" smooth="yes" name="inserted"/>
      <point x="792" y="1345"/>
      <point x="824" y="1273"/>
      <point x="824" y="1231" type="qcurve" smooth="yes"/>
      <point x="824" y="1189"/>
      <point x="792" y="1118"/>
      <point x="764.0" y="1092.5" type="qcurve" smooth="yes" name="inserted"/>
      <point x="736" y="1067"/>
      <point x="660" y="1039"/>
      <point x="616" y="1039" type="qcurve" smooth="yes"/>
      <point x="572" y="1039"/>
      <point x="494" y="1067"/>
      <point x="465.0" y="1092.5" type="qcurve" smooth="yes" name="inserted"/>
      <point x="436" y="1118"/>
      <point x="403" y="1189"/>
    </contour>
    <contour>
      <point x="517" y="1231" type="qcurve" smooth="yes"/>
      <point x="517" y="1209"/>
      <point x="533" y="1172"/>
      <point x="546" y="1159" type="qcurve" smooth="yes"/>
      <point x="559" y="1147"/>
      <point x="595" y="1133"/>
      <point x="616" y="1133" type="qcurve" smooth="yes"/>
      <point x="636" y="1133"/>
      <point x="670" y="1146"/>
      <point x="682" y="1158" type="qcurve" smooth="yes"/>
      <point x="696" y="1171"/>
      <point x="711" y="1208"/>
      <point x="711" y="1231" type="qcurve" smooth="yes"/>
      <point x="711" y="1253"/>
      <point x="697" y="1291"/>
      <point x="685" y="1304" type="qcurve" smooth="yes"/>
      <point x="672" y="1317"/>
      <point x="637" y="1331"/>
      <point x="616" y="1331" type="qcurve" smooth="yes"/>
      <point x="595" y="1331"/>
      <point x="557" y="1316"/>
      <point x="544" y="1302" type="qcurve" smooth="yes"/>
      <point x="532" y="1289"/>
      <point x="517" y="1253"/>
    </contour>
  </outline>
</glyph>
<glyph name="ogonek" format="2">
  <advance width="1229"/>
  <unicode hex="02DB"/>
  <outline>
    <contour>
      <point x="748" y="0" type="line"/>
      <point x="703" y="-18"/>
      <point x="643" y="-58"/>
      <point x="625" y="-80" type="qcurve" smooth="yes" name="inserted"/>
      <point x="607" y="-102"/>
      <point x="592" y="-151"/>
      <point x="592" y="-178" type="qcurve" smooth="yes"/>
      <point x="592" y="-207"/>
      <point x="622" y="-246"/>
      <point x="659" y="-246" type="qcurve" smooth="yes"/>
      <point x="688" y="-246"/>
      <point x="728" y="-232"/>
      <point x="742" y="-226" type="qcurve"/>
      <point x="789" y="-380" type="line"/>
      <point x="761" y="-395"/>
      <point x="672" y="-424"/>
      <point x="603" y="-424" type="qcurve" smooth="yes"/>
      <point x="557" y="-424"/>
      <point x="476" y="-397"/>
      <point x="446" y="-371" type="qcurve" smooth="yes" name="inserted"/>
      <point x="416" y="-345"/>
      <point x="381" y="-268"/>
      <point x="381" y="-217" type="qcurve" smooth="yes"/>
      <point x="381" y="-171"/>
      <point x="419" y="-79"/>
      <point x="457" y="-38" type="qcurve" smooth="yes"/>
      <point x="483" y="-10"/>
      <point x="552" y="40"/>
      <point x="595" y="60" type="qcurve"/>
    </contour>
  </outline>
</glyph>
<glyph name="tilde" format="2">
  <advance width="1229"/>
  <unicode hex="02DC"/>
  <outline>
    <contour>
      <point x="856" y="1511" type="line"/>
      <point x="856" y="1466"/>
      <point x="825" y="1378"/>
      <point x="797" y="1344" type="qcurve" smooth="yes" name="inserted"/>
      <point x="768" y="1309"/>
      <point x="689" y="1267"/>
      <point x="640" y="1267" type="qcurve" smooth="yes"/>
      <point x="592" y="1267"/>
      <point x="521" y="1294"/>
      <point x="490" y="1311" type="qcurve" smooth="yes" name="inserted"/>
      <point x="458" y="1327"/>
      <point x="396" y="1354"/>
      <point x="357" y="1354" type="qcurve" smooth="yes"/>
      <point x="339" y="1354"/>
      <point x="307" y="1341"/>
      <point x="295" y="1328" type="qcurve" smooth="yes"/>
      <point x="282" y="1316"/>
      <point x="268" y="1279"/>
      <point x="268" y="1256" type="qcurve"/>
      <point x="128" y="1286" type="line"/>
      <point x="128" y="1330"/>
      <point x="159" y="1418"/>
      <point x="187" y="1453" type="qcurve" smooth="yes" name="inserted"/>
      <point x="215" y="1488"/>
      <point x="294" y="1532"/>
      <point x="343" y="1532" type="qcurve" smooth="yes"/>
      <point x="383" y="1532"/>
      <point x="453" y="1505"/>
      <point x="487" y="1489" type="qcurve" smooth="yes" name="inserted"/>
      <point x="520" y="1472"/>
      <point x="588" y="1445"/>
      <point x="626" y="1445" type="qcurve" smooth="yes"/>
      <point x="645" y="1445"/>
      <point x="680" y="1460"/>
      <point x="692" y="1474" type="qcurve" smooth="yes"/>
      <point x="703" y="1486"/>
      <point x="716" y="1521"/>
      <point x="716" y="1542" type="qcurve"/>
    </contour>
  </outline>
</glyph>
<glyph name="hungarumlaut" format="2">
  <advance width="1229"/>
  <unicode hex="02DD"/>
  <outline>
    <contour>
      <point x="780" y="1518" type="line"/>
      <point x="1053" y="1518" type="line"/>
      <point x="747" y="1253" type="line"/>
      <point x="535" y="1253" type="line"/>
    </contour>
    <contour>
      <point x="413" y="1518" type="line"/>
      <point x="674" y="1518" type="line"/>
      <point x="416" y="1253" type="line"/>
      <point x="210" y="1253" type="line"/>
    </contour>
  </outline>
</glyph>
<glyph name="acutecomb" format="2">
  <unicode hex="0301"/>
  <outline>
    <contour>
      <point x="-510" y="1561" type="line"/>
      <point x="-286" y="1561" type="line"/>
      <point x="-490" y="1209" type="line"/>
      <point x="-656" y="1209" type="line"/>
    </contour>
  </outline>
</glyph>
<glyph name="hook" format="2">
  <advance width="1229"/>
  <unicode hex="0309"/>
  <outline>
    <contour>
      <point x="-710" y="1263" type="line"/>
      <point x="-723" y="1400" type="line"/>
      <point x="-684" y="1403"/>
      <point x="-629" y="1413"/>
      <point x="-612" y="1422" type="qcurve" smooth="yes"/>
      <point x="-598" y="1430"/>
      <point x="-585" y="1451"/>
      <point x="-585" y="1466" type="qcurve" smooth="yes"/>
      <point x="-585" y="1486"/>
      <point x="-607" y="1513"/>
      <point x="-626" y="1521" type="qcurve" smooth="yes" name="inserted"/>
      <point x="-645" y="1529"/>
      <point x="-699" y="1536"/>
      <point x="-730" y="1536" type="qcurve"/>
      <point x="-723" y="1669" type="line"/>
      <point x="-640" y="1669"/>
      <point x="-510" y="1647"/>
      <point x="-464" y="1626" type="qcurve" smooth="yes"/>
      <point x="-409" y="1601"/>
      <point x="-353" y="1523"/>
      <point x="-353" y="1474" type="qcurve" smooth="yes"/>
      <point x="-353" y="1439"/>
      <point x="-379" y="1388"/>
      <point x="-400" y="1371" type="qcurve" smooth="yes" name="inserted"/>
      <point x="-421" y="1353"/>
      <point x="-475" y="1333"/>
      <point x="-503" y="1329" type="qcurve"/>
      <point x="-503" y="1263" type="line"/>
    </contour>
  </outline>
</glyph>
<glyph name="dotbelow" format="2">
  <advance width="1229"/>
  <unicode hex="0323"/>
  <outline>
    <contour>
      <point x="-755" y="-224" type="qcurve" smooth="yes"/>
      <point x="-755.0" y="-164.70019107583607"/>
      <point x="-669.9081035630859" y="-83.0"/>
      <point x="-593" y="-83" type="qcurve" smooth="yes"/>
      <point x="-518.1157938991006" y="-83.0"/>
      <point x="-431.0" y="-164.70019107583605"/>
      <point x="-431" y="-224" type="qcurve" smooth="yes"/>
      <point x="-431.0" y="-284.0"/>
      <point x="-519.0" y="-364.0"/>
      <point x="-593" y="-364" type="qcurve" smooth="yes"/>
      <point x="-668.9999999999999" y="-364.0"/>
      <point x="-755.0" y="-284.0"/>
    </contour>
  </outline>
</glyph>
<glyph name="tonos" format="2">
  <advance width="1229"/>
  <unicode hex="0384"/>
  <outline>
    <contour>
      <point x="661" y="1665" type="line"/>
      <point x="938" y="1665" type="line"/>
      <point x="721" y="1266" type="line"/>
      <point x="581" y="1266" type="line"/>
    </contour>
  </outline>
</glyph>
<glyph name="dieresistonos" format="2">
  <advance width="1229"/>
  <unicode hex="0385"/>
  <outline>
    <contour>
      <point x="646" y="1801" type="line"/>
      <point x="918" y="1801" type="line"/>
      <point x="750" y="1477" type="line"/>
      <point x="603" y="1477" type="line"/>
    </contour>
    <contour>
      <point x="259" y="1353" type="qcurve" smooth="yes"/>
      <point x="259.0" y="1407.4876227809132"/>
      <point x="335.1728797857369" y="1484.0"/>
      <point x="401" y="1484" type="qcurve" smooth="yes"/>
      <point x="462.95227094936774" y="1484.0"/>
      <point x="542.0" y="1409.0431765869423"/>
      <point x="542" y="1353" type="qcurve" smooth="yes"/>
      <point x="542.0" y="1298.197093113824"/>
      <point x="462.1047657867808" y="1224.0"/>
      <point x="401" y="1224" type="qcurve" smooth="yes"/>
      <point x="336.0484066534211" y="1224.0"/>
      <point x="259.0" y="1299.7797201211908"/>
    </contour>
    <contour>
      <point x="808" y="1355" type="qcurve" smooth="yes"/>
      <point x="808.0" y="1409.4876227809132"/>
      <point x="884.1728797857369" y="1485.0"/>
      <point x="950" y="1485" type="qcurve" smooth="yes"/>
      <point x="1011.9522709493676" y="1485.0"/>
      <point x="1091.0" y="1411.0431765869423"/>
      <point x="1091" y="1355" type="qcurve" smooth="yes"/>
      <point x="1091.0" y="1297.4012698125196"/>
      <point x="1010.325582364582" y="1224.0"/>
      <point x="950" y="1224" type="qcurve" smooth="yes"/>
      <point x="885.950655329209" y="1224.0"/>
      <point x="808.0" y="1299.0431101102486"/>
    </contour>
  </outline>
</glyph>
<glyph name="Theta" format="2">
  <advance width="1229"/>
  <unicode hex="0398"/>
  <outline>
    <contour>
      <point x="818" y="614" type="line"/>
      <point x="430" y="614" type="line"/>
      <point x="430" y="837" type="line"/>
      <point x="818" y="837" type="line"/>
    </contour>
    <contour>
      <point x="1158" y="621" type="line" smooth="yes"/>
      <point x="1158" y="481"/>
      <point x="1084" y="245"/>
      <point x="1014.0" y="160.0" type="qcurve" smooth="yes" name="inserted"/>
      <point x="944" y="75"/>
      <point x="743" y="-20"/>
      <point x="617" y="-20" type="qcurve" smooth="yes"/>
      <point x="491" y="-20"/>
      <point x="295" y="75"/>
      <point x="228.0" y="160.5" type="qcurve" smooth="yes" name="inserted"/>
      <point x="161" y="246"/>
      <point x="91" y="481"/>
      <point x="91" y="621" type="qcurve" smooth="yes"/>
      <point x="91" y="833" type="line" smooth="yes"/>
      <point x="91" y="973"/>
      <point x="161" y="1209"/>
      <point x="228.0" y="1294.5" type="qcurve" smooth="yes" name="inserted"/>
      <point x="295" y="1380"/>
      <point x="490" y="1476"/>
      <point x="616" y="1476" type="qcurve" smooth="yes"/>
      <point x="743" y="1476"/>
      <point x="944" y="1380"/>
      <point x="1014.0" y="1294.5" type="qcurve" smooth="yes" name="inserted"/>
      <point x="1084" y="1209"/>
      <point x="1158" y="973"/>
      <point x="1158" y="833" type="qcurve" smooth="yes"/>
    </contour>
    <contour>
      <point x="873" y="835" type="line" smooth="yes"/>
      <point x="873" y="924"/>
      <point x="844" y="1074"/>
      <point x="813.0" y="1128.0" type="qcurve" smooth="yes" name="inserted"/>
      <point x="782" y="1182"/>
      <point x="685" y="1243"/>
      <point x="616" y="1243" type="qcurve" smooth="yes"/>
      <point x="548" y="1243"/>
      <point x="456" y="1182"/>
      <point x="428.0" y="1128.0" type="qcurve" smooth="yes" name="inserted"/>
      <point x="400" y="1074"/>
      <point x="376" y="924"/>
      <point x="376" y="835" type="qcurve" smooth="yes"/>
      <point x="376" y="621" type="line" smooth="yes"/>
      <point x="376" y="533"/>
      <point x="400" y="383"/>
      <point x="428.0" y="328.0" type="qcurve" smooth="yes" name="inserted"/>
      <point x="456" y="273"/>
      <point x="548" y="211"/>
      <point x="617" y="211" type="qcurve" smooth="yes"/>
      <point x="685" y="211"/>
      <point x="782" y="273"/>
      <point x="812.5" y="327.5" type="qcurve" smooth="yes" name="inserted"/>
      <point x="843" y="382"/>
      <point x="873" y="532"/>
      <point x="873" y="621" type="qcurve" smooth="yes"/>
    </contour>
  </outline>
</glyph>
<glyph name="Xi" format="2">
  <advance width="1229"/>
  <unicode hex="039E"/>
  <outline>
    <contour>
      <point x="121" y="226" type="line"/>
      <point x="1096" y="226" type="line"/>
      <point x="1096" y="0" type="line"/>
      <point x="121" y="0" type="line"/>
    </contour>
    <contour>
      <point x="229" y="849" type="line"/>
      <point x="985" y="849" type="line"/>
      <point x="985" y="630" type="line"/>
      <point x="229" y="630" type="line"/>
    </contour>
    <contour>
      <point x="140" y="1456" type="line"/>
      <point x="1060" y="1456" type="line"/>
      <point x="1060" y="1228" type="line"/>
      <point x="140" y="1228" type="line"/>
    </contour>
  </outline>
</glyph>
<glyph name="Phi" format="2">
  <advance width="1229"/>
  <unicode hex="03A6"/>
  <outline>
    <contour>
      <point x="804" y="1260" type="line"/>
      <point x="906" y="1249"/>
      <point x="1074" y="1163"/>
      <point x="1134.5" y="1093.0" type="qcurve" smooth="yes" name="inserted"/>
      <point x="1195" y="1023"/>
      <point x="1262" y="834"/>
      <point x="1262" y="720" type="qcurve" smooth="yes"/>
      <point x="1262" y="608"/>
      <point x="1195" y="423"/>
      <point x="1134.5" y="354.0" type="qcurve" smooth="yes" name="inserted"/>
      <point x="1074" y="285"/>
      <point x="906" y="200"/>
      <point x="804" y="189" type="qcurve"/>
      <point x="804" y="0" type="line"/>
      <point x="524" y="0" type="line"/>
      <point x="524" y="189" type="line"/>
      <point x="422" y="200"/>
      <point x="253" y="284"/>
      <point x="192.5" y="352.5" type="qcurve" smooth="yes" name="inserted"/>
      <point x="132" y="421"/>
      <point x="65" y="606"/>
      <point x="65" y="718" type="qcurve" smooth="yes"/>
      <point x="65" y="832"/>
      <point x="132" y="1022"/>
      <point x="192.5" y="1092.5" type="qcurve" smooth="yes" name="inserted"/>
      <point x="253" y="1163"/>
      <point x="422" y="1249"/>
      <point x="524" y="1260" type="qcurve"/>
      <point x="524" y="1456" type="line"/>
      <point x="804" y="1456" type="line"/>
    </contour>
    <contour>
      <point x="341" y="718" type="qcurve" smooth="yes"/>
      <point x="341" y="655"/>
      <point x="369" y="554"/>
      <point x="394" y="519" type="qcurve" smooth="yes"/>
      <point x="418" y="486"/>
      <point x="484" y="444"/>
      <point x="524" y="434" type="qcurve"/>
      <point x="524" y="1015" type="line"/>
      <point x="485" y="1005"/>
      <point x="420" y="963"/>
      <point x="397" y="930" type="qcurve" smooth="yes"/>
      <point x="370" y="892"/>
      <point x="341" y="786"/>
    </contour>
    <contour>
      <point x="984" y="720" type="qcurve" smooth="yes"/>
      <point x="984" y="797"/>
      <point x="946" y="914"/>
      <point x="912" y="952" type="qcurve" smooth="yes"/>
      <point x="891" y="975"/>
      <point x="836" y="1007"/>
      <point x="804" y="1015" type="qcurve"/>
      <point x="804" y="435" type="line"/>
      <point x="841" y="444"/>
      <point x="903" y="483"/>
      <point x="926" y="512" type="qcurve" smooth="yes"/>
      <point x="954" y="548"/>
      <point x="984" y="653"/>
    </contour>
  </outline>
</glyph>
<glyph name="Omega" format="2">
  <advance width="1229"/>
  <unicode hex="03A9"/>
  <unicode hex="2126"/>
  <outline>
    <contour>
      <point x="677" y="272" type="line"/>
      <point x="714" y="288"/>
      <point x="776" y="366"/>
      <point x="799" y="431" type="qcurve" smooth="yes" name="inserted"/>
      <point x="821" y="496"/>
      <point x="845" y="682"/>
      <point x="845" y="805" type="qcurve" smooth="yes"/>
      <point x="845" y="858" type="line" smooth="yes"/>
      <point x="845" y="970"/>
      <point x="804" y="1131"/>
      <point x="765" y="1178" type="qcurve" smooth="yes"/>
      <point x="738" y="1212"/>
      <point x="664" y="1246"/>
      <point x="619" y="1246" type="qcurve" smooth="yes"/>
      <point x="566" y="1246"/>
      <point x="480" y="1195"/>
      <point x="451" y="1144" type="qcurve" smooth="yes"/>
      <point x="424" y="1095"/>
      <point x="394" y="952"/>
      <point x="394" y="858" type="qcurve" smooth="yes"/>
      <point x="394" y="805" type="line" smooth="yes"/>
      <point x="394" y="681"/>
      <point x="419" y="495"/>
      <point x="442" y="430" type="qcurve" smooth="yes" name="inserted"/>
      <point x="465" y="365"/>
      <point x="529" y="288"/>
      <point x="569" y="272" type="qcurve"/>
      <point x="569" y="0" type="line"/>
      <point x="100" y="0" type="line"/>
      <point x="100" y="228" type="line"/>
      <point x="368" y="228" type="line"/>
      <point x="308" y="271"/>
      <point x="205" y="393"/>
      <point x="167" y="468" type="qcurve" smooth="yes" name="inserted"/>
      <point x="129" y="542"/>
      <point x="86" y="713"/>
      <point x="86" y="805" type="qcurve" smooth="yes"/>
      <point x="86" y="856" type="line" smooth="yes"/>
      <point x="86" y="992"/>
      <point x="164" y="1220"/>
      <point x="234" y="1303" type="qcurve" smooth="yes" name="inserted"/>
      <point x="304" y="1385"/>
      <point x="500" y="1476"/>
      <point x="619" y="1476" type="qcurve" smooth="yes"/>
      <point x="738" y="1476"/>
      <point x="935" y="1385"/>
      <point x="1006" y="1303" type="qcurve" smooth="yes" name="inserted"/>
      <point x="1076" y="1220"/>
      <point x="1154" y="992"/>
      <point x="1154" y="856" type="qcurve" smooth="yes"/>
      <point x="1154" y="805" type="line" smooth="yes"/>
      <point x="1154" y="713"/>
      <point x="1111" y="541"/>
      <point x="1074" y="467" type="qcurve" smooth="yes" name="inserted"/>
      <point x="1036" y="393"/>
      <point x="933" y="271"/>
      <point x="874" y="228" type="qcurve"/>
      <point x="1147" y="228" type="line"/>
      <point x="1147" y="0" type="line"/>
      <point x="677" y="0" type="line"/>
    </contour>
  </outline>
</glyph>
<glyph name="beta" format="2">
  <advance width="1229"/>
  <unicode hex="03B2"/>
  <outline>
    <contour>
      <point x="638" y="1477" type="qcurve" smooth="yes"/>
      <point x="743" y="1477"/>
      <point x="915" y="1423"/>
      <point x="976" y="1373" type="qcurve" smooth="yes" name="inserted"/>
      <point x="1036" y="1322"/>
      <point x="1102" y="1175"/>
      <point x="1102" y="1082" type="qcurve" smooth="yes"/>
      <point x="1102" y="1016"/>
      <point x="1057" y="899"/>
      <point x="1015" y="853" type="qcurve" smooth="yes"/>
      <point x="994" y="830"/>
      <point x="942" y="789"/>
      <point x="912" y="773" type="qcurve"/>
      <point x="961" y="756"/>
      <point x="1041" y="706"/>
      <point x="1071" y="673" type="qcurve" smooth="yes"/>
      <point x="1117" y="625"/>
      <point x="1165" y="494"/>
      <point x="1165" y="415" type="qcurve" smooth="yes"/>
      <point x="1165" y="311"/>
      <point x="1102" y="148"/>
      <point x="1044" y="93" type="qcurve" smooth="yes" name="inserted"/>
      <point x="986" y="37"/>
      <point x="820" y="-21"/>
      <point x="718" y="-21" type="qcurve" smooth="yes"/>
      <point x="674" y="-21"/>
      <point x="583" y="-7"/>
      <point x="540" y="7" type="qcurve" smooth="yes"/>
      <point x="513" y="17"/>
      <point x="460" y="42"/>
      <point x="435" y="58" type="qcurve"/>
      <point x="435" y="-402" type="line"/>
      <point x="158" y="-402" type="line"/>
      <point x="158" y="1038" type="line" smooth="yes"/>
      <point x="158" y="1136"/>
      <point x="234" y="1298"/>
      <point x="300" y="1356" type="qcurve" smooth="yes" name="inserted"/>
      <point x="365" y="1413"/>
      <point x="539" y="1477"/>
    </contour>
    <contour>
      <point x="634" y="859" type="line" smooth="yes"/>
      <point x="681" y="859"/>
      <point x="750" y="883"/>
      <point x="773" y="906" type="qcurve" smooth="yes"/>
      <point x="800" y="932"/>
      <point x="824" y="1012"/>
      <point x="824" y="1063" type="qcurve" smooth="yes"/>
      <point x="824" y="1100"/>
      <point x="801" y="1168"/>
      <point x="778" y="1194" type="qcurve" smooth="yes" name="inserted"/>
      <point x="754" y="1220"/>
      <point x="684" y="1252"/>
      <point x="638" y="1252" type="qcurve" smooth="yes"/>
      <point x="594" y="1252"/>
      <point x="520" y="1222"/>
      <point x="493" y="1194" type="qcurve" smooth="yes" name="inserted"/>
      <point x="466" y="1166"/>
      <point x="435" y="1087"/>
      <point x="435" y="1038" type="qcurve" smooth="yes"/>
      <point x="435" y="266" type="line"/>
      <point x="454" y="251"/>
      <point x="501" y="228"/>
      <point x="528" y="220" type="qcurve" smooth="yes"/>
      <point x="557" y="211"/>
      <point x="622" y="202"/>
      <point x="658" y="202" type="qcurve" smooth="yes"/>
      <point x="712" y="202"/>
      <point x="798" y="235"/>
      <point x="827" y="264" type="qcurve" smooth="yes" name="inserted"/>
      <point x="856" y="293"/>
      <point x="887" y="372"/>
      <point x="887" y="418" type="qcurve" smooth="yes"/>
      <point x="887" y="471"/>
      <point x="859" y="558"/>
      <point x="832" y="589" type="qcurve" smooth="yes" name="inserted"/>
      <point x="804" y="619"/>
      <point x="722" y="653"/>
      <point x="669" y="653" type="qcurve" smooth="yes"/>
      <point x="567" y="653" type="line"/>
      <point x="567" y="859" type="line"/>
    </contour>
  </outline>
</glyph>
<glyph name="delta" format="2">
  <advance width="1229"/>
  <unicode hex="03B4"/>
  <outline>
    <contour>
      <point x="237" y="1251" type="qcurve" smooth="yes"/>
      <point x="237" y="1326"/>
      <point x="292" y="1444"/>
      <point x="345" y="1486" type="qcurve" smooth="yes" name="inserted"/>
      <point x="397" y="1527"/>
      <point x="548" y="1570"/>
      <point x="644" y="1570" type="qcurve" smooth="yes"/>
      <point x="723" y="1570"/>
      <point x="870" y="1526"/>
      <point x="950" y="1493" type="qcurve"/>
      <point x="906" y="1309" type="line"/>
      <point x="859" y="1324"/>
      <point x="735" y="1362"/>
      <point x="664" y="1362" type="qcurve" smooth="yes"/>
      <point x="627" y="1362"/>
      <point x="568" y="1348"/>
      <point x="548" y="1335" type="qcurve" smooth="yes"/>
      <point x="526" y="1321"/>
      <point x="502" y="1282"/>
      <point x="502" y="1258" type="qcurve" smooth="yes"/>
      <point x="502" y="1243"/>
      <point x="514" y="1209"/>
      <point x="532" y="1191" type="qcurve" smooth="yes" name="inserted"/>
      <point x="550" y="1173"/>
      <point x="616" y="1135"/>
      <point x="669" y="1116" type="qcurve" smooth="yes"/>
      <point x="779" y="1079"/>
      <point x="951" y="979"/>
      <point x="1010" y="916" type="qcurve" smooth="yes"/>
      <point x="1081" y="843"/>
      <point x="1152" y="655"/>
      <point x="1152" y="542" type="qcurve" smooth="yes"/>
      <point x="1152" y="522" type="line" smooth="yes"/>
      <point x="1152" y="406"/>
      <point x="1081" y="208"/>
      <point x="1014" y="136" type="qcurve" smooth="yes" name="inserted"/>
      <point x="946" y="63"/>
      <point x="750" y="-20"/>
      <point x="625" y="-20" type="qcurve" smooth="yes"/>
      <point x="498" y="-20"/>
      <point x="300" y="61"/>
      <point x="232" y="132" type="qcurve" smooth="yes" name="inserted"/>
      <point x="164" y="203"/>
      <point x="93" y="397"/>
      <point x="93" y="510" type="qcurve" smooth="yes"/>
      <point x="93" y="530" type="line" smooth="yes"/>
      <point x="93" y="614"/>
      <point x="146" y="761"/>
      <point x="191" y="819" type="qcurve" smooth="yes" name="inserted"/>
      <point x="236" y="876"/>
      <point x="356" y="954"/>
      <point x="424" y="970" type="qcurve"/>
      <point x="426" y="983" type="line"/>
      <point x="382" y="1004"/>
      <point x="311" y="1060"/>
      <point x="287" y="1093" type="qcurve" smooth="yes"/>
      <point x="263" y="1126"/>
      <point x="237" y="1205"/>
    </contour>
    <contour>
      <point x="370" y="534" type="line" smooth="yes"/>
      <point x="370" y="466"/>
      <point x="400" y="345"/>
      <point x="431.0" y="300.0" type="qcurve" smooth="yes" name="inserted"/>
      <point x="462" y="255"/>
      <point x="559" y="202"/>
      <point x="625" y="202" type="qcurve" smooth="yes"/>
      <point x="690" y="202"/>
      <point x="784" y="255"/>
      <point x="815.0" y="300.0" type="qcurve" smooth="yes" name="inserted"/>
      <point x="846" y="345"/>
      <point x="875" y="466"/>
      <point x="875" y="534" type="qcurve" smooth="yes"/>
      <point x="875" y="554" type="line" smooth="yes"/>
      <point x="875" y="606"/>
      <point x="840" y="712"/>
      <point x="807.5" y="757.0" type="qcurve" smooth="yes" name="inserted"/>
      <point x="775" y="802"/>
      <point x="682" y="866"/>
      <point x="625" y="877" type="qcurve"/>
      <point x="559" y="877"/>
      <point x="463" y="824"/>
      <point x="431.5" y="779.5" type="qcurve" smooth="yes" name="inserted"/>
      <point x="400" y="735"/>
      <point x="370" y="618"/>
      <point x="370" y="554" type="qcurve" smooth="yes"/>
    </contour>
  </outline>
</glyph>
